{
.formatVersion = 3;
axes = (
{
name = Weight;
tag = wght;
},
{
name = Width;
tag = wdth;
}
);
classes = (
{
code = "zero one two three four five six seven eight nine zero one two three four five six seven eight nine";
name = case;
},
{
code = "zero.osf one.osf two.osf three.osf four.osf five.osf six.osf seven.osf eight.osf nine.osf zero.tosf one.tosf two.tosf three.tosf four.tosf five.tosf six.tosf seven.tosf eight.tosf nine.tosf";
name = case_lnum_onum;
},
{
code = "gravecomb acutecomb circumflexcomb tildecomb macroncomb brevecomb dotaccentcomb dieresiscomb ringcomb hungarumlautcomb caroncomb commaturnedabovecomb hookabovecomb";
name = ccmp;
},
{
code = "zero.dnom one.dnom two.dnom three.dnom four.dnom five.dnom six.dnom seven.dnom eight.dnom nine.dnom";
name = dnom_frac;
},
{
code = "zero one two three four five six seven eight nine";
name = dnom_frac_numr_ordn_sups;
},
{
code = "fraction zero.dnom one.dnom two.dnom three.dnom four.dnom five.dnom six.dnom seven.dnom eight.dnom nine.dnom zero.numr one.numr two.numr three.numr four.numr five.numr six.numr seven.numr eight.numr nine.numr";
name = frac;
},
{
code = "fraction zero.dnom one.dnom two.dnom three.dnom four.dnom five.dnom six.dnom seven.dnom eight.dnom nine.dnom";
name = frac2;
},
{
code = "zero.numr one.numr two.numr three.numr four.numr five.numr six.numr seven.numr eight.numr nine.numr";
name = frac_numr;
},
{
code = "zero one two three four five six seven eight nine";
name = frac_ordn;
},
{
code = "zero one two three four five six seven eight nine zero.tlf one.tlf two.tlf three.tlf four.tlf five.tlf six.tlf seven.tlf eight.tlf nine.tlf";
name = lnum_onum;
},
{
code = "Cacute Nacute Oacute Sacute Zacute cacute nacute oacute sacute zacute acutecomb";
name = locl;
},
{
code = "Cacute.loclPLK Nacute.loclPLK Oacute.loclPLK Sacute.loclPLK Zacute.loclPLK cacute.loclPLK nacute.loclPLK oacute.loclPLK sacute.loclPLK zacute.loclPLK acutecomb.loclPLK";
name = locl2;
},
{

glyphs = (
{
glyphname = .notdef;
layers = (
{
layerId = "D5E7FB56-198D-4A8E-BEAA-3EF32E5285DB";
shapes = (
{
closed = 1;
nodes = (
(68,0,l),
(467,0,l),
(466.727,707,l),
(68.727,707,l)
);
},
{
closed = 1;
nodes = (
(103.006,35,l),
(102.721,672,l),
(432.721,672,l),
(433.006,35,l)
);
}
);
width = 535;
},
{
layerId = "ADD2B973-A810-4856-BC17-7BF1C9DE9A02";
shapes = (
{
closed = 1;
nodes = (
(68,0,l),
(467,0,l),
(466.727,707,l),
(68.727,707,l)
);
},
{
closed = 1;
nodes = (
(103.006,35,l),
(102.721,672,l),
(432.721,672,l),
(433.006,35,l)
);
}
);
width = 535;
},
{
layerId = "696351B7-15B4-4052-A598-BDFCA23AB282";
shapes = (
{
closed = 1;
nodes = (
(68,0,l),
(467,0,l),
(466.727,707,l),
(68.727,707,l)
);
},
{
closed = 1;
nodes = (
(103.006,35,l),
(102.721,672,l),
(432.721,672,l),
(433.006,35,l)
);
}
);
width = 535;
},
{
layerId = "019F6BD1-2D34-4D79-B1CB-A728BCCF901E";
shapes = (
{
closed = 1;
nodes = (
(68,0,l),
(467,0,l),
(466.727,707,l),
(68.727,707,l)
);
},
{
closed = 1;
nodes = (
(103.006,35,l),
(102.721,672,l),
(432.721,672,l),
(433.006,35,l)
);
}
);
width = 535;
},
{
layerId = "D1347CB1-B206-4E52-85B5-29AA6A54951E";
shapes = (
{
closed = 1;
nodes = (
(68,0,l),
(467,0,l),
(466.727,707,l),
(68.727,707,l)
);
},
{
closed = 1;
nodes = (
(103.006,35,l),
(102.721,672,l),
(432.721,672,l),
(433.006,35,l)
);
}
);
width = 535;
},
{
layerId = "77B4CD6B-5B31-4FA5-B8A2-6C2FAC774875";
shapes = (
{
closed = 1;
nodes = (
(68,0,l),
(467,0,l),
(466.727,707,l),
(68.727,707,l)
);
},
{
closed = 1;
nodes = (
(103.006,35,l),
(102.721,672,l),
(432.721,672,l),
(433.006,35,l)
);
}
);
width = 535;
},
{
layerId = "9799992C-39FB-428C-A67B-0675C2B8D195";
shapes = (
{
closed = 1;
nodes = (
(68,0,l),
(467,0,l),
(466.727,707,l),
(68.727,707,l)
);
},
{
closed = 1;
nodes = (
(103.006,35,l),
(102.721,672,l),
(432.721,672,l),
(433.006,35,l)
);
}
);
width = 535;
},
{
layerId = "4C505698-BF71-4ADC-851F-163946829AF6";
shapes = (
{
closed = 1;
nodes = (
(68,0,l),
(467,0,l),
(466.727,707,l),
(68.727,707,l)
);
},
{
closed = 1;
nodes = (
(103.006,35,l),
(102.721,672,l),
(432.721,672,l),
(433.006,35,l)
);
}
);
width = 535;
}
);
},
{
glyphname = A;
layers = (
{
anchors = (
{
name = b.uni0324_2;
position = "{250, 0}";
},
{
name = m.uni0308_1;
position = "{250, 700}";
},
{
name = m.uni0328;
position = "{514, 10}";
}
);
layerId = "D5E7FB56-198D-4A8E-BEAA-3EF32E5285DB";
shapes = (
{
closed = 1;
nodes = (
(-58,0,l),
(120,0,l),
(176,115,l),
(376,115,l),
(384,0,l),
(564,0,l),
(462,700,l),
(324,700,l)
);
},
{
closed = 1;
nodes = (
(249,260,l),
(343,458,l),
(360,260,l)
);
}
);
width = 626;
},
{
anchors = (
{
name = b.uni0324_2;
position = "{242, 0}";
},
{
name = m.uni0308_1;
position = "{242, 700}";
},
{
name = m.uni0328;
position = "{475, 7}";
}
);
layerId = "ADD2B973-A810-4856-BC17-7BF1C9DE9A02";
shapes = (
{
closed = 1;
nodes = (
(-54,0,l),
(108,0,l),
(147,107,l),
(278,107,l),
(274,0,l),
(434,0,l),
(408,700,l),
(255,700,l)
);
},
{
closed = 1;
nodes = (
(203,250,l),
(291,495,l),
(280,250,l)
);
}
);
width = 500;
},
{
anchors = (
{
name = b.uni0324_2;
position = "{250, 0}";
},
{
name = m.uni0308_1;
position = "{250, 700}";
},
{
name = m.uni0328;
position = "{514, 10}";
}
);
layerId = "696351B7-15B4-4052-A598-BDFCA23AB282";
shapes = (
{
closed = 1;
nodes = (
(-56,0,l),
(82,0,l),
(151,137,l),
(389,137,l),
(404,0,l),
(543,0,l),
(437,700,l),
(329,700,l)
);
},
{
closed = 1;
nodes = (
(209,249,l),
(345,513,l),
(377,249,l)
);
}
);
width = 607;
},
{
anchors = (
{
name = b.uni0324_2;
position = "{203, 0}";
},
{
name = m.uni0308_1;
position = "{203, 700}";
},
{
name = m.uni0328;
position = "{386, 10}";
}
);
layerId = "019F6BD1-2D34-4D79-B1CB-A728BCCF901E";
shapes = (
{
closed = 1;
nodes = (
(-53,0,l),
(75,0,l),
(130,136,l),
(290,136,l),
(290,0,l),
(418,0,l),
(382,700,l),
(264,700,l)
);
},
{
closed = 1;
nodes = (
(175,248,l),
(290,532,l),
(290,248,l)
);
}
);
width = 484;
},
{
anchors = (
{
name = b.uni0324_2;
position = "{250, 0}";
},
{
name = m.uni0308_1;
position = "{250, 700}";
},
{
name = m.uni0328;
position = "{514, 10}";
}
);
layerId = "D1347CB1-B206-4E52-85B5-29AA6A54951E";
shapes = (
{
closed = 1;
nodes = (
(-54,0,l),
(24,0,l),
(116,170,l),
(410,170,l),
(434,0,l),
(512,0,l),
(400,700,l),
(338,700,l)
);
},
{
closed = 1;
nodes = (
(150,233,l),
(348,595,l),
(402,233,l)
);
}
);
width = 577;
},
{
anchors = (
{
name = b.uni0324_2;
position = "{144, 0}";
},
{
name = m.uni0308_1;
position = "{144, 700}";
},
{
name = m.uni0328;
position = "{253, 15}";
}
);
layerId = "77B4CD6B-5B31-4FA5-B8A2-6C2FAC774875";
shapes = (
{
closed = 1;
nodes = (
(-52,0,l),
(25,0,l),
(105,180,l),
(308,180,l),
(316,0,l),
(393,0,l),
(344,700,l),
(277,700,l)
);
},
{
closed = 1;
nodes = (
(133,245,l),
(288,587,l),
(305,245,l)
);
}
);
width = 461;
},
{
anchors = (
{
name = b.uni0324_2;
position = "{250, 0}";
},
{
name = m.uni0308_1;
position = "{250, 700}";
},
{
name = m.uni0328;
position = "{514, 10}";
}
);
layerId = "9799992C-39FB-428C-A67B-0675C2B8D195";
shapes = (
{
closed = 1;
nodes = (
(-52,0,l),
(-15,0,l),
(91,192,l),
(423,192,l),
(455,0,l),
(491,0,l),
(375,700,l),
(344,700,l)
);
},
{
closed = 1;
nodes = (
(110,222,l),
(350,650,l),
(418,222,l)
);
}
);
width = 557;
},
{
anchors = (
{
name = b.uni0324_2;
position = "{105, 0}";
},
{
name = m.uni0308_1;
position = "{105, 700}";
},
{
name = m.uni0328;
position = "{164, 18}";
}
);
layerId = "4C505698-BF71-4ADC-851F-163946829AF6";
shapes = (
{
closed = 1;
nodes = (
(-51,0,l),
(-9,0,l),
(88,209,l),
(319,209,l),
(332,0,l),
(376,0,l),
(318,700,l),
(286,700,l)
);
},
{
closed = 1;
nodes = (
(105,243,l),
(286,624,l),
(315,243,l)
);
}
);
width = 445;
}
);
leftKerningGroup = public.kern2.R_A2;
rightKerningGroup = public.kern1.L_A;
unicode = 65;
},
{
glyphname = AE;
layers = (
{
anchors = (
{
name = b.uni0324_2;
position = "{392, 0}";
},
{
name = m.uni0308_1;
position = "{392, 707}";
}
);
layerId = "D5E7FB56-198D-4A8E-BEAA-3EF32E5285DB";
shapes = (
{
closed = 1;
nodes = (
(-58,0,l),
(119,0,l),
(195,123,l),
(381,123,l),
(356,0,l),
(810,0,l),
(840,150,l),
(558,150,l),
(584,279,l),
(826,279,l),
(856,430,l),
(614,430,l),
(639,557,l),
(921,557,l),
(951,707,l),
(401,707,l)
);
},
{
closed = 1;
nodes = (
(289,267,l),
(468,560,l),
(410,267,l)
);
}
);
width = 895;
},
{
anchors = (
{
name = b.uni0324_2;
position = "{358, 0}";
},
{
name = m.uni0308_1;
position = "{358, 709}";
},
{
name = b.uni0324.3;
position = "{392, 0}";
},
{
name = m.uni0308.2;
position = "{392, 707}";
}
);
layerId = "ADD2B973-A810-4856-BC17-7BF1C9DE9A02";
shapes = (
{
closed = 1;
nodes = (
(-56,0,l),
(106,0,l),
(160,109,l),
(304,109,l),
(282,0,l),
(597,0,l),
(626,144,l),
(467,144,l),
(496,288,l),
(635,288,l),
(664,431,l),
(525,431,l),
(551,562,l),
(710,562,l),
(739,707,l),
(318,707,l)
);
},
{
closed = 1;
nodes = (
(238,254,l),
(394,562,l),
(332,254,l)
);
}
);
width = 673;
},
{
anchors = (
{
name = b.uni0324_2;
position = "{392, 0}";
},
{
name = m.uni0308_1;
position = "{392, 707}";
}
);
layerId = "696351B7-15B4-4052-A598-BDFCA23AB282";
shapes = (
{
closed = 1;
nodes = (
(-56,0,l),
(82,0,l),
(178,144,l),
(389,144,l),
(360,0,l),
(790,0,l),
(814,117,l),
(516,117,l),
(552,298,l),
(805,298,l),
(828,415,l),
(575,415,l),
(610,590,l),
(908,590,l),
(932,707,l),
(426,707,l)
);
},
{
closed = 1;
nodes = (
(254,256,l),
(479,593,l),
(411,256,l)
);
}
);
width = 883;
},
{
anchors = (
{
name = b.uni0324_2;
position = "{297, 0}";
},
{
name = m.uni0308_1;
position = "{297, 714}";
}
);
layerId = "019F6BD1-2D34-4D79-B1CB-A728BCCF901E";
shapes = (
{
closed = 1;
nodes = (
(-55,0,l),
(74,0,l),
(150,136,l),
(314,136,l),
(286,0,l),
(596,0,l),
(619,113,l),
(433,113,l),
(471,303,l),
(631,303,l),
(654,416,l),
(493,416,l),
(528,593,l),
(715,593,l),
(737,707,l),
(347,707,l)
);
},
{
closed = 1;
nodes = (
(213,249,l),
(405,594,l),
(336,249,l)
);
}
);
width = 678;
},
{
anchors = (
{
name = b.uni0324_2;
position = "{392, 0}";
},
{
name = m.uni0308_1;
position = "{392, 707}";
}
);
layerId = "D1347CB1-B206-4E52-85B5-29AA6A54951E";
shapes = (
{
closed = 1;
nodes = (
(-54,0,l),
(26,0,l),
(153,175,l),
(401,175,l),
(366,0,l),
(761,0,l),
(774,68,l),
(453,68,l),
(504,326,l),
(774,326,l),
(787,393,l),
(518,393,l),
(567,639,l),
(888,639,l),
(902,707,l),
(464,707,l)
);
},
{
closed = 1;
nodes = (
(200,239,l),
(494,642,l),
(414,239,l)
);
}
);
width = 864;
},
{
anchors = (
{
name = b.uni0324_2;
position = "{206, 0}";
},
{
name = m.uni0308_1;
position = "{206, 721}";
}
);
layerId = "77B4CD6B-5B31-4FA5-B8A2-6C2FAC774875";
shapes = (
{
closed = 1;
nodes = (
(-52,0,l),
(25,0,l),
(134,176,l),
(329,176,l),
(294,0,l),
(594,0,l),
(607,67,l),
(380,67,l),
(432,326,l),
(626,326,l),
(639,393,l),
(445,393,l),
(495,640,l),
(722,640,l),
(735,707,l),
(391,707,l)
);
},
{
closed = 1;
nodes = (
(174,242,l),
(422,642,l),
(342,242,l)
);
}
);
width = 686;
},
{
anchors = (
{
name = b.uni0324_2;
position = "{392, 0}";
},
{
name = m.uni0308_1;
position = "{392, 707}";
}
);
layerId = "9799992C-39FB-428C-A67B-0675C2B8D195";
shapes = (
{
closed = 1;
nodes = (
(-52,0,l),
(-12,0,l),
(136,196,l),
(409,196,l),
(370,0,l),
(741,0,l),
(748,35,l),
(411,35,l),
(473,345,l),
(753,345,l),
(760,378,l),
(479,378,l),
(538,672,l),
(875,672,l),
(882,707,l),
(489,707,l)
);
},
{
closed = 1;
nodes = (
(164,228,l),
(504,675,l),
(415,228,l)
);
}
);
width = 851;
},
{
anchors = (
{
name = b.uni0324_2;
position = "{145, 0}";
},
{
name = m.uni0308_1;
position = "{145, 726}";
}
);
layerId = "4C505698-BF71-4ADC-851F-163946829AF6";
shapes = (
{
closed = 1;
nodes = (
(-50,0,l),
(-8,0,l),
(124,203,l),
(339,203,l),
(299,0,l),
(593,0,l),
(600,36,l),
(345,36,l),
(406,341,l),
(622,341,l),
(629,378,l),
(414,378,l),
(472,671,l),
(727,671,l),
(734,707,l),
(421,707,l)
);
},
{
closed = 1;
nodes = (
(148,237,l),
(434,674,l),
(346,237,l)
);
}
);
width = 692;
}
);
unicode = 198;
},
{
glyphname = B;
layers = (
{
anchors = (
{
name = b.uni0324_2;
position = "{246, 0}";
},
{
name = m.uni0308_1;
position = "{246, 700}";
}
);
layerId = "D5E7FB56-198D-4A8E-BEAA-3EF32E5285DB";
shapes = (
{
closed = 1;
nodes = (
(-19,0,l),
(272,0,ls),
(362,0,o),
(432,32,o),
(480,95,cs),
(503,126,o),
(519,164,o),
(528,207,cs),
(535,242,o),
(535,273,o),
(526,299,c),
(516,325,o),
(500,345,o),
(477,360,c),
(527,392,o),
(567,445,o),
(578,498,cs),
(604,629,o),
(540,700,o),
(398,700,cs),
(121,700,l)
);
},
{
closed = 1;
nodes = (
(182,149,l),
(208,280,l),
(312,280,ls),
(352,280,o),
(368,256,o),
(361,219,cs),
(357,197,o),
(348,180,o),
(337,168,cs),
(325,155,o),
(308,149,o),
(286,149,cs)
);
},
{
closed = 1;
nodes = (
(238,430,l),
(263,551,l),
(357,551,ls),
(399,551,o),
(414,531,o),
(405,488,cs),
(398,451,o),
(376,430,o),
(332,430,cs)
);
}
);
width = 583;
},
{
anchors = (
{
name = b.uni0324_2;
position = "{214, 0}";
},
{
name = m.uni0308_1;
position = "{214, 700}";
},
{
name = b.uni0324.3;
position = "{246, 0}";
},
{
name = m.uni0308.2;
position = "{246, 700}";
}
);
layerId = "ADD2B973-A810-4856-BC17-7BF1C9DE9A02";
shapes = (
{
closed = 1;
nodes = (
(-30,0,l),
(161,0,ls),
(268,0,o),
(327,35,o),
(359,95,cs),
(375,124,o),
(388,163,o),
(397,210,cs),
(406,253,o),
(409,287,o),
(407,311,cs),
(405,335,o),
(390,355,o),
(366,370,c),
(418,399,o),
(444,440,o),
(457,507,cs),
(485,646,o),
(442,700,o),
(302,700,cs),
(110,700,l)
);
},
{
closed = 1;
nodes = (
(152,143,l),
(183,298,l),
(202,298,ls),
(248,298,o),
(255,278,o),
(244,221,cs),
(238,189,o),
(230,168,o),
(221,158,cs),
(212,148,o),
(195,143,o),
(171,143,cs)
);
},
{
closed = 1;
nodes = (
(211,435,l),
(235,557,l),
(255,557,ls),
(299,557,o),
(308,543,o),
(299,496,cs),
(289,448,o),
(277,435,o),
(231,435,cs)
);
}
);
width = 442;
},
{
anchors = (
{
name = b.uni0324_2;
position = "{246, 0}";
},
{
name = m.uni0308_1;
position = "{246, 700}";
}
);
layerId = "696351B7-15B4-4052-A598-BDFCA23AB282";
shapes = (
{
closed = 1;
nodes = (
(-5,0,l),
(273,0,ls),
(362,0,o),
(433,32,o),
(479,93,cs),
(502,123,o),
(518,159,o),
(526,201,cs),
(534,239,o),
(532,272,o),
(521,299,cs),
(510,326,o),
(490,347,o),
(461,360,c),
(520,388,o),
(566,444,o),
(578,505,cs),
(603,630,o),
(539,700,o),
(402,700,cs),
(134,700,l)
);
},
{
closed = 1;
nodes = (
(150,116,l),
(186,298,l),
(320,298,ls),
(382,298,o),
(407,266,o),
(396,210,cs),
(390,180,o),
(378,157,o),
(359,141,c),
(340,124,o),
(314,116,o),
(283,116,cs)
);
},
{
closed = 1;
nodes = (
(210,414,l),
(244,584,l),
(369,584,ls),
(431,584,o),
(456,556,o),
(444,497,cs),
(433,444,o),
(397,414,o),
(335,414,cs)
);
}
);
width = 591;
},
{
anchors = (
{
name = b.uni0324_2;
position = "{165, 0}";
},
{
name = m.uni0308_1;
position = "{165, 700}";
}
);
layerId = "019F6BD1-2D34-4D79-B1CB-A728BCCF901E";
shapes = (
{
closed = 1;
nodes = (
(-19,0,l),
(166,0,ls),
(263,0,o),
(322,32,o),
(356,91,cs),
(373,120,o),
(386,158,o),
(395,203,cs),
(404,248,o),
(407,284,o),
(401,310,cs),
(395,335,o),
(378,354,o),
(351,367,c),
(408,394,o),
(440,439,o),
(454,511,cs),
(481,644,o),
(438,700,o),
(306,700,cs),
(121,700,l)
);
},
{
closed = 1;
nodes = (
(125,112,l),
(165,311,l),
(215,311,ls),
(273,311,o),
(288,281,o),
(274,212,cs),
(267,175,o),
(256,149,o),
(242,134,c),
(227,119,o),
(205,112,o),
(175,112,cs)
);
},
{
closed = 1;
nodes = (
(186,419,l),
(220,588,l),
(271,588,ls),
(327,588,o),
(343,566,o),
(330,503,cs),
(318,443,o),
(293,419,o),
(237,419,cs)
);
}
);
width = 450;
},
{
anchors = (
{
name = b.uni0324_2;
position = "{246, 0}";
},
{
name = m.uni0308_1;
position = "{246, 700}";
}
);
layerId = "D1347CB1-B206-4E52-85B5-29AA6A54951E";
shapes = (
{
closed = 1;
nodes = (
(15,0,l),
(274,0,ls),
(360,0,o),
(432,31,o),
(477,89,cs),
(499,118,o),
(514,152,o),
(522,192,cs),
(530,234,o),
(528,270,o),
(514,299,c),
(499,328,o),
(474,349,o),
(438,360,c),
(509,383,o),
(562,443,o),
(576,515,cs),
(599,632,o),
(537,700,o),
(408,700,cs),
(154,700,l)
);
},
{
closed = 1;
nodes = (
(101,66,l),
(153,325,l),
(331,325,ls),
(424,325,o),
(467,280,o),
(450,197,cs),
(442,155,o),
(422,123,o),
(393,100,cs),
(363,77,o),
(325,66,o),
(279,66,cs)
);
},
{
closed = 1;
nodes = (
(166,390,l),
(215,634,l),
(388,634,ls),
(478,634,o),
(518,592,o),
(502,511,cs),
(486,432,o),
(426,390,o),
(339,390,cs)
);
}
);
width = 605;
},
{
anchors = (
{
name = b.uni0324_2;
position = "{92, 0}";
},
{
name = m.uni0308_1;
position = "{92, 700}";
}
);
layerId = "77B4CD6B-5B31-4FA5-B8A2-6C2FAC774875";
shapes = (
{
closed = 1;
nodes = (
(-3,0,l),
(174,0,ls),
(255,0,o),
(313,29,o),
(351,86,cs),
(370,115,o),
(383,150,o),
(392,193,cs),
(402,241,o),
(401,279,o),
(391,308,c),
(380,336,o),
(360,354,o),
(329,363,c),
(395,386,o),
(434,437,o),
(450,517,cs),
(475,642,o),
(434,700,o),
(313,700,cs),
(137,700,l)
);
},
{
closed = 1;
nodes = (
(83,66,l),
(136,330,l),
(234,330,ls),
(308,330,o),
(338,286,o),
(320,198,cs),
(311,153,o),
(296,119,o),
(273,98,cs),
(250,77,o),
(219,66,o),
(181,66,cs)
);
},
{
closed = 1;
nodes = (
(149,395,l),
(197,634,l),
(295,634,ls),
(369,634,o),
(393,600,o),
(376,513,cs),
(361,436,o),
(318,395,o),
(246,395,cs)
);
}
);
width = 463;
},
{
anchors = (
{
name = b.uni0324_2;
position = "{246, 0}";
},
{
name = m.uni0308_1;
position = "{246, 700}";
}
);
layerId = "9799992C-39FB-428C-A67B-0675C2B8D195";
shapes = (
{
closed = 1;
nodes = (
(28,0,l),
(275,0,ls),
(360,0,o),
(432,30,o),
(476,86,cs),
(498,114,o),
(512,147,o),
(520,186,cs),
(529,231,o),
(525,268,o),
(509,299,cs),
(493,330,o),
(465,350,o),
(423,360,c),
(502,379,o),
(560,442,o),
(576,522,cs),
(598,634,o),
(536,700,o),
(412,700,cs),
(168,700,l)
);
},
{
closed = 1;
nodes = (
(69,33,l),
(131,343,l),
(339,343,ls),
(453,343,o),
(505,289,o),
(485,188,cs),
(475,138,o),
(452,100,o),
(415,73,cs),
(378,46,o),
(332,33,o),
(276,33,cs)
);
},
{
closed = 1;
nodes = (
(137,374,l),
(196,667,l),
(401,667,ls),
(511,667,o),
(560,617,o),
(541,520,cs),
(522,425,o),
(446,374,o),
(341,374,cs)
);
}
);
width = 613;
},
{
anchors = (
{
name = b.uni0324_2;
position = "{43, 0}";
},
{
name = m.uni0308_1;
position = "{43, 700}";
}
);
layerId = "4C505698-BF71-4ADC-851F-163946829AF6";
shapes = (
{
closed = 1;
nodes = (
(8,0,l),
(179,0,ls),
(250,0,o),
(307,26,o),
(347,83,cs),
(367,111,o),
(381,145,o),
(389,186,cs),
(399,236,o),
(398,276,o),
(384,306,cs),
(370,336,o),
(346,354,o),
(313,360,c),
(385,380,o),
(430,436,o),
(447,521,cs),
(471,641,o),
(430,700,o),
(317,700,cs),
(148,700,l)
);
},
{
closed = 1;
nodes = (
(55,35,l),
(117,343,l),
(246,343,ls),
(332,343,o),
(371,289,o),
(351,189,cs),
(341,138,o),
(322,100,o),
(294,74,cs),
(266,48,o),
(229,35,o),
(185,35,cs)
);
},
{
closed = 1;
nodes = (
(124,379,l),
(181,665,l),
(311,665,ls),
(397,665,o),
(428,623,o),
(407,520,cs),
(389,431,o),
(334,379,o),
(252,379,cs)
);
}
);
width = 471;
}
);
unicode = 66;
},
{
glyphname = Becyr;
layers = (
{
layerId = "D5E7FB56-198D-4A8E-BEAA-3EF32E5285DB";
shapes = (
{
closed = 1;
nodes = (
(-19,0,l),
(248,0,ls),
(389,0,o),
(498,85,o),
(527,231,cs),
(556,374,o),
(475,455,o),
(339,455,cs),
(243,455,l),
(264,557,l),
(546,557,l),
(576,707,l),
(122,707,l)
);
},
{
closed = 1;
nodes = (
(182,150,l),
(213,303,l),
(301,303,ls),
(340,303,o),
(365,274,o),
(356,231,cs),
(346,180,o),
(314,150,o),
(271,150,cs)
);
}
);
width = 577;
},
{
layerId = "ADD2B973-A810-4856-BC17-7BF1C9DE9A02";
shapes = (
{
closed = 1;
nodes = (
(-32,0,l),
(158,0,ls),
(313,0,o),
(375,88,o),
(404,234,cs),
(433,381,o),
(409,471,o),
(252,471,cs),
(219,471,l),
(237,562,l),
(389,562,l),
(418,707,l),
(109,707,l)
);
},
{
closed = 1;
nodes = (
(154,144,l),
(190,326,l),
(220,326,ls),
(252,326,o),
(259,299,o),
(246,234,cs),
(234,173,o),
(215,144,o),
(183,144,cs)
);
}
);
width = 442;
},
{
layerId = "696351B7-15B4-4052-A598-BDFCA23AB282";
shapes = (
{
closed = 1;
nodes = (
(-5,0,l),
(254,0,ls),
(391,0,o),
(496,80,o),
(525,223,cs),
(553,363,o),
(474,439,o),
(342,439,cs),
(215,439,l),
(245,590,l),
(553,590,l),
(576,707,l),
(136,707,l)
);
},
{
closed = 1;
nodes = (
(150,117,l),
(191,321,l),
(312,321,ls),
(375,321,o),
(406,284,o),
(394,223,cs),
(380,155,o),
(337,117,o),
(271,117,cs)
);
}
);
width = 587;
},
{
layerId = "019F6BD1-2D34-4D79-B1CB-A728BCCF901E";
shapes = (
{
closed = 1;
nodes = (
(-21,0,l),
(165,0,ls),
(311,0,o),
(372,85,o),
(400,223,cs),
(427,360,o),
(399,446,o),
(254,446,cs),
(192,446,l),
(221,593,l),
(406,593,l),
(429,707,l),
(120,707,l)
);
},
{
closed = 1;
nodes = (
(125,113,l),
(169,332,l),
(228,332,ls),
(278,332,o),
(292,299,o),
(277,223,cs),
(262,147,o),
(234,113,o),
(184,113,cs)
);
}
);
width = 450;
},
{
layerId = "D1347CB1-B206-4E52-85B5-29AA6A54951E";
shapes = (
{
closed = 1;
nodes = (
(15,0,l),
(264,0,ls),
(396,0,o),
(495,72,o),
(523,211,cs),
(550,346,o),
(472,415,o),
(346,415,cs),
(171,415,l),
(216,640,l),
(563,640,l),
(576,707,l),
(156,707,l)
);
},
{
closed = 1;
nodes = (
(102,68,l),
(158,348,l),
(327,348,ls),
(425,348,o),
(468,300,o),
(450,211,cs),
(431,118,o),
(369,68,o),
(271,68,cs)
);
}
);
width = 602;
},
{
layerId = "77B4CD6B-5B31-4FA5-B8A2-6C2FAC774875";
shapes = (
{
closed = 1;
nodes = (
(-4,0,l),
(176,0,ls),
(306,0,o),
(369,82,o),
(394,206,cs),
(419,330,o),
(385,408,o),
(257,408,cs),
(151,408,l),
(197,640,l),
(432,640,l),
(445,707,l),
(137,707,l)
);
},
{
closed = 1;
nodes = (
(82,67,l),
(137,341,l),
(240,341,ls),
(314,341,o),
(341,299,o),
(322,206,cs),
(303,109,o),
(260,67,o),
(185,67,cs)
);
}
);
width = 461;
},
{
layerId = "9799992C-39FB-428C-A67B-0675C2B8D195";
shapes = (
{
closed = 1;
nodes = (
(28,0,l),
(269,0,ls),
(396,0,o),
(495,68,o),
(522,203,cs),
(548,335,o),
(471,399,o),
(349,399,cs),
(142,399,l),
(197,673,l),
(569,673,l),
(576,707,l),
(170,707,l)
);
},
{
closed = 1;
nodes = (
(70,35,l),
(136,366,l),
(338,366,ls),
(460,366,o),
(509,311,o),
(487,203,cs),
(465,92,o),
(392,35,o),
(271,35,cs)
);
}
);
width = 612;
},
{
layerId = "4C505698-BF71-4ADC-851F-163946829AF6";
shapes = (
{
closed = 1;
nodes = (
(6,0,l),
(183,0,ls),
(305,0,o),
(367,79,o),
(390,195,cs),
(413,310,o),
(378,383,o),
(259,383,cs),
(123,383,l),
(181,671,l),
(449,671,l),
(456,707,l),
(148,707,l)
);
},
{
closed = 1;
nodes = (
(54,36,l),
(116,347,l),
(248,347,ls),
(339,347,o),
(373,299,o),
(352,195,cs),
(330,83,o),
(279,36,o),
(186,36,cs)
);
}
);
width = 468;
}
);
unicode = 1041;
},
{
glyphname = C;
layers = (
{
anchors = (
{
name = b.uni0324_2;
position = "{247, 0}";
},
{
name = m.uni0308_1;
position = "{247, 700}";
}
);
layerId = "D5E7FB56-198D-4A8E-BEAA-3EF32E5285DB";
shapes = (
{
closed = 1;
nodes = (
(385,-8,o),
(503,59,o),
(535,219,c),
(536,228,l),
(369,228,l),
(367,217,ls),
(360,181,o),
(319,147,o),
(267,147,cs),
(204,147,o),
(185,187,o),
(205,286,cs),
(230,409,ls),
(251,516,o),
(283,557,o),
(346,557,cs),
(401,557,o),
(427,519,o),
(418,474,cs),
(417,469,l),
(587,469,l),
(588,475,l),
(620,635,o),
(521,708,o),
(379,708,cs),
(199,708,o),
(98,610,o),
(60,419,cs),
(32,280,ls),
(-6,89,o),
(57,-8,o),
(233,-8,cs)
);
}
);
width = 589;
},
{
anchors = (
{
name = b.uni0324_2;
position = "{220, 0}";
},
{
name = m.uni0308_1;
position = "{220, 702}";
}
);
layerId = "ADD2B973-A810-4856-BC17-7BF1C9DE9A02";
shapes = (
{
closed = 1;
nodes = (
(291,-8,o),
(382,68,o),
(408,196,cs),
(413,221,l),
(258,221,l),
(253,197,ls),
(245,157,o),
(224,135,o),
(197,135,cs),
(166,135,o),
(157,159,o),
(167,208,cs),
(222,486,ls),
(233,539,o),
(247,565,o),
(283,565,cs),
(307,565,o),
(323,544,o),
(315,504,cs),
(309,473,l),
(464,473,l),
(471,504,l),
(497,636,o),
(441,708,o),
(317,708,cs),
(192,708,o),
(96,636,o),
(72,515,cs),
(6,186,ls),
(-19,59,o),
(40,-8,o),
(162,-8,cs)
);
}
);
width = 458;
},
{
anchors = (
{
name = b.uni0324_2;
position = "{247, 0}";
},
{
name = m.uni0308_1;
position = "{247, 700}";
}
);
layerId = "696351B7-15B4-4052-A598-BDFCA23AB282";
shapes = (
{
closed = 1;
nodes = (
(380,-8,o),
(499,62,o),
(529,213,c),
(530,220,l),
(401,220,l),
(399,212,l),
(388,155,o),
(336,112,o),
(264,112,cs),
(181,112,o),
(152,163,o),
(174,275,cs),
(202,419,ls),
(226,540,o),
(274,590,o),
(357,590,cs),
(431,590,o),
(466,545,o),
(453,481,c),
(452,477,l),
(583,477,l),
(584,482,ls),
(615,636,o),
(518,708,o),
(382,708,cs),
(212,708,o),
(110,614,o),
(72,426,cs),
(41,273,ls),
(3,85,o),
(69,-8,o),
(237,-8,cs)
);
}
);
width = 594;
},
{
anchors = (
{
name = b.uni0324_2;
position = "{175, 0}";
},
{
name = m.uni0308_1;
position = "{175, 707}";
}
);
layerId = "019F6BD1-2D34-4D79-B1CB-A728BCCF901E";
shapes = (
{
closed = 1;
nodes = (
(295,-8,o),
(379,72,o),
(404,195,cs),
(408,214,l),
(287,214,l),
(283,196,ls),
(271,136,o),
(238,104,o),
(194,104,cs),
(144,105,o),
(127,138,o),
(141,206,cs),
(197,487,ls),
(212,560,o),
(240,595,o),
(292,595,cs),
(335,595,o),
(356,564,o),
(344,503,cs),
(340,482,l),
(463,482,l),
(467,504,ls),
(493,633,o),
(441,708,o),
(318,708,cs),
(196,708,o),
(105,635,o),
(79,507,cs),
(16,193,ls),
(-10,62,o),
(49,-8,o),
(168,-8,cs)
);
}
);
width = 463;
},
{
anchors = (
{
name = b.uni0324_2;
position = "{247, 0}";
},
{
name = m.uni0308_1;
position = "{247, 700}";
}
);
layerId = "D1347CB1-B206-4E52-85B5-29AA6A54951E";
shapes = (
{
closed = 1;
nodes = (
(373,-8,o),
(492,66,o),
(520,204,c),
(521,208,l),
(449,208,l),
(448,204,l),
(430,116,o),
(359,60,o),
(258,60,cs),
(143,60,o),
(100,126,o),
(126,258,cs),
(161,434,ls),
(190,578,o),
(259,640,o),
(373,640,cs),
(474,640,o),
(524,584,o),
(506,492,c),
(505,489,l),
(579,489,l),
(579,492,l),
(608,635,o),
(513,708,o),
(386,708,cs),
(232,708,o),
(126,620,o),
(89,437,cs),
(54,262,ls),
(17,79,o),
(89,-8,o),
(243,-8,cs)
);
}
);
width = 602;
},
{
anchors = (
{
name = b.uni0324_2;
position = "{108, 0}";
},
{
name = m.uni0308_1;
position = "{108, 714}";
}
);
layerId = "77B4CD6B-5B31-4FA5-B8A2-6C2FAC774875";
shapes = (
{
closed = 1;
nodes = (
(300,-8,o),
(375,79,o),
(398,194,cs),
(400,204,l),
(330,204,l),
(328,195,ls),
(310,104,o),
(260,58,o),
(190,58,cs),
(113,59,o),
(84,107,o),
(103,203,cs),
(160,488,ls),
(181,592,o),
(231,640,o),
(306,640,cs),
(377,640,o),
(408,595,o),
(389,502,c),
(388,495,l),
(460,495,l),
(462,504,ls),
(487,627,o),
(440,708,o),
(319,708,cs),
(202,708,o),
(117,634,o),
(89,495,cs),
(31,204,ls),
(4,67,o),
(62,-8,o),
(177,-8,cs)
);
}
);
width = 471;
},
{
anchors = (
{
name = b.uni0324_2;
position = "{247, 0}";
},
{
name = m.uni0308_1;
position = "{247, 700}";
}
);
layerId = "9799992C-39FB-428C-A67B-0675C2B8D195";
shapes = (
{
closed = 1;
nodes = (
(369,-8,o),
(488,69,o),
(514,198,c),
(514,200,l),
(481,200,l),
(481,199,l),
(459,90,o),
(375,25,o),
(254,25,cs),
(118,25,o),
(66,102,o),
(95,247,cs),
(134,444,ls),
(166,603,o),
(250,673,o),
(384,673,cs),
(503,673,o),
(563,610,o),
(541,499,c),
(540,497,l),
(576,497,l),
(576,499,l),
(603,635,o),
(512,708,o),
(390,708,cs),
(246,708,o),
(137,624,o),
(101,444,cs),
(63,255,ls),
(27,75,o),
(102,-8,o),
(247,-8,cs)
);
}
);
width = 607;
},
{
anchors = (
{
name = b.uni0324_2;
position = "{63, 0}";
},
{
name = m.uni0308_1;
position = "{63, 719}";
}
);
layerId = "4C505698-BF71-4ADC-851F-163946829AF6";
shapes = (
{
closed = 1;
nodes = (
(304,-8,o),
(373,83,o),
(395,193,c),
(395,197,l),
(358,197,l),
(357,194,l),
(335,83,o),
(273,27,o),
(187,27,cs),
(92,28,o),
(55,86,o),
(78,201,cs),
(135,489,ls),
(160,613,o),
(224,670,o),
(315,670,cs),
(402.435,670,o),
(440.648,617.882,o),
(420.157,507.009,c),
(419,504,l),
(459,504,l),
(459.524,506.669,l),
(482.342,625.243,o),
(438.109,708,o),
(319,708,cs),
(206,708,o),
(125,632,o),
(96,487,cs),
(40,211,ls),
(12,70,o),
(70,-8,o),
(183,-8,cs)
);
}
);
width = 477;
}
);
leftKerningGroup = public.kern2.R_C;
unicode = 67;
},
{
glyphname = Ccedilla;
layers = (
{
anchors = (
{
name = b.uni0324_2;
position = "{217, -160}";
},
{
name = m.uni0308_1;
position = "{247, 700}";
}
);
layerId = "D5E7FB56-198D-4A8E-BEAA-3EF32E5285DB";
shapes = (
{
closed = 1;
nodes = (
(116,-220,l),
(188,-220,l),
(260,-222,o),
(312,-186,o),
(323,-131,c),
(336,-75,o),
(318,-40,o),
(262,-34,c),
(276,-6,l),
(414,7,o),
(507,81,o),
(535,219,c),
(536,228,l),
(369,228,l),
(367,217,ls),
(360,181,o),
(319,147,o),
(267,147,cs),
(204,147,o),
(185,187,o),
(205,286,cs),
(230,409,ls),
(251,516,o),
(283,557,o),
(346,557,cs),
(401,557,o),
(427,519,o),
(418,474,cs),
(417,469,l),
(587,469,l),
(588,475,l),
(620,635,o),
(521,708,o),
(379,708,cs),
(199,708,o),
(98,610,o),
(60,419,cs),
(32,280,ls),
(-4,102,o),
(48,5,o),
(198,-7,c),
(177,-52,l),
(170,-85,l),
(215,-85,ls),
(232,-85,o),
(252,-93,o),
(248,-113,cs),
(244,-132,o),
(218,-133,o),
(206,-133,cs),
(133,-133,l)
);
}
);
width = 589;
},
{
anchors = (
{
name = b.uni0324_2;
position = "{188, -167}";
},
{
name = m.uni0308_1;
position = "{220, 702}";
}
);
layerId = "ADD2B973-A810-4856-BC17-7BF1C9DE9A02";
shapes = (
{
closed = 1;
nodes = (
(29,-220,l),
(102,-220,l),
(174,-222,o),
(225,-186,o),
(236,-131,c),
(249,-75,o),
(231,-40,o),
(175,-34,c),
(188,-7,l),
(308,3,o),
(385,81,o),
(408,196,cs),
(413,221,l),
(258,221,l),
(253,197,ls),
(245,157,o),
(224,135,o),
(197,135,c),
(166,136,o),
(157,159,o),
(167,208,cs),
(222,486,ls),
(233,539,o),
(247,565,o),
(283,565,cs),
(307,565,o),
(323,544,o),
(315,504,cs),
(309,473,l),
(464,473,l),
(471,504,l),
(497,636,o),
(441,708,o),
(317,708,cs),
(192,708,o),
(96,636,o),
(72,515,cs),
(6,186,ls),
(-16,77,o),
(24,12,o),
(113,-4,c),
(90,-52,l),
(83,-85,l),
(129,-85,ls),
(146,-85,o),
(165,-93,o),
(161,-113,cs),
(157,-132,o),
(131,-133,o),
(119,-133,cs),
(46,-133,l)
);
}
);
width = 458;
},
{
anchors = (
{
name = b.uni0324_2;
position = "{217, -160}";
},
{
name = m.uni0308_1;
position = "{247, 700}";
}
);
layerId = "696351B7-15B4-4052-A598-BDFCA23AB282";
shapes = (
{
closed = 1;
nodes = (
(123,-220,l),
(189,-220,l),
(256,-221,o),
(312,-190,o),
(324,-131,c),
(336,-77,o),
(316,-43,o),
(261,-37,c),
(276,-6,l),
(406,6,o),
(503,82,o),
(529,213,c),
(530,220,l),
(401,220,l),
(399,212,l),
(388,155,o),
(336,112,o),
(264,112,cs),
(181,112,o),
(152,163,o),
(174,275,cs),
(202,419,ls),
(226,540,o),
(274,590,o),
(357,590,cs),
(431,590,o),
(466,545,o),
(453,481,c),
(452,477,l),
(583,477,l),
(584,482,ls),
(615,636,o),
(518,708,o),
(382,708,cs),
(212,708,o),
(110,614,o),
(72,426,cs),
(41,273,ls),
(6,98,o),
(61,5,o),
(204,-7,c),
(182,-50,l),
(175,-85,l),
(216,-85,ls),
(237,-85,o),
(261,-93,o),
(256,-117,cs),
(252,-139,o),
(222,-143,o),
(205,-143,cs),
(138,-143,l)
);
}
);
width = 594;
},
{
anchors = (
{
name = b.uni0324_2;
position = "{139, -168}";
},
{
name = m.uni0308_1;
position = "{175, 707}";
}
);
layerId = "019F6BD1-2D34-4D79-B1CB-A728BCCF901E";
shapes = (
{
closed = 1;
nodes = (
(57,-220,l),
(123,-220,l),
(190,-221,o),
(246,-190,o),
(258,-131,c),
(270,-77,o),
(250,-43,o),
(195,-37,c),
(212,-5,l),
(321,13,o),
(384,93,o),
(404,195,cs),
(408,214,l),
(287,214,l),
(283,196,ls),
(271,136,o),
(238,104,o),
(194,104,cs),
(144,104,o),
(127,138,o),
(141,206,cs),
(197,487,ls),
(212,560,o),
(240,595,o),
(292,595,cs),
(335,595,o),
(356,564,o),
(344,503,cs),
(340,482,l),
(463,482,l),
(467,504,ls),
(493,633,o),
(441,708,o),
(318,708,cs),
(196,708,o),
(105,635,o),
(79,507,cs),
(16,193,ls),
(-8,74,o),
(39,5,o),
(138,-6,c),
(116,-50,l),
(109,-85,l),
(150,-85,ls),
(171,-85,o),
(195,-93,o),
(190,-117,cs),
(186,-139,o),
(156,-143,o),
(139,-143,cs),
(72,-143,l)
);
}
);
width = 463;
},
{
anchors = (
{
name = b.uni0324_2;
position = "{217, -160}";
},
{
name = m.uni0308_1;
position = "{247, 700}";
}
);
layerId = "D1347CB1-B206-4E52-85B5-29AA6A54951E";
shapes = (
{
closed = 1;
nodes = (
(133,-220,l),
(190,-220,ls),
(251,-220,o),
(312,-197,o),
(325,-131,cs),
(336,-78,o),
(312,-47,o),
(260,-42,c),
(277,-6,l),
(397,6,o),
(495,81,o),
(520,204,c),
(521,208,l),
(449,208,l),
(448,204,l),
(430,116,o),
(359,60,o),
(258,60,cs),
(143,60,o),
(100,126,o),
(126,258,cs),
(161,434,ls),
(190,578,o),
(259,640,o),
(373,640,cs),
(474,640,o),
(524,584,o),
(506,492,c),
(505,489,l),
(579,489,l),
(579,492,l),
(608,635,o),
(513,708,o),
(386,708,cs),
(232,708,o),
(126,620,o),
(89,437,cs),
(54,262,ls),
(20,93,o),
(78,6,o),
(209,-6,c),
(189,-48,l),
(182,-85,l),
(217,-85,ls),
(243,-85,o),
(274,-94,o),
(268,-123,cs),
(263,-150,o),
(228,-157,o),
(203,-157,cs),
(146,-157,l)
);
}
);
width = 602;
},
{
anchors = (
{
name = b.uni0324_2;
position = "{66, -170}";
},
{
name = m.uni0308_1;
position = "{108, 714}";
}
);
layerId = "77B4CD6B-5B31-4FA5-B8A2-6C2FAC774875";
shapes = (
{
closed = 1;
nodes = (
(68,-220,l),
(124,-220,ls),
(185,-220,o),
(246,-197,o),
(259,-131,cs),
(270,-78,o),
(246,-47,o),
(194,-42,c),
(212,-5,l),
(319,10,o),
(378,96,o),
(398,194,cs),
(400,204,l),
(330,204,l),
(328,195,ls),
(310,104,o),
(260,58,o),
(190,58,cs),
(113,59,o),
(84,107,o),
(103,203,cs),
(160,488,ls),
(181,592,o),
(231,640,o),
(306,640,cs),
(377,640,o),
(408,595,o),
(389,502,c),
(388,495,l),
(460,495,l),
(462,504,ls),
(487,627,o),
(440,708,o),
(319,708,cs),
(202,708,o),
(117,634,o),
(89,495,cs),
(31,204,ls),
(6,81,o),
(51,7,o),
(144,-6,c),
(124,-48,l),
(116,-85,l),
(151,-85,ls),
(177,-85,o),
(209,-94,o),
(203,-123,cs),
(198,-150,o),
(162,-157,o),
(137,-157,cs),
(80,-157,l)
);
}
);
width = 471;
},
{
anchors = (
{
name = b.uni0324_2;
position = "{217, -160}";
},
{
name = m.uni0308_1;
position = "{247, 700}";
}
);
layerId = "9799992C-39FB-428C-A67B-0675C2B8D195";
shapes = (
{
closed = 1;
nodes = (
(134,-220,l),
(180,-220,l),
(247,-221,o),
(302,-192,o),
(313,-138,cs),
(323,-90,o),
(291,-58,o),
(229,-54,c),
(252,-8,l),
(373,-7,o),
(489,72,o),
(514,198,c),
(514,200,l),
(481,200,l),
(481,199,l),
(459,90,o),
(375,25,o),
(254,25,cs),
(118,25,o),
(66,102,o),
(95,247,cs),
(134,444,ls),
(166,603,o),
(250,673,o),
(384,673,cs),
(503,673,o),
(563,610,o),
(541,499,c),
(540,497,l),
(576,497,l),
(576,499,l),
(603,635,o),
(512,708,o),
(390,708,cs),
(246,708,o),
(137,624,o),
(101,444,cs),
(63,255,ls),
(29,87,o),
(93,3,o),
(220,-7,c),
(193,-61,l),
(188,-83,l),
(207,-83,ls),
(255,-83,o),
(288,-101,o),
(281,-135,cs),
(274,-169,o),
(234,-186,o),
(186,-186,cs),
(140,-186,l)
);
}
);
width = 607;
},
{
anchors = (
{
name = b.uni0324_2;
position = "{17, -171}";
},
{
name = m.uni0308_1;
position = "{63, 719}";
}
);
layerId = "4C505698-BF71-4ADC-851F-163946829AF6";
shapes = (
{
closed = 1;
nodes = (
(78,-220,l),
(124,-220,l),
(191,-221,o),
(246,-192,o),
(257,-138,cs),
(267,-90,o),
(236,-58,o),
(174,-54,c),
(197,-8,l),
(311,-1,o),
(374,90,o),
(395,193,c),
(395,197,l),
(358,197,l),
(357,194,l),
(335,83,o),
(273,27,o),
(187,27,cs),
(92,28,o),
(55,86,o),
(78,201,cs),
(135,489,ls),
(160,613,o),
(224,670,o),
(315,670,cs),
(402.069,670,o),
(440.327,618.318,o),
(420.411,508.399,c),
(419,504,l),
(459,504,l),
(459.823,508.245,l),
(481.948,625.976,o),
(437.58,708,o),
(319,708,cs),
(206,708,o),
(125,632,o),
(96,487,cs),
(40,211,ls),
(13,78,o),
(64,1,o),
(164,-7,c),
(137,-61,l),
(133,-83,l),
(151,-83,ls),
(199,-83,o),
(232,-101,o),
(225,-135,cs),
(218,-169,o),
(179,-186,o),
(131,-186,cs),
(85,-186,l)
);
}
);
width = 477;
}
);
leftKerningGroup = public.kern2.R_C;
unicode = 199;
},
{
glyphname = Checyr;
layers = (
{
anchors = (
{
name = t.uni0308_1;
position = "{254, 707}";
}
);
layerId = "D5E7FB56-198D-4A8E-BEAA-3EF32E5285DB";
shapes = (
{
closed = 1;
nodes = (
(326,0,l),
(495,0,l),
(637,707,l),
(467,707,l),
(405,399,l),
(380,382,o),
(339,383,o),
(313,383,cs),
(254,383,o),
(238,421,o),
(249,477,cs),
(295,707,l),
(124,707,l),
(77,473,ls),
(46,316,o),
(140,232,o),
(283,232,cs),
(315,232,o),
(346,235,o),
(374,240,c)
);
}
);
width = 596;
},
{
anchors = (
{
name = t.uni0308_1;
position = "{218, 709}";
}
);
layerId = "ADD2B973-A810-4856-BC17-7BF1C9DE9A02";
shapes = (
{
closed = 1;
nodes = (
(199,0,l),
(353,0,l),
(495,707,l),
(341,707,l),
(270,353,l),
(257,353,o),
(245,349,o),
(232,349,cs),
(198,349,o),
(199,375,o),
(205,404,cs),
(265,707,l),
(109,707,l),
(49,402,ls),
(25,283,o),
(90,205,o),
(203,205,cs),
(212,205,o),
(224,206,o),
(241,207,c)
);
}
);
width = 445;
},
{
anchors = (
{
name = t.uni0308_1;
position = "{254, 707}";
}
);
layerId = "696351B7-15B4-4052-A598-BDFCA23AB282";
shapes = (
{
closed = 1;
nodes = (
(361,0,l),
(492,0,l),
(634,707,l),
(502,707,l),
(436,376,l),
(398,348,o),
(352,346,o),
(312,346,cs),
(237,346,o),
(206,399,o),
(221,473,cs),
(268,707,l),
(136,707,l),
(88,468,ls),
(57,315,o),
(147,229,o),
(288,229,cs),
(336,229,o),
(377,235,o),
(411,248,c)
);
}
);
width = 607;
},
{
anchors = (
{
name = t.uni0308_1;
position = "{166, 714}";
}
);
layerId = "019F6BD1-2D34-4D79-B1CB-A728BCCF901E";
shapes = (
{
closed = 1;
nodes = (
(233,0,l),
(355,0,l),
(497,707,l),
(374,707,l),
(300,335,l),
(281,327,o),
(252,325,o),
(233,325,cs),
(183,325,o),
(175,363,o),
(184,408,cs),
(244,707,l),
(120,707,l),
(60,405,ls),
(37,290,o),
(101,212,o),
(211,212,cs),
(234,212,o),
(255,215,o),
(277,220,c)
);
}
);
width = 456;
},
{
anchors = (
{
name = t.uni0308_1;
position = "{254, 707}";
}
);
layerId = "D1347CB1-B206-4E52-85B5-29AA6A54951E";
shapes = (
{
closed = 1;
nodes = (
(415,0,l),
(488,0,l),
(629,707,l),
(556,707,l),
(483,341,l),
(433,300,o),
(366,290,o),
(310,290,cs),
(207,290,o),
(161,365,o),
(181,467,cs),
(229,707,l),
(154,707,l),
(105,460,ls),
(76,313,o),
(161,224,o),
(297,224,cs),
(368,224,o),
(424,236,o),
(467,260,c)
);
}
);
width = 622;
},
{
anchors = (
{
name = t.uni0308_1;
position = "{88, 721}";
}
);
layerId = "77B4CD6B-5B31-4FA5-B8A2-6C2FAC774875";
shapes = (
{
closed = 1;
nodes = (
(284,0,l),
(358,0,l),
(499,707,l),
(425,707,l),
(345,308,l),
(308,288,o),
(272,289,o),
(235,289,cs),
(162,289,o),
(139,345,o),
(153,414,cs),
(211,707,l),
(137,707,l),
(77,410,ls),
(55,300,o),
(115,222,o),
(221,222,cs),
(264,222,o),
(301,228,o),
(332,240,c)
);
}
);
width = 473;
},
{
anchors = (
{
name = t.uni0308_1;
position = "{254, 707}";
}
);
layerId = "9799992C-39FB-428C-A67B-0675C2B8D195";
shapes = (
{
closed = 1;
nodes = (
(450,0,l),
(485,0,l),
(627,707,l),
(591,707,l),
(513,318,l),
(455,269,o),
(374,253,o),
(308,253,cs),
(187,253,o),
(129,343,o),
(153,463,cs),
(202,707,l),
(166,707,l),
(116,455,ls),
(87,312,o),
(168,221,o),
(302,221,cs),
(388,221,o),
(456,237,o),
(504,268,c)
);
}
);
width = 633;
},
{
anchors = (
{
name = t.uni0308_1;
position = "{36, 726}";
}
);
layerId = "4C505698-BF71-4ADC-851F-163946829AF6";
shapes = (
{
closed = 1;
nodes = (
(317,0,l),
(360,0,l),
(501,707,l),
(458,707,l),
(375,290,l),
(323,263,o),
(289,265,o),
(236,265,cs),
(147,265,o),
(115,333,o),
(132,418,cs),
(190,707,l),
(148,707,l),
(89,413,ls),
(68,307,o),
(127,229,o),
(229,229,cs),
(286,229,o),
(332,237,o),
(368,253,c)
);
}
);
width = 484;
}
);
unicode = 1063;
},
{
glyphname = D;
layers = (
{
anchors = (
{
name = b.uni0324_2;
position = "{247, 0}";
},
{
name = m.uni0308_1;
position = "{247, 700}";
}
);
layerId = "D5E7FB56-198D-4A8E-BEAA-3EF32E5285DB";
shapes = (
{
closed = 1;
nodes = (
(-19,0,l),
(223,0,ls),
(402,0,o),
(506,99,o),
(544,290,cs),
(568,412,ls),
(608,612,o),
(536,700,o),
(370,700,cs),
(121,700,l)
);
},
{
closed = 1;
nodes = (
(182,150,l),
(262,550,l),
(338,550,ls),
(402,550,o),
(417,506,o),
(396,403,cs),
(374,294,ls),
(354,195,o),
(316,150,o),
(258,150,cs)
);
}
);
width = 582;
},
{
anchors = (
{
name = b.uni0324_2;
position = "{215, 0}";
},
{
name = m.uni0308_1;
position = "{215, 700}";
}
);
layerId = "ADD2B973-A810-4856-BC17-7BF1C9DE9A02";
shapes = (
{
closed = 1;
nodes = (
(-29,0,l),
(156,0,ls),
(284,0,o),
(375,72,o),
(399,192,cs),
(462,508,ls),
(487,632,o),
(425,700,o),
(308,700,cs),
(111,700,l)
);
},
{
closed = 1;
nodes = (
(153,142,l),
(236,556,l),
(274,556,ls),
(300,556,o),
(311,531,o),
(300,476,cs),
(248,216,ls),
(239,171,o),
(218,142,o),
(191,142,cs)
);
}
);
width = 451;
},
{
anchors = (
{
name = b.uni0324_2;
position = "{247, 0}";
},
{
name = m.uni0308_1;
position = "{247, 700}";
}
);
layerId = "696351B7-15B4-4052-A598-BDFCA23AB282";
shapes = (
{
closed = 1;
nodes = (
(-5,0,l),
(235,0,ls),
(404,0,o),
(507,95,o),
(544,282,cs),
(571,419,ls),
(609,611,o),
(539,700,o),
(378,700,cs),
(134,700,l)
);
},
{
closed = 1;
nodes = (
(150,117,l),
(243,583,l),
(354,583,ls),
(436,583,o),
(463,531,o),
(439,412,cs),
(413,283,ls),
(391,171,o),
(339,117,o),
(261,117,cs)
);
}
);
width = 593;
},
{
anchors = (
{
name = b.uni0324_2;
position = "{166, 0}";
},
{
name = m.uni0308_1;
position = "{166, 700}";
}
);
layerId = "019F6BD1-2D34-4D79-B1CB-A728BCCF901E";
shapes = (
{
closed = 1;
nodes = (
(-19,0,l),
(164,0,ls),
(286,0,o),
(375,73,o),
(401,201,cs),
(461,499,ls),
(487,628,o),
(428,700,o),
(311,700,cs),
(121,700,l)
);
},
{
closed = 1;
nodes = (
(125,112,l),
(220,587,l),
(285,587,ls),
(331,587,o),
(349,550,o),
(334,477,cs),
(282,215,ls),
(269,148,o),
(237,112,o),
(191,112,cs)
);
}
);
width = 458;
},
{
anchors = (
{
name = b.uni0324_2;
position = "{247, 0}";
},
{
name = m.uni0308_1;
position = "{247, 700}";
}
);
layerId = "D1347CB1-B206-4E52-85B5-29AA6A54951E";
shapes = (
{
closed = 1;
nodes = (
(15,0,l),
(252,0,ls),
(405,0,o),
(509,90,o),
(545,270,cs),
(577,429,ls),
(613,609,o),
(545,700,o),
(392,700,cs),
(154,700,l)
);
},
{
closed = 1;
nodes = (
(103,68,l),
(215,632,l),
(379,632,ls),
(488,632,o),
(531,567,o),
(503,426,cs),
(471,266,ls),
(445,134,o),
(376,68,o),
(266,68,cs)
);
}
);
width = 611;
},
{
anchors = (
{
name = b.uni0324_2;
position = "{92, 0}";
},
{
name = m.uni0308_1;
position = "{92, 700}";
}
);
layerId = "77B4CD6B-5B31-4FA5-B8A2-6C2FAC774875";
shapes = (
{
closed = 1;
nodes = (
(-4,0,l),
(176,0,ls),
(291,0,o),
(377,75,o),
(405,214,cs),
(459,486,ls),
(486,623,o),
(433,700,o),
(316,700,cs),
(135,700,l)
);
},
{
closed = 1;
nodes = (
(82,67,l),
(195,633,l),
(302,633,ls),
(376,633,o),
(405,581,o),
(384,478,cs),
(331,213,ls),
(312,116,o),
(263,67,o),
(189,67,cs)
);
}
);
width = 470;
},
{
anchors = (
{
name = b.uni0324_2;
position = "{247, 0}";
},
{
name = m.uni0308_1;
position = "{247, 700}";
}
);
layerId = "9799992C-39FB-428C-A67B-0675C2B8D195";
shapes = (
{
closed = 1;
nodes = (
(28,0,l),
(263,0,ls),
(405,0,o),
(510,86,o),
(545,262,cs),
(580,436,ls),
(614,608,o),
(548,700,o),
(400,700,cs),
(168,700,l)
);
},
{
closed = 1;
nodes = (
(71,35,l),
(196,665,l),
(395,665,ls),
(521,665,o),
(576,592,o),
(545,435,cs),
(509,255,ls),
(480,110,o),
(399,35,o),
(269,35,cs)
);
}
);
width = 623;
},
{
anchors = (
{
name = b.uni0324_2;
position = "{43, 0}";
},
{
name = m.uni0308_1;
position = "{43, 700}";
}
);
layerId = "4C505698-BF71-4ADC-851F-163946829AF6";
shapes = (
{
closed = 1;
nodes = (
(6,0,l),
(184,0,ls),
(294,0,o),
(378,76,o),
(407,223,cs),
(458,477,ls),
(487,620,o),
(436,700,o),
(319,700,cs),
(145,700,l)
);
},
{
closed = 1;
nodes = (
(54,37,l),
(179,664,l),
(314,664,ls),
(408,664,o),
(442,600,o),
(418,479,cs),
(364,212,ls),
(340,93,o),
(279,37,o),
(188,37,cs)
);
}
);
width = 477;
}
);
unicode = 68;
},
{
glyphname = Decyr;
layers = (
{
anchors = (
{
name = b.uni0324;
position = "{292, 0}";
},
{
name = t.uni0308_1;
position = "{292, 707}";
}
);
layerId = "D5E7FB56-198D-4A8E-BEAA-3EF32E5285DB";
shapes = (
{
closed = 1;
nodes = (
(-83,-170,l),
(86,-170,l),
(120,0,l),
(481,0,l),
(447,-170,l),
(618,-170,l),
(682,150,l),
(609,150,l),
(720,707,l),
(247,707,l),
(180,469,l),
(123,362,o),
(81,245,o),
(-1,150,c),
(-19,150,l)
);
},
{
closed = 1;
nodes = (
(440,150,l),
(190,150,l),
(271,254,o),
(303,317,o),
(341,437,c),
(375,557,l),
(521,557,l)
);
}
);
width = 721;
},
{
anchors = (
{
name = b.uni0324;
position = "{295, 0}";
},
{
name = t.uni0308_1;
position = "{295, 709}";
}
);
layerId = "ADD2B973-A810-4856-BC17-7BF1C9DE9A02";
shapes = (
{
closed = 1;
nodes = (
(-85,-170,l),
(72,-170,l),
(106,0,l),
(388,0,l),
(354,-170,l),
(511,-170,l),
(574,145,l),
(501,145,l),
(614,707,l),
(242,707,l),
(183,447,ls),
(156,327,o),
(97,225,o),
(-6,145,c),
(-22,145,l)
);
},
{
closed = 1;
nodes = (
(345,145,l),
(202,145,l),
(249,219,o),
(271,301,o),
(297,380,cs),
(355,562,l),
(428,562,l)
);
}
);
width = 613;
},
{
anchors = (
{
name = b.uni0324;
position = "{292, 0}";
},
{
name = t.uni0308_1;
position = "{292, 707}";
}
);
layerId = "696351B7-15B4-4052-A598-BDFCA23AB282";
shapes = (
{
closed = 1;
nodes = (
(-84,-170,l),
(47,-170,l),
(81,0,l),
(486,0,l),
(452,-170,l),
(583,-170,l),
(641,117,l),
(567,117,l),
(685,707,l),
(248,707,l),
(194,507,ls),
(167,405,o),
(84,202,o),
(3,117,c),
(-27,117,l)
);
},
{
closed = 1;
nodes = (
(436,117,l),
(163,117,l),
(242,226,o),
(288,368,o),
(321,490,cs),
(348,590,l),
(530,590,l)
);
}
);
width = 687;
},
{
anchors = (
{
name = b.uni0324;
position = "{270, 0}";
},
{
name = t.uni0308_1;
position = "{270, 714}";
}
);
layerId = "019F6BD1-2D34-4D79-B1CB-A728BCCF901E";
shapes = (
{
closed = 1;
nodes = (
(-85,-170,l),
(39,-170,l),
(73,0,l),
(400,0,l),
(366,-170,l),
(489,-170,l),
(546,114,l),
(480,114,l),
(598,707,l),
(249,707,l),
(186,450,ls),
(156,330,o),
(100,207,o),
(3,114,c),
(-28,114,l)
);
},
{
closed = 1;
nodes = (
(356,114,l),
(159,114,l),
(221,202,o),
(252,299,o),
(281,396,cs),
(339,593,l),
(452,593,l)
);
}
);
width = 592;
},
{
anchors = (
{
name = b.uni0324;
position = "{292, 0}";
},
{
name = t.uni0308_1;
position = "{292, 707}";
}
);
layerId = "D1347CB1-B206-4E52-85B5-29AA6A54951E";
shapes = (
{
closed = 1;
nodes = (
(-85,-170,l),
(-11,-170,l),
(23,0,l),
(493,0,l),
(459,-170,l),
(533,-170,l),
(580,67,l),
(504,67,l),
(632,707,l),
(250,707,l),
(216,564,ls),
(186,437,o),
(116,169,o),
(9,67,c),
(-38,67,l)
);
},
{
closed = 1;
nodes = (
(431,67,l),
(122,67,l),
(190,189,o),
(259,438,o),
(291,570,cs),
(308,640,l),
(545,640,l)
);
}
);
width = 635;
},
{
anchors = (
{
name = b.uni0324;
position = "{232, 0}";
},
{
name = t.uni0308_1;
position = "{232, 721}";
}
);
layerId = "77B4CD6B-5B31-4FA5-B8A2-6C2FAC774875";
shapes = (
{
closed = 1;
nodes = (
(-85,-170,l),
(-11,-170,l),
(23,0,l),
(418,0,l),
(384,-170,l),
(457,-170,l),
(504,67,l),
(447,67,l),
(574,707,l),
(260,707,l),
(190,455,ls),
(152,322,o),
(104,185,o),
(17,67,c),
(-38,67,l)
);
},
{
closed = 1;
nodes = (
(373,67,l),
(96,67,l),
(176,177,o),
(223,296,o),
(256,420,cs),
(315,640,l),
(488,640,l)
);
}
);
width = 561;
},
{
anchors = (
{
name = b.uni0324;
position = "{292, 0}";
},
{
name = t.uni0308_1;
position = "{292, 707}";
}
);
layerId = "9799992C-39FB-428C-A67B-0675C2B8D195";
shapes = (
{
closed = 1;
nodes = (
(-86,-170,l),
(-50,-170,l),
(-17,0,l),
(498,0,l),
(464,-170,l),
(498,-170,l),
(539,34,l),
(463,34,l),
(597,707,l),
(251,707,l),
(230,602,l),
(194,463,o),
(133,142,o),
(13,34,c),
(-45,34,l)
);
},
{
closed = 1;
nodes = (
(427,34,l),
(95,34,l),
(172,201,o),
(231,449,o),
(272,623,c),
(282,673,l),
(555,673,l)
);
}
);
width = 601;
},
{
anchors = (
{
name = b.uni0324;
position = "{207, 0}";
},
{
name = t.uni0308_1;
position = "{207, 726}";
}
);
layerId = "4C505698-BF71-4ADC-851F-163946829AF6";
shapes = (
{
closed = 1;
nodes = (
(-85,-170,l),
(-45,-170,l),
(-11,0,l),
(429,0,l),
(395,-170,l),
(436,-170,l),
(477,36,l),
(425,36,l),
(559,707,l),
(267,707,l),
(193,458,ls),
(150,316,o),
(108,169,o),
(27,36,c),
(-44,36,l)
);
},
{
closed = 1;
nodes = (
(385,36,l),
(53,36,l),
(141,151,o),
(210,303,o),
(240,436,c),
(299,671,l),
(511,671,l)
);
}
);
width = 540;
}
);
unicode = 1044;
},
{
glyphname = Decyr.loclBGR;
layers = (
{
layerId = "D5E7FB56-198D-4A8E-BEAA-3EF32E5285DB";
shapes = (
{
closed = 1;
nodes = (
(-83,-170,l),
(86,-170,l),
(120,0,l),
(481,0,l),
(447,-170,l),
(618,-170,l),
(682,150,l),
(-19,150,l)
);
},
{
closed = 1;
nodes = (
(-8,0,l),
(170,0,l),
(395,465,l),
(434,0,l),
(614,0,l),
(514,707,l),
(375,707,l)
);
}
);
width = 721;
},
{
layerId = "ADD2B973-A810-4856-BC17-7BF1C9DE9A02";
shapes = (
{
closed = 1;
nodes = (
(-85,-170,l),
(72,-170,l),
(106,0,l),
(427,0,l),
(393,-170,l),
(550,-170,l),
(613,145,l),
(-22,145,l)
);
},
{
closed = 1;
nodes = (
(10,0,l),
(173,0,l),
(358,499,l),
(341,0,l),
(504,0,l),
(477,707,l),
(321,707,l)
);
}
);
width = 652;
},
{
layerId = "696351B7-15B4-4052-A598-BDFCA23AB282";
shapes = (
{
closed = 1;
nodes = (
(-84,-170,l),
(47,-170,l),
(81,0,l),
(486,0,l),
(452,-170,l),
(583,-170,l),
(641,117,l),
(-27,117,l)
);
},
{
closed = 1;
nodes = (
(-16,0,l),
(122,0,l),
(387,520,l),
(445,0,l),
(584,0,l),
(479,707,l),
(372,707,l)
);
}
);
width = 687;
},
{
layerId = "019F6BD1-2D34-4D79-B1CB-A728BCCF901E";
shapes = (
{
closed = 1;
nodes = (
(-85,-170,l),
(39,-170,l),
(73,0,l),
(400,0,l),
(366,-170,l),
(489,-170,l),
(546,114,l),
(-28,114,l)
);
},
{
closed = 1;
nodes = (
(-6,0,l),
(123,0,l),
(340,537,l),
(340,0,l),
(468,0,l),
(433,707,l),
(313,707,l)
);
}
);
width = 592;
},
{
layerId = "D1347CB1-B206-4E52-85B5-29AA6A54951E";
shapes = (
{
closed = 1;
nodes = (
(-85,-170,l),
(-11,-170,l),
(23,0,l),
(493,0,l),
(459,-170,l),
(533,-170,l),
(580,67,l),
(-38,67,l)
);
},
{
closed = 1;
nodes = (
(-27,0,l),
(50,0,l),
(375,602,l),
(461,0,l),
(538,0,l),
(427,707,l),
(366,707,l)
);
}
);
width = 635;
},
{
layerId = "77B4CD6B-5B31-4FA5-B8A2-6C2FAC774875";
shapes = (
{
closed = 1;
nodes = (
(-85,-170,l),
(-11,-170,l),
(23,0,l),
(359,0,l),
(325,-170,l),
(398,-170,l),
(446,67,l),
(-38,67,l)
);
},
{
closed = 1;
nodes = (
(-29,0,l),
(47,0,l),
(312,594,l),
(338,0,l),
(416,0,l),
(368,707,l),
(301,707,l)
);
}
);
width = 502;
},
{
layerId = "9799992C-39FB-428C-A67B-0675C2B8D195";
shapes = (
{
closed = 1;
nodes = (
(-86,-170,l),
(-50,-170,l),
(-17,0,l),
(498,0,l),
(464,-170,l),
(498,-170,l),
(539,34,l),
(-45,34,l)
);
},
{
closed = 1;
nodes = (
(-35,0,l),
(2,0,l),
(368,657,l),
(472,0,l),
(508,0,l),
(393,707,l),
(362,707,l)
);
}
);
width = 601;
},
{
layerId = "4C505698-BF71-4ADC-851F-163946829AF6";
shapes = (
{
closed = 1;
nodes = (
(-85,-170,l),
(-45,-170,l),
(-11,0,l),
(331,0,l),
(297,-170,l),
(338,-170,l),
(379,36,l),
(-44,36,l)
);
},
{
closed = 1;
nodes = (
(-25,0,l),
(17,0,l),
(293,632,l),
(308,0,l),
(351,0,l),
(324,707,l),
(293,707,l)
);
}
);
width = 442;
}
);
},
{
glyphname = Delta;
layers = (
{
layerId = "D5E7FB56-198D-4A8E-BEAA-3EF32E5285DB";
shapes = (
{
closed = 1;
nodes = (
(-58,0,l),
(120,0,l),
(344,465,l),
(384,0,l),
(564,0,l),
(463,707,l),
(325,707,l)
);
},
{
closed = 1;
nodes = (
(29,0,l),
(456,0,l),
(487,152,l),
(59,152,l)
);
}
);
width = 625;
},
{
layerId = "ADD2B973-A810-4856-BC17-7BF1C9DE9A02";
shapes = (
{
closed = 1;
nodes = (
(-56,0,l),
(106,0,l),
(292,499,l),
(275,0,l),
(438,0,l),
(411,707,l),
(254,707,l)
);
},
{
closed = 1;
nodes = (
(29,0,l),
(348,0,l),
(377,142,l),
(57,142,l)
);
}
);
width = 501;
},
{
layerId = "696351B7-15B4-4052-A598-BDFCA23AB282";
shapes = (
{
closed = 1;
nodes = (
(-56,0,l),
(82,0,l),
(346,520,l),
(404,0,l),
(543,0,l),
(439,707,l),
(331,707,l)
);
},
{
closed = 1;
nodes = (
(29,0,l),
(456,0,l),
(480,120,l),
(53,120,l)
);
}
);
width = 607;
},
{
layerId = "019F6BD1-2D34-4D79-B1CB-A728BCCF901E";
shapes = (
{
closed = 1;
nodes = (
(-55,0,l),
(74,0,l),
(291,537,l),
(291,0,l),
(420,0,l),
(385,707,l),
(264,707,l)
);
},
{
closed = 1;
nodes = (
(29,0,l),
(348,0,l),
(371,112,l),
(51,112,l)
);
}
);
width = 562;
},
{
layerId = "D1347CB1-B206-4E52-85B5-29AA6A54951E";
shapes = (
{
closed = 1;
nodes = (
(-54,0,l),
(24,0,l),
(349,602,l),
(434,0,l),
(512,0,l),
(401,707,l),
(340,707,l)
);
},
{
closed = 1;
nodes = (
(-11,0,l),
(456,0,l),
(470,70,l),
(3,70,l)
);
}
);
width = 578;
},
{
layerId = "77B4CD6B-5B31-4FA5-B8A2-6C2FAC774875";
shapes = (
{
closed = 1;
nodes = (
(-52,0,l),
(25,0,l),
(289,594,l),
(316,0,l),
(393,0,l),
(345,707,l),
(279,707,l)
);
},
{
closed = 1;
nodes = (
(-11,0,l),
(348,0,l),
(361,67,l),
(3,67,l)
);
}
);
width = 560;
},
{
layerId = "9799992C-39FB-428C-A67B-0675C2B8D195";
shapes = (
{
closed = 1;
nodes = (
(-52,0,l),
(-15,0,l),
(351,657,l),
(455,0,l),
(491,0,l),
(377,707,l),
(345,707,l)
);
},
{
closed = 1;
nodes = (
(-30,0,l),
(466,0,l),
(472,34,l),
(-23,34,l)
);
}
);
width = 559;
},
{
layerId = "4C505698-BF71-4ADC-851F-163946829AF6";
shapes = (
{
closed = 1;
nodes = (
(-50,0,l),
(-8,0,l),
(288,632,l),
(332,0,l),
(375,0,l),
(319,707,l),
(288,707,l)
);
},
{
closed = 1;
nodes = (
(-29,0,l),
(348,0,l),
(355,38,l),
(-22,38,l)
);
}
);
width = 559;
}
);
unicode = 916;
},
{
glyphname = Djecyr;
layers = (
{
layerId = "D5E7FB56-198D-4A8E-BEAA-3EF32E5285DB";
shapes = (
{
closed = 1;
nodes = (
(106,0,l),
(280,0,l),
(340,303,l),
(384,303,ls),
(423,303,o),
(449,274,o),
(440,231,cs),
(430,180,o),
(396,149,o),
(354,150,c),
(345,150,l),
(315,0,l),
(331,0,ls),
(472,0,o),
(580,85,o),
(609,231,cs),
(638,375,o),
(559,455,o),
(422,455,cs),
(371,455,l),
(391,557,l),
(554,557,l),
(584,707,l),
(86,707,l),
(56,557,l),
(218,557,l)
);
}
);
width = 660;
},
{
layerId = "ADD2B973-A810-4856-BC17-7BF1C9DE9A02";
shapes = (
{
closed = 1;
nodes = (
(48,0,l),
(204,0,l),
(270,326,l),
(304,326,ls),
(336,326,o),
(344,299,o),
(331,234,cs),
(318,171,o),
(299,143,o),
(267,144,c),
(264,144,l),
(235,0,l),
(243,0,ls),
(401,0,o),
(458,85,o),
(488,234,cs),
(517,381,o),
(494,471,o),
(337,471,cs),
(299,471,l),
(317,562,l),
(421,562,l),
(450,707,l),
(84,707,l),
(55,562,l),
(160,562,l)
);
}
);
width = 527;
},
{
layerId = "696351B7-15B4-4052-A598-BDFCA23AB282";
shapes = (
{
closed = 1;
nodes = (
(122,0,l),
(255,0,l),
(319,321,l),
(403,321,ls),
(466,321,o),
(497,284,o),
(485,223,cs),
(471,155,o),
(428,117,o),
(362,117,cs),
(341,117,l),
(318,0,l),
(345,0,ls),
(482,0,o),
(587,80,o),
(616,223,cs),
(644,364,o),
(565,439,o),
(433,439,cs),
(343,439,l),
(373,590,l),
(549,590,l),
(573,707,l),
(87,707,l),
(63,590,l),
(240,590,l)
);
}
);
width = 678;
},
{
layerId = "019F6BD1-2D34-4D79-B1CB-A728BCCF901E";
shapes = (
{
closed = 1;
nodes = (
(64,0,l),
(187,0,l),
(253,332,l),
(311,332,ls),
(361,332,o),
(375,299,o),
(360,223,cs),
(345,147,o),
(317,113,o),
(267,113,cs),
(251,113,l),
(229,0,l),
(248,0,ls),
(395,0,o),
(455,84,o),
(483,223,cs),
(510,360,o),
(484,446,o),
(338,446,cs),
(276,446,l),
(305,593,l),
(425,593,l),
(448,707,l),
(85,707,l),
(62,593,l),
(183,593,l)
);
}
);
width = 533;
},
{
layerId = "D1347CB1-B206-4E52-85B5-29AA6A54951E";
shapes = (
{
closed = 1;
nodes = (
(145,0,l),
(218,0,l),
(287,348,l),
(430,348,ls),
(528,348,o),
(571,300,o),
(553,211,cs),
(534,118,o),
(473,69,o),
(374,68,c),
(335,68,l),
(322,0,l),
(367,0,ls),
(499,0,o),
(598,72,o),
(626,211,cs),
(653,346,o),
(576,415,o),
(450,415,cs),
(301,415,l),
(345,639,l),
(542,639,l),
(556,707,l),
(89,707,l),
(75,639,l),
(273,639,l)
);
}
);
width = 705;
},
{
layerId = "77B4CD6B-5B31-4FA5-B8A2-6C2FAC774875";
shapes = (
{
closed = 1;
nodes = (
(89,0,l),
(160,0,l),
(228,341,l),
(321,341,ls),
(395,341,o),
(422,299,o),
(403,206,cs),
(384,110,o),
(343,68,o),
(267,67,c),
(233,67,l),
(220,0,l),
(257,0,ls),
(387,0,o),
(451,82,o),
(476,206,cs),
(501,330,o),
(467,408,o),
(339,408,cs),
(242,408,l),
(288,640,l),
(431,640,l),
(444,707,l),
(87,707,l),
(73,640,l),
(216,640,l)
);
}
);
width = 542;
},
{
layerId = "9799992C-39FB-428C-A67B-0675C2B8D195";
shapes = (
{
closed = 1;
nodes = (
(161,0,l),
(193,0,l),
(266,366,l),
(449,366,ls),
(571,366,o),
(620,311,o),
(598,203,cs),
(576,92,o),
(505,38,o),
(382,35,c),
(332,35,l),
(325,0,l),
(381,0,ls),
(508,0,o),
(607,68,o),
(634,203,cs),
(660,334,o),
(583,399,o),
(461,399,cs),
(273,399,l),
(327,672,l),
(538,672,l),
(545,707,l),
(89,707,l),
(82,672,l),
(295,672,l)
);
}
);
width = 723;
},
{
layerId = "4C505698-BF71-4ADC-851F-163946829AF6";
shapes = (
{
closed = 1;
nodes = (
(105,0,l),
(142,0,l),
(212,347,l),
(328,347,ls),
(419,347,o),
(453,299,o),
(432,195,cs),
(410,86,o),
(360,39,o),
(266,36,c),
(221,36,l),
(214,0,l),
(263,0,ls),
(383,0,o),
(447,81,o),
(470,195,cs),
(493,309,o),
(456,383,o),
(339,383,cs),
(219,383,l),
(276,671,l),
(435,671,l),
(442,707,l),
(88,707,l),
(80,671,l),
(239,671,l)
);
}
);
width = 548;
}
);
unicode = 1026;
},
{
glyphname = Dzhecyr;
layers = (
{
layerId = "D5E7FB56-198D-4A8E-BEAA-3EF32E5285DB";
shapes = (
{
closed = 1;
nodes = (
(110,-170,l),
(280,-170,l),
(314,0,l),
(477,0,l),
(618,707,l),
(448,707,l),
(336,150,l),
(181,150,l),
(293,707,l),
(122,707,l),
(-19,0,l),
(144,0,l)
);
}
);
width = 577;
},
{
layerId = "ADD2B973-A810-4856-BC17-7BF1C9DE9A02";
shapes = (
{
closed = 1;
nodes = (
(81,-170,l),
(238,-170,l),
(272,0,l),
(420,0,l),
(561,707,l),
(404,707,l),
(292,145,l),
(154,145,l),
(266,707,l),
(109,707,l),
(-32,0,l),
(115,0,l)
);
}
);
width = 508;
},
{
layerId = "696351B7-15B4-4052-A598-BDFCA23AB282";
shapes = (
{
closed = 1;
nodes = (
(131,-170,l),
(262,-170,l),
(296,0,l),
(467,0,l),
(608,707,l),
(477,707,l),
(359,117,l),
(149,117,l),
(267,707,l),
(136,707,l),
(-5,0,l),
(165,0,l)
);
}
);
width = 581;
},
{
layerId = "019F6BD1-2D34-4D79-B1CB-A728BCCF901E";
shapes = (
{
closed = 1;
nodes = (
(87,-170,l),
(211,-170,l),
(245,0,l),
(387,0,l),
(528,707,l),
(405,707,l),
(286,114,l),
(125,114,l),
(244,707,l),
(120,707,l),
(-21,0,l),
(121,0,l)
);
}
);
width = 485;
},
{
layerId = "D1347CB1-B206-4E52-85B5-29AA6A54951E";
shapes = (
{
closed = 1;
nodes = (
(163,-170,l),
(236,-170,l),
(270,0,l),
(453,0,l),
(594,707,l),
(520,707,l),
(393,67,l),
(102,67,l),
(229,707,l),
(156,707,l),
(15,0,l),
(197,0,l)
);
}
);
width = 587;
},
{
layerId = "77B4CD6B-5B31-4FA5-B8A2-6C2FAC774875";
shapes = (
{
closed = 1;
nodes = (
(96,-170,l),
(169,-170,l),
(203,0,l),
(338,0,l),
(479,707,l),
(405,707,l),
(277,67,l),
(82,67,l),
(210,707,l),
(137,707,l),
(-4,0,l),
(130,0,l)
);
}
);
width = 453;
},
{
layerId = "9799992C-39FB-428C-A67B-0675C2B8D195";
shapes = (
{
closed = 1;
nodes = (
(184,-170,l),
(219,-170,l),
(253,0,l),
(443,0,l),
(584,707,l),
(550,707,l),
(415,34,l),
(69,34,l),
(204,707,l),
(170,707,l),
(28,0,l),
(218,0,l)
);
}
);
width = 591;
},
{
layerId = "4C505698-BF71-4ADC-851F-163946829AF6";
shapes = (
{
closed = 1;
nodes = (
(102,-170,l),
(142,-170,l),
(176,0,l),
(304,0,l),
(446,707,l),
(405,707,l),
(271,36,l),
(54,36,l),
(188,707,l),
(148,707,l),
(6,0,l),
(136,0,l)
);
}
);
width = 430;
}
);
unicode = 1039;
},
{
glyphname = E;
layers = (
{
anchors = (
{
name = b.uni0324_2;
position = "{225, 0}";
},
{
name = m.uni0308_1;
position = "{225, 700}";
},
{
name = m.uni0328;
position = "{452, 10}";
}
);
layerId = "D5E7FB56-198D-4A8E-BEAA-3EF32E5285DB";
shapes = (
{
closed = 1;
nodes = (
(-19,0,l),
(467,0,l),
(497,150,l),
(182,150,l),
(208,278,l),
(480,278,l),
(510,427,l),
(238,427,l),
(262,550,l),
(577,550,l),
(607,700,l),
(121,700,l)
);
}
);
width = 557;
},
{
anchors = (
{
name = b.uni0324_2;
position = "{202, 0}";
},
{
name = m.uni0308_1;
position = "{202, 700}";
},
{
name = m.uni0328;
position = "{411, 10}";
},
{
name = b.uni0324.3;
position = "{225, 0}";
},
{
name = m.uni0308.2;
position = "{225, 700}";
},
{
name = m.uni0328.1;
position = "{452, 10}";
}
);
layerId = "ADD2B973-A810-4856-BC17-7BF1C9DE9A02";
shapes = (
{
closed = 1;
nodes = (
(-30,0,l),
(327,0,l),
(355,143,l),
(151,143,l),
(180,285,l),
(365,285,l),
(393,427,l),
(208,427,l),
(234,556,l),
(438,556,l),
(467,700,l),
(110,700,l)
);
}
);
width = 406;
},
{
anchors = (
{
name = b.uni0324_2;
position = "{225, 0}";
},
{
name = m.uni0308_1;
position = "{225, 700}";
},
{
name = m.uni0328;
position = "{452, 10}";
}
);
layerId = "696351B7-15B4-4052-A598-BDFCA23AB282";
shapes = (
{
closed = 1;
nodes = (
(-5,0,l),
(454,0,l),
(478,117,l),
(150,117,l),
(186,297,l),
(468,297,l),
(492,414,l),
(210,414,l),
(243,583,l),
(571,583,l),
(594,700,l),
(134,700,l)
);
}
);
width = 550;
},
{
anchors = (
{
name = b.uni0324_2;
position = "{153, 0}";
},
{
name = m.uni0308_1;
position = "{153, 700}";
},
{
name = m.uni0328;
position = "{322, 10}";
}
);
layerId = "019F6BD1-2D34-4D79-B1CB-A728BCCF901E";
shapes = (
{
closed = 1;
nodes = (
(-19,0,l),
(317,0,l),
(339,112,l),
(124,112,l),
(161,300,l),
(353,300,l),
(375,412,l),
(184,412,l),
(219,587,l),
(434,587,l),
(457,700,l),
(121,700,l)
);
}
);
width = 402;
},
{
anchors = (
{
name = b.uni0324_2;
position = "{225, 0}";
},
{
name = m.uni0308_1;
position = "{225, 700}";
},
{
name = m.uni0328;
position = "{452, 10}";
}
);
layerId = "D1347CB1-B206-4E52-85B5-29AA6A54951E";
shapes = (
{
closed = 1;
nodes = (
(15,0,l),
(435,0,l),
(449,68,l),
(102,68,l),
(153,326,l),
(450,326,l),
(464,394,l),
(167,394,l),
(214,632,l),
(561,632,l),
(575,700,l),
(154,700,l)
);
}
);
width = 539;
},
{
anchors = (
{
name = b.uni0324_2;
position = "{79, 0}";
},
{
name = m.uni0308_1;
position = "{79, 700}";
},
{
name = m.uni0328;
position = "{189, 10}";
}
);
layerId = "77B4CD6B-5B31-4FA5-B8A2-6C2FAC774875";
shapes = (
{
closed = 1;
nodes = (
(-3,0,l),
(302,0,l),
(315,66,l),
(82,66,l),
(133,323,l),
(334,323,l),
(347,389,l),
(147,389,l),
(196,634,l),
(429,634,l),
(442,700,l),
(137,700,l)
);
}
);
width = 396;
},
{
anchors = (
{
name = b.uni0324_2;
position = "{225, 0}";
},
{
name = m.uni0308_1;
position = "{225, 700}";
},
{
name = m.uni0328;
position = "{452, 10}";
}
);
layerId = "9799992C-39FB-428C-A67B-0675C2B8D195";
shapes = (
{
closed = 1;
nodes = (
(28,0,l),
(422,0,l),
(429,35,l),
(70,35,l),
(132,345,l),
(438,345,l),
(445,381,l),
(139,381,l),
(195,665,l),
(555,665,l),
(562,700,l),
(168,700,l)
);
}
);
width = 532;
},
{
anchors = (
{
name = b.uni0324_2;
position = "{30, 0}";
},
{
name = m.uni0308_1;
position = "{30, 700}";
},
{
name = m.uni0328;
position = "{100, 10}";
}
);
layerId = "4C505698-BF71-4ADC-851F-163946829AF6";
shapes = (
{
closed = 1;
nodes = (
(8,0,l),
(292,0,l),
(299,35,l),
(54,35,l),
(115,338,l),
(322,338,l),
(329,374,l),
(122,374,l),
(180,665,l),
(425,665,l),
(432,700,l),
(148,700,l)
);
}
);
width = 392;
}
);
unicode = 69;
},
{
glyphname = Ecedilla;
layers = (
{
anchors = (
{
name = b.uni0324_2;
position = "{195, -160}";
},
{
name = m.uni0308_1;
position = "{225, 700}";
},
{
name = m.uni0328;
position = "{452, 10}";
}
);
layerId = "D5E7FB56-198D-4A8E-BEAA-3EF32E5285DB";
shapes = (
{
closed = 1;
nodes = (
(-19,0,l),
(187,0,l),
(162,-52,l),
(155,-85,l),
(200,-85,ls),
(217,-85,o),
(237,-93,o),
(233,-113,cs),
(229,-132,o),
(203,-133,o),
(191,-133,cs),
(118,-133,l),
(101,-220,l),
(173,-220,l),
(245,-222,o),
(297,-186,o),
(308,-131,c),
(321,-75,o),
(303,-40,o),
(247,-34,c),
(263,0,l),
(467,0,l),
(497,150,l),
(182,150,l),
(208,278,l),
(480,278,l),
(510,427,l),
(238,427,l),
(262,550,l),
(577,550,l),
(607,700,l),
(121,700,l)
);
}
);
width = 557;
},
{
anchors = (
{
name = b.uni0324_2;
position = "{170, -167}";
},
{
name = m.uni0308_1;
position = "{202, 700}";
},
{
name = m.uni0328;
position = "{411, 10}";
},
{
name = b.uni0324.3;
position = "{195, -160}";
},
{
name = m.uni0308.2;
position = "{225, 700}";
},
{
name = m.uni0328.1;
position = "{452, 10}";
}
);
layerId = "ADD2B973-A810-4856-BC17-7BF1C9DE9A02";
shapes = (
{
closed = 1;
nodes = (
(-30,0,l),
(89,0,l),
(64,-52,l),
(57,-85,l),
(102,-85,ls),
(119,-85,o),
(139,-93,o),
(135,-113,cs),
(131,-132,o),
(104,-133,o),
(92,-133,cs),
(20,-133,l),
(3,-220,l),
(75,-220,l),
(147,-222,o),
(198,-186,o),
(209,-131,c),
(222,-75,o),
(204,-40,o),
(148,-34,c),
(165,0,l),
(327,0,l),
(355,143,l),
(151,143,l),
(180,285,l),
(365,285,l),
(393,427,l),
(208,427,l),
(234,556,l),
(438,556,l),
(467,700,l),
(110,700,l)
);
}
);
width = 406;
},
{
anchors = (
{
name = b.uni0324_2;
position = "{195, -160}";
},
{
name = m.uni0308_1;
position = "{225, 700}";
},
{
name = m.uni0328;
position = "{452, 10}";
}
);
layerId = "696351B7-15B4-4052-A598-BDFCA23AB282";
shapes = (
{
closed = 1;
nodes = (
(-5,0,l),
(185,0,l),
(160,-50,l),
(153,-85,l),
(194,-85,ls),
(215,-85,o),
(239,-93,o),
(234,-117,cs),
(230,-139,o),
(200,-143,o),
(183,-143,cs),
(116,-143,l),
(101,-220,l),
(167,-220,l),
(234,-221,o),
(290,-190,o),
(302,-131,c),
(314,-77,o),
(294,-43,o),
(239,-37,c),
(257,0,l),
(454,0,l),
(478,117,l),
(150,117,l),
(186,297,l),
(468,297,l),
(492,414,l),
(210,414,l),
(243,583,l),
(571,583,l),
(594,700,l),
(134,700,l)
);
}
);
width = 550;
},
{
anchors = (
{
name = b.uni0324_2;
position = "{117, -168}";
},
{
name = m.uni0308_1;
position = "{153, 700}";
},
{
name = m.uni0328;
position = "{322, 10}";
}
);
layerId = "019F6BD1-2D34-4D79-B1CB-A728BCCF901E";
shapes = (
{
closed = 1;
nodes = (
(-19,0,l),
(109,0,l),
(85,-50,l),
(78,-85,l),
(119,-85,ls),
(140,-85,o),
(163,-93,o),
(158,-117,cs),
(154,-139,o),
(124,-143,o),
(107,-143,cs),
(41,-143,l),
(25,-220,l),
(92,-220,l),
(159,-221,o),
(214,-190,o),
(226,-131,c),
(238,-77,o),
(219,-43,o),
(164,-37,c),
(182,0,l),
(317,0,l),
(339,112,l),
(124,112,l),
(161,300,l),
(353,300,l),
(375,412,l),
(184,412,l),
(219,587,l),
(434,587,l),
(457,700,l),
(121,700,l)
);
}
);
width = 402;
},
{
anchors = (
{
name = b.uni0324_2;
position = "{195, -160}";
},
{
name = m.uni0308_1;
position = "{225, 700}";
},
{
name = m.uni0328;
position = "{452, 10}";
}
);
layerId = "D1347CB1-B206-4E52-85B5-29AA6A54951E";
shapes = (
{
closed = 1;
nodes = (
(15,0,l),
(180,0,l),
(157,-48,l),
(150,-85,l),
(185,-85,ls),
(211,-85,o),
(242,-94,o),
(236,-123,cs),
(231,-150,o),
(195,-157,o),
(170,-157,cs),
(114,-157,l),
(101,-220,l),
(158,-220,ls),
(219,-220,o),
(279,-197,o),
(292,-131,cs),
(303,-78,o),
(280,-47,o),
(228,-42,c),
(248,0,l),
(435,0,l),
(449,68,l),
(102,68,l),
(153,326,l),
(450,326,l),
(464,394,l),
(167,394,l),
(214,632,l),
(561,632,l),
(575,700,l),
(154,700,l)
);
}
);
width = 539;
},
{
anchors = (
{
name = b.uni0324_2;
position = "{37, -170}";
},
{
name = m.uni0308_1;
position = "{79, 700}";
},
{
name = m.uni0328;
position = "{189, 10}";
}
);
layerId = "77B4CD6B-5B31-4FA5-B8A2-6C2FAC774875";
shapes = (
{
closed = 1;
nodes = (
(-3,0,l),
(108,0,l),
(85,-48,l),
(77,-85,l),
(113,-85,ls),
(139,-85,o),
(170,-94,o),
(164,-123,cs),
(159,-150,o),
(123,-157,o),
(98,-157,cs),
(41,-157,l),
(29,-220,l),
(86,-220,ls),
(147,-220,o),
(207,-197,o),
(220,-131,cs),
(231,-78,o),
(208,-47,o),
(156,-42,c),
(176,0,l),
(302,0,l),
(315,66,l),
(82,66,l),
(133,323,l),
(334,323,l),
(347,389,l),
(147,389,l),
(196,634,l),
(429,634,l),
(442,700,l),
(137,700,l)
);
}
);
width = 396;
},
{
anchors = (
{
name = b.uni0324_2;
position = "{195, -160}";
},
{
name = m.uni0308_1;
position = "{225, 700}";
},
{
name = m.uni0328;
position = "{452, 10}";
}
);
layerId = "9799992C-39FB-428C-A67B-0675C2B8D195";
shapes = (
{
closed = 1;
nodes = (
(28,0,l),
(184,0,l),
(153,-61,l),
(149,-83,l),
(168,-83,ls),
(216,-83,o),
(248,-101,o),
(241,-135,cs),
(234,-169,o),
(195,-186,o),
(147,-186,cs),
(101,-186,l),
(94,-220,l),
(140,-220,l),
(207,-221,o),
(262,-192,o),
(273,-138,cs),
(283,-90,o),
(252,-58,o),
(190,-54,c),
(216,0,l),
(422,0,l),
(429,35,l),
(70,35,l),
(132,345,l),
(438,345,l),
(445,381,l),
(139,381,l),
(195,665,l),
(555,665,l),
(562,700,l),
(168,700,l)
);
}
);
width = 532;
},
{
anchors = (
{
name = b.uni0324_2;
position = "{-16, -171}";
},
{
name = m.uni0308_1;
position = "{30, 700}";
},
{
name = m.uni0328;
position = "{100, 10}";
}
);
layerId = "4C505698-BF71-4ADC-851F-163946829AF6";
shapes = (
{
closed = 1;
nodes = (
(8,0,l),
(124,0,l),
(93,-61,l),
(89,-83,l),
(107,-83,ls),
(155,-83,o),
(188,-101,o),
(181,-135,cs),
(174,-169,o),
(135,-186,o),
(87,-186,cs),
(41,-186,l),
(34,-220,l),
(80,-220,l),
(147,-221,o),
(202,-192,o),
(213,-138,cs),
(223,-90,o),
(192,-58,o),
(130,-54,c),
(156,0,l),
(292,0,l),
(299,35,l),
(54,35,l),
(115,338,l),
(322,338,l),
(329,374,l),
(122,374,l),
(180,665,l),
(425,665,l),
(432,700,l),
(148,700,l)
);
}
);
width = 392;
}
);
unicode = 552;
},
{
glyphname = Efcyr;
layers = (
{
layerId = "D5E7FB56-198D-4A8E-BEAA-3EF32E5285DB";
shapes = (
{
closed = 1;
nodes = (
(224,0,l),
(394,0,l),
(405,55,l),
(570,59,o),
(674,159,o),
(711,346,cs),
(716,371,ls),
(753,558,o),
(688,654,o),
(525,658,c),
(535,707,l),
(366,707,l),
(356,658,l),
(191,654,o),
(87,554,o),
(50,367,cs),
(45,342,ls),
(8,155,o),
(72,59,o),
(235,55,c)
);
},
{
closed = 1;
nodes = (
(266,210,l),
(218,218,o),
(200,261,o),
(217,348,cs),
(219,357,ls),
(238,452,o),
(272,499,o),
(325,503,c)
);
},
{
closed = 1;
nodes = (
(494,503,l),
(544,496,o),
(560,454,o),
(542,365,cs),
(540,356,ls),
(521,263,o),
(491,217,o),
(436,210,c)
);
}
);
width = 738;
},
{
layerId = "ADD2B973-A810-4856-BC17-7BF1C9DE9A02";
shapes = (
{
closed = 1;
nodes = (
(160,0,l),
(315,0,l),
(332,85,l),
(452,90,o),
(537,168,o),
(560,281,cs),
(590,428,ls),
(614,547,o),
(556,620,o),
(440,624,c),
(456,707,l),
(302,707,l),
(285,624,l),
(163,620,o),
(77,547,o),
(53,428,cs),
(23,281,ls),
(-1,160,o),
(55,89,o),
(177,85,c)
);
},
{
closed = 1;
nodes = (
(206,229,l),
(183,237,o),
(176,261,o),
(185,305,cs),
(204,399,ls),
(214,448,o),
(232,474,o),
(256,478,c)
);
},
{
closed = 1;
nodes = (
(411,478,l),
(430,471,o),
(436,444,o),
(427,399,cs),
(408,305,ls),
(401,268,o),
(379,238,o),
(361,231,c)
);
}
);
width = 590;
},
{
layerId = "696351B7-15B4-4052-A598-BDFCA23AB282";
shapes = (
{
closed = 1;
nodes = (
(227,0,l),
(358,0,l),
(370,62,l),
(529,66,o),
(631,164,o),
(667,345,cs),
(673,377,ls),
(709,557,o),
(645,653,o),
(489,657,c),
(499,707,l),
(368,707,l),
(358,657,l),
(199,653,o),
(97,555,o),
(61,374,cs),
(55,342,ls),
(19,162,o),
(83,66,o),
(239,62,c)
);
},
{
closed = 1;
nodes = (
(263,182,l),
(194,189,o),
(166,241,o),
(187,344,cs),
(192,367,ls),
(214,476,o),
(262,533,o),
(334,537,c)
);
},
{
closed = 1;
nodes = (
(465,537,l),
(536,532,o),
(562,479,o),
(541,375,cs),
(536,352,ls),
(514,243,o),
(468,187,o),
(394,182,c)
);
}
);
width = 704;
},
{
layerId = "019F6BD1-2D34-4D79-B1CB-A728BCCF901E";
shapes = (
{
closed = 1;
nodes = (
(164,0,l),
(286,0,l),
(301,72,l),
(418,76,o),
(502,154,o),
(526,275,cs),
(558,433,ls),
(583,558,o),
(529,633,o),
(413,637,c),
(427,707,l),
(305,707,l),
(291,637,l),
(172,633,o),
(87,558,o),
(62,433,cs),
(30,275,ls),
(5,150,o),
(60,76,o),
(178,72,c)
);
},
{
closed = 1;
nodes = (
(201,185,l),
(159,192,o),
(144,225,o),
(157,289,cs),
(181,413,ls),
(195,482,o),
(224,518,o),
(268,522,c)
);
},
{
closed = 1;
nodes = (
(390,522,l),
(429,517,o),
(443,480,o),
(430,413,cs),
(406,289,ls),
(394,230,o),
(362,191,o),
(323,186,c)
);
}
);
width = 566;
},
{
layerId = "D1347CB1-B206-4E52-85B5-29AA6A54951E";
shapes = (
{
closed = 1;
nodes = (
(230,0,l),
(304,0,l),
(318,72,l),
(468,76,o),
(567,171,o),
(601,343,cs),
(609,386,ls),
(643,557,o),
(582,652,o),
(435,656,c),
(445,707,l),
(371,707,l),
(361,656,l),
(211,652,o),
(113,557,o),
(79,385,cs),
(70,342,ls),
(36,173,o),
(98,76,o),
(245,72,c)
);
},
{
closed = 1;
nodes = (
(258,140,l),
(157,144,o),
(117,211,o),
(142,338,cs),
(151,382,ls),
(177,514,o),
(245,584,o),
(348,588,c)
);
},
{
closed = 1;
nodes = (
(421,588,l),
(523,584,o),
(562,517,o),
(537,390,cs),
(529,346,ls),
(502,213,o),
(436,144,o),
(332,140,c)
);
}
);
width = 653;
},
{
layerId = "77B4CD6B-5B31-4FA5-B8A2-6C2FAC774875";
shapes = (
{
closed = 1;
nodes = (
(169,0,l),
(242,0,l),
(252,52,l),
(366,55,o),
(449,133,o),
(476,266,cs),
(510,441,ls),
(537,576,o),
(489,653,o),
(373,656,c),
(383,707,l),
(310,707,l),
(300,656,l),
(185,652,o),
(103,576,o),
(76,441,cs),
(41,266,ls),
(15,134,o),
(66,56,o),
(179,52,c)
);
},
{
closed = 1;
nodes = (
(192,119,l),
(122,123,o),
(96,172,o),
(115,265,cs),
(148,434,ls),
(168,534,o),
(214,584,o),
(286,588,c)
);
},
{
closed = 1;
nodes = (
(360,588,l),
(430,585,o),
(456,533,o),
(436,434,cs),
(402,265,ls),
(384,174,o),
(336,122,o),
(266,119,c)
);
}
);
width = 530;
},
{
layerId = "9799992C-39FB-428C-A67B-0675C2B8D195";
shapes = (
{
closed = 1;
nodes = (
(232,0,l),
(268,0,l),
(283,79,l),
(426,83,o),
(524,175,o),
(557,342,cs),
(566,392,ls),
(599,556,o),
(539,651,o),
(399,655,c),
(409,707,l),
(374,707,l),
(363,655,l),
(220,651,o),
(123,559,o),
(90,392,cs),
(80,342,ls),
(47,179,o),
(108,83,o),
(248,79,c)
);
},
{
closed = 1;
nodes = (
(255,112,l),
(133,115,o),
(83,191,o),
(112,334,cs),
(124,392,ls),
(153,539,o),
(235,618,o),
(357,622,c)
);
},
{
closed = 1;
nodes = (
(392,622,l),
(516,619,o),
(564,541,o),
(536,400,cs),
(524,342,ls),
(494,193,o),
(413,115,o),
(290,112,c)
);
}
);
width = 619;
},
{
layerId = "4C505698-BF71-4ADC-851F-163946829AF6";
shapes = (
{
closed = 1;
nodes = (
(172,0,l),
(213,0,l),
(221,39,l),
(332,40,o),
(413,119,o),
(441,260,cs),
(479,446,ls),
(507,587,o),
(463,666,o),
(347,669,c),
(354,707,l),
(313,707,l),
(306,669,l),
(193,665,o),
(114,587,o),
(86,446,cs),
(48,260,ls),
(21,124,o),
(71,43,o),
(180,39,c)
);
},
{
closed = 1;
nodes = (
(187,75,l),
(98,78,o),
(63,136,o),
(86,249,cs),
(126,448,ls),
(150,568,o),
(206,628,o),
(298,632,c)
);
},
{
closed = 1;
nodes = (
(339,632,l),
(429,631,o),
(463,568,o),
(439,448,cs),
(399,249,ls),
(377,137,o),
(318,75,o),
(228,74,c)
);
}
);
width = 506;
}
);
unicode = 1060;
},
{
glyphname = Elcyr;
layers = (
{
anchors = (
{
name = b.uni0324;
position = "{249, 0}";
}
);
layerId = "D5E7FB56-198D-4A8E-BEAA-3EF32E5285DB";
shapes = (
{
closed = 1;
nodes = (
(-42,-8,l),
(119,-8,o),
(197,99,o),
(236,250,cs),
(316,557,l),
(473,557,l),
(362,0,l),
(531,0,l),
(673,707,l),
(187,707,l),
(78,287,ls),
(66,244,o),
(49,150,o),
(-10,150,c)
);
}
);
width = 633;
},
{
anchors = (
{
name = b.uni0324;
position = "{240, 0}";
}
);
layerId = "ADD2B973-A810-4856-BC17-7BF1C9DE9A02";
shapes = (
{
closed = 1;
nodes = (
(-42,0,l),
(90,0,o),
(170,64,o),
(210,197,cs),
(327,562,l),
(367,562,l),
(255,0,l),
(412,0,l),
(553,707,l),
(214,707,l),
(101,334,ls),
(84,282,o),
(63,145,o),
(-11,145,c)
);
}
);
width = 501;
},
{
anchors = (
{
name = b.uni0324;
position = "{249, 0}";
}
);
layerId = "696351B7-15B4-4052-A598-BDFCA23AB282";
shapes = (
{
closed = 1;
nodes = (
(-42,-8,l),
(98,-8,o),
(160,103,o),
(193,227,cs),
(290,590,l),
(472,590,l),
(354,0,l),
(485,0,l),
(627,707,l),
(190,707,l),
(70,262,ls),
(59,224,o),
(37,117,o),
(-18,117,c)
);
}
);
width = 599;
},
{
anchors = (
{
name = b.uni0324;
position = "{223, 0}";
}
);
layerId = "019F6BD1-2D34-4D79-B1CB-A728BCCF901E";
shapes = (
{
closed = 1;
nodes = (
(-42,0,l),
(80,0,o),
(148,62,o),
(183,183,cs),
(304,593,l),
(397,593,l),
(279,0,l),
(402,0,l),
(543,707,l),
(214,707,l),
(85,263,ls),
(70,213,o),
(50,114,o),
(-18,114,c)
);
}
);
width = 502;
},
{
anchors = (
{
name = b.uni0324;
position = "{249, 0}";
}
);
layerId = "D1347CB1-B206-4E52-85B5-29AA6A54951E";
shapes = (
{
closed = 1;
nodes = (
(-43,-8,l),
(61,-8,o),
(104,108,o),
(127,192,cs),
(250,640,l),
(470,640,l),
(342,0,l),
(416,0,l),
(557,707,l),
(195,707,l),
(59,225,ls),
(49,192,o),
(20,67,o),
(-28,67,c)
);
}
);
width = 550;
},
{
anchors = (
{
name = b.uni0324;
position = "{198, 0}";
}
);
layerId = "77B4CD6B-5B31-4FA5-B8A2-6C2FAC774875";
shapes = (
{
closed = 1;
nodes = (
(-42,0,l),
(67,0,o),
(112,58,o),
(141,162,cs),
(269,640,l),
(442,640,l),
(314,0,l),
(387,0,l),
(529,707,l),
(214,707,l),
(61,157,ls),
(49,111,o),
(23,67,o),
(-28,67,c)
);
}
);
width = 503;
},
{
anchors = (
{
name = b.uni0324;
position = "{249, 0}";
}
);
layerId = "9799992C-39FB-428C-A67B-0675C2B8D195";
shapes = (
{
closed = 1;
nodes = (
(-44,-8,l),
(32,-8,o),
(67,114,o),
(83,169,cs),
(223,673,l),
(469,673,l),
(335,0,l),
(370,0,l),
(511,707,l),
(198,707,l),
(51,200,ls),
(43,170,o),
(9,34,o),
(-36,34,c)
);
}
);
width = 517;
},
{
anchors = (
{
name = b.uni0324;
position = "{181, 0}";
}
);
layerId = "4C505698-BF71-4ADC-851F-163946829AF6";
shapes = (
{
closed = 1;
nodes = (
(-42,0,l),
(55,0,o),
(91,58,o),
(114,148,cs),
(246,671,l),
(472,671,l),
(338,0,l),
(378,0,l),
(519,707,l),
(214,707,l),
(45,86,l),
(44,54,o),
(-12,36,o),
(-36,36,c)
);
}
);
width = 505;
}
);
unicode = 1051;
},
{
glyphname = Elcyr.loclBGR;
layers = (
{
layerId = "D5E7FB56-198D-4A8E-BEAA-3EF32E5285DB";
shapes = (
{
closed = 1;
nodes = (
(-58,0,l),
(120,0,l),
(344,465,l),
(384,0,l),
(564,0,l),
(463,707,l),
(325,707,l)
);
}
);
width = 625;
},
{
layerId = "ADD2B973-A810-4856-BC17-7BF1C9DE9A02";
shapes = (
{
closed = 1;
nodes = (
(-56,0,l),
(106,0,l),
(292,499,l),
(275,0,l),
(438,0,l),
(411,707,l),
(254,707,l)
);
}
);
width = 501;
},
{
layerId = "696351B7-15B4-4052-A598-BDFCA23AB282";
shapes = (
{
closed = 1;
nodes = (
(-56,0,l),
(82,0,l),
(346,520,l),
(404,0,l),
(543,0,l),
(439,707,l),
(331,707,l)
);
}
);
width = 607;
},
{
layerId = "019F6BD1-2D34-4D79-B1CB-A728BCCF901E";
shapes = (
{
closed = 1;
nodes = (
(-55,0,l),
(74,0,l),
(291,537,l),
(291,0,l),
(420,0,l),
(385,707,l),
(264,707,l)
);
}
);
width = 485;
},
{
layerId = "D1347CB1-B206-4E52-85B5-29AA6A54951E";
shapes = (
{
closed = 1;
nodes = (
(-54,0,l),
(24,0,l),
(349,602,l),
(434,0,l),
(512,0,l),
(401,707,l),
(340,707,l)
);
}
);
width = 578;
},
{
layerId = "77B4CD6B-5B31-4FA5-B8A2-6C2FAC774875";
shapes = (
{
closed = 1;
nodes = (
(-52,0,l),
(25,0,l),
(289,594,l),
(316,0,l),
(393,0,l),
(345,707,l),
(279,707,l)
);
}
);
width = 461;
},
{
layerId = "9799992C-39FB-428C-A67B-0675C2B8D195";
shapes = (
{
closed = 1;
nodes = (
(-52,0,l),
(-15,0,l),
(351,657,l),
(455,0,l),
(491,0,l),
(377,707,l),
(345,707,l)
);
}
);
width = 559;
},
{
layerId = "4C505698-BF71-4ADC-851F-163946829AF6";
shapes = (
{
closed = 1;
nodes = (
(-50,0,l),
(-8,0,l),
(288,632,l),
(332,0,l),
(375,0,l),
(319,707,l),
(288,707,l)
);
}
);
width = 445;
}
);
},
{
glyphname = Eng;
layers = (
{
anchors = (
{
name = b.uni0324_2;
position = "{265, -248}";
},
{
name = m.uni0308_1;
position = "{265, 707}";
}
);
layerId = "D5E7FB56-198D-4A8E-BEAA-3EF32E5285DB";
shapes = (
{
closed = 1;
nodes = (
(231,-173,l),
(293,-173,ls),
(417,-173,o),
(485,-120,o),
(514,25,cs),
(650,707,l),
(480,707,l),
(408,347,l),
(294,707,l),
(122,707,l),
(-19,0,l),
(152,0,l),
(224,356,l),
(339,0,l),
(346,39,l),
(337,-4,o),
(321,-32,o),
(277,-32,cs),
(259,-32,l)
);
}
);
width = 611;
},
{
anchors = (
{
name = b.uni0324_2;
position = "{224, -264}";
},
{
name = m.uni0308_1;
position = "{224, 709}";
}
);
layerId = "ADD2B973-A810-4856-BC17-7BF1C9DE9A02";
shapes = (
{
closed = 1;
nodes = (
(124,-175,l),
(122,-175,l),
(260,-175,o),
(342,-115,o),
(367,12,cs),
(505,707,l),
(349,707,l),
(290,413,l),
(266,707,l),
(109,707,l),
(-32,0,l),
(125,0,l),
(178,266,l),
(207,0,l),
(207,-1,l),
(200,-36,o),
(177,-39,o),
(150,-39,c),
(152,-39,l)
);
}
);
width = 452;
},
{
anchors = (
{
name = b.uni0324_2;
position = "{265, -248}";
},
{
name = m.uni0308_1;
position = "{265, 707}";
}
);
layerId = "696351B7-15B4-4052-A598-BDFCA23AB282";
shapes = (
{
closed = 1;
nodes = (
(263,-173,l),
(320,-173,ls),
(427,-173,o),
(488,-123,o),
(513,0,cs),
(654,707,l),
(523,707,l),
(434,264,l),
(268,707,l),
(136,707,l),
(-5,0,l),
(127,0,l),
(215,441,l),
(382,0,l),
(382,-1,l),
(374,-41,o),
(361,-63,o),
(320,-63,cs),
(285,-63,l)
);
}
);
width = 627;
},
{
anchors = (
{
name = b.uni0324_2;
position = "{169, -296}";
},
{
name = m.uni0308_1;
position = "{169, 714}";
}
);
layerId = "019F6BD1-2D34-4D79-B1CB-A728BCCF901E";
shapes = (
{
closed = 1;
nodes = (
(150,-174,l),
(156,-174,ls),
(275,-174,o),
(347,-118,o),
(369,-6,cs),
(511,707,l),
(388,707,l),
(309,313,l),
(244,707,l),
(120,707,l),
(-21,0,l),
(103,0,l),
(178,377,l),
(247,0,l),
(246,-1,l),
(236,-49,o),
(222,-68,o),
(176,-68,cs),
(171,-68,l)
);
}
);
width = 469;
},
{
anchors = (
{
name = b.uni0324_2;
position = "{265, -248}";
},
{
name = m.uni0308_1;
position = "{265, 707}";
}
);
layerId = "D1347CB1-B206-4E52-85B5-29AA6A54951E";
shapes = (
{
closed = 1;
nodes = (
(311,-173,l),
(359,-173,ls),
(441,-173,o),
(494,-126,o),
(512,-37,cs),
(661,707,l),
(587,707,l),
(474,139,l),
(229,707,l),
(156,707,l),
(15,0,l),
(88,0,l),
(202,569,l),
(446,0,l),
(434,-61,ls),
(427,-97,o),
(421,-110,o),
(385,-110,cs),
(324,-110,l)
);
}
);
width = 653;
},
{
anchors = (
{
name = b.uni0324_2;
position = "{87, -344}";
},
{
name = m.uni0308_1;
position = "{87, 721}";
}
);
layerId = "77B4CD6B-5B31-4FA5-B8A2-6C2FAC774875";
shapes = (
{
closed = 1;
nodes = (
(189,-173,l),
(206,-173,ls),
(296,-173,o),
(355,-122,o),
(373,-33,cs),
(521,707,l),
(447,707,l),
(339,163,l),
(210,707,l),
(137,707,l),
(-4,0,l),
(69,0,l),
(178,543,l),
(306,0,l),
(306,-1,l),
(294,-60,o),
(284,-111,o),
(216,-111,cs),
(202,-111,l)
);
}
);
width = 495;
},
{
anchors = (
{
name = b.uni0324_2;
position = "{265, -248}";
},
{
name = m.uni0308_1;
position = "{265, 707}";
}
);
layerId = "9799992C-39FB-428C-A67B-0675C2B8D195";
shapes = (
{
closed = 1;
nodes = (
(344,-173,l),
(386,-173,ls),
(452,-173,o),
(498,-129,o),
(511,-62,cs),
(664,707,l),
(630,707,l),
(500,56,l),
(204,707,l),
(170,707,l),
(28,0,l),
(63,0,l),
(193,654,l),
(489,0,l),
(477,-59,ls),
(468,-106,o),
(435,-141,o),
(392,-141,cs),
(350,-141,l)
);
}
);
width = 669;
},
{
anchors = (
{
name = b.uni0324_2;
position = "{32, -376}";
},
{
name = m.uni0308_1;
position = "{32, 726}";
}
);
layerId = "4C505698-BF71-4ADC-851F-163946829AF6";
shapes = (
{
closed = 1;
nodes = (
(215,-172,l),
(240,-172,ls),
(311,-172,o),
(360,-126,o),
(375,-51,cs),
(527,707,l),
(487,707,l),
(364,93,l),
(188,707,l),
(148,707,l),
(6,0,l),
(47,0,l),
(171,624,l),
(346,0,l),
(335,-51,ls),
(322,-118,o),
(289,-140,o),
(243,-140,cs),
(221,-140,l)
);
}
);
width = 512;
}
);
unicode = 330;
},
{
glyphname = Ereversedcyr;
layers = (
{
anchors = (
{
name = t.uni0308_1;
position = "{247, 707}";
}
);
layerId = "D5E7FB56-198D-4A8E-BEAA-3EF32E5285DB";
shapes = (
{
closed = 1;
nodes = (
(412,-8,o),
(514,89,o),
(552,280,cs),
(581,428,ls),
(618,611,o),
(566,718,o),
(378,718,cs),
(220,718,o),
(105,629,o),
(73,470,cs),
(71,460,l),
(241,460,l),
(242,468,l),
(254,529,o),
(294,566,o),
(349,566,cs),
(414.696,566,o),
(427.189,539.865,o),
(410.827,440.703,c),
(409,430,l),
(222,430,l),
(191,278,l),
(379,278,l),
(376.879,267.861,l),
(356.746,175.891,o),
(324.785,147,o),
(263,147,cs),
(207,147,o),
(185,182,o),
(196,238,cs),
(198,249,l),
(31,249,l),
(29,240,ls),
(-4,73,o),
(77,-8,o),
(236,-8,cs)
);
}
);
width = 591;
},
{
anchors = (
{
name = t.uni0308_1;
position = "{221, 709}";
}
);
layerId = "ADD2B973-A810-4856-BC17-7BF1C9DE9A02";
shapes = (
{
closed = 1;
nodes = (
(298,-8,o),
(384,59,o),
(410,188,cs),
(476,521,ls),
(502,651,o),
(429,718,o),
(307,718,cs),
(176,718,o),
(94,636,o),
(69,510,cs),
(63,479,l),
(220,479,l),
(226,510,ls),
(234,551,o),
(257,573,o),
(283,573,cs),
(318,573,o),
(325,547,o),
(314,492,cs),
(301,431,l),
(206,431,l),
(178,287,l),
(273,287,l),
(258,212,ls),
(248,161,o),
(226,136,o),
(195,136,cs),
(169,136,o),
(156,161,o),
(164,200,cs),
(169,224,l),
(12,224,l),
(7,199,ls),
(-19,67,o),
(46,-8,o),
(173,-8,cs)
);
}
);
width = 458;
},
{
anchors = (
{
name = t.uni0308_1;
position = "{247, 707}";
}
);
layerId = "696351B7-15B4-4052-A598-BDFCA23AB282";
shapes = (
{
closed = 1;
nodes = (
(402,-8,o),
(504,85,o),
(542,273,cs),
(574,435,ls),
(609,612,o),
(558,717,o),
(377,717,cs),
(229,717,o),
(112,633,o),
(82,482,c),
(80,475,l),
(212,475,l),
(213,481,l),
(228,554,o),
(280,599,o),
(354,599,cs),
(440,599,o),
(465,551,o),
(440,428,c),
(438,416,l),
(237,416,l),
(214,298,l),
(415,298,l),
(410,275,ls),
(387,162,o),
(340,112,o),
(255,112,cs),
(181,112,o),
(148,155,o),
(162,226,c),
(164,234,l),
(34,234,l),
(33,227,l),
(2,70,o),
(87,-8,o),
(234,-8,cs)
);
}
);
width = 593;
},
{
anchors = (
{
name = t.uni0308_1;
position = "{178, 714}";
}
);
layerId = "019F6BD1-2D34-4D79-B1CB-A728BCCF901E";
shapes = (
{
closed = 1;
nodes = (
(295,-8,o),
(381,63,o),
(407,195,cs),
(471,513,ls),
(497,642,o),
(437,717,o),
(311,717,cs),
(181,717,o),
(102,634,o),
(77,510,cs),
(73,488,l),
(196,488,l),
(201,509,l),
(214,572,o),
(247,603,o),
(291,603,cs),
(343,603,o),
(359,568,o),
(344,493,cs),
(328,416,l),
(190,416,l),
(167,303,l),
(306,303,l),
(287,209,ls),
(273,140,o),
(241,106,o),
(191,105,cs),
(147,105,o),
(127,139,o),
(139,199,c),
(142,217,l),
(20,217,l),
(16,198,ls),
(-9,72,o),
(48,-8,o),
(173,-8,cs)
);
}
);
width = 463;
},
{
anchors = (
{
name = t.uni0308_1;
position = "{247, 707}";
}
);
layerId = "D1347CB1-B206-4E52-85B5-29AA6A54951E";
shapes = (
{
closed = 1;
nodes = (
(384,-8,o),
(490,79,o),
(527,262,cs),
(564,445,ls),
(597,610,o),
(545,716,o),
(375,716,cs),
(244,716,o),
(123,638,o),
(95,500,c),
(95,497,l),
(168,497,l),
(169,500,l),
(187,592,o),
(262,648,o),
(361,648,cs),
(476,648,o),
(520,586,o),
(491,442,cs),
(481,395,l),
(261,395,l),
(247,328,l),
(468,328,l),
(454,258,ls),
(428,126,o),
(358,60,o),
(243,60,cs),
(144,60,o),
(93,116,o),
(111,208,c),
(111,212,l),
(40,212,l),
(39,208,l),
(11,66,o),
(99,-8,o),
(230,-8,cs)
);
}
);
width = 595;
},
{
anchors = (
{
name = t.uni0308_1;
position = "{114, 721}";
}
);
layerId = "77B4CD6B-5B31-4FA5-B8A2-6C2FAC774875";
shapes = (
{
closed = 1;
nodes = (
(289,-8,o),
(378,69,o),
(405,206,cs),
(464,501,ls),
(489,627,o),
(449,716,o),
(318,716,cs),
(192,716,o),
(114,629,o),
(90,510,cs),
(88,501,l),
(162,501,l),
(163,508,l),
(182,603,o),
(231,648,o),
(303,648,cs),
(381,648,o),
(410,599,o),
(389,494,cs),
(369,393,l),
(166,393,l),
(153,327,l),
(355,327,l),
(331,205,ls),
(312,108,o),
(263,60,o),
(185,59,cs),
(114,59,o),
(83,105,o),
(101,197,cs),
(103,206,l),
(31,206,l),
(29,196,ls),
(5,77,o),
(50,-8,o),
(172,-8,cs)
);
}
);
width = 471;
},
{
anchors = (
{
name = t.uni0308_1;
position = "{247, 707}";
}
);
layerId = "9799992C-39FB-428C-A67B-0675C2B8D195";
shapes = (
{
closed = 1;
nodes = (
(373,-8,o),
(481,75,o),
(517,255,cs),
(557,452,ls),
(589,611,o),
(537,715,o),
(373,715,cs),
(254.141,715,o),
(134.316,644.56,o),
(105.47,518.846,c),
(104,512,l),
(139,512,l),
(140.142,517.327,l),
(163.033,618.215,o),
(250.028,681,o),
(366,681,cs),
(499,681,o),
(556,610,o),
(524,451,cs),
(510,381,l),
(276,381,l),
(269,348,l),
(504,348,l),
(483,247,ls),
(454,102,o),
(370,25,o),
(234,25,cs),
(117,25,o),
(55,89,o),
(76,196,c),
(77,197,l),
(43,197,l),
(43,195,l),
(17,63,o),
(107,-8,o),
(228,-8,cs)
);
}
);
width = 597;
},
{
anchors = (
{
name = t.uni0308_1;
position = "{71, 726}";
}
);
layerId = "4C505698-BF71-4ADC-851F-163946829AF6";
shapes = (
{
closed = 1;
nodes = (
(284,-8,o),
(375,73,o),
(403,213,cs),
(459,493,ls),
(484,616,o),
(456,715,o),
(322,715,cs),
(199.211,715,o),
(123.704,630.086,o),
(99.27,516.182,c),
(98,510,l),
(139,510,l),
(140.218,515.924,l),
(164.037,627.772,o),
(222.547,678,o),
(311,678,cs),
(406,678,o),
(444,620,o),
(419,495,cs),
(395,378,l),
(149,378,l),
(142,343,l),
(388,343,l),
(360,202,ls),
(337,86,o),
(276,29,o),
(181,28,cs),
(92,28,o),
(53,83,o),
(76,196,c),
(76,199,l),
(39,199,l),
(38,195,l),
(15,82,o),
(51,-8,o),
(171,-8,cs)
);
}
);
width = 477;
}
);
unicode = 1069;
},
{
glyphname = Eukrcyr;
layers = (
{
anchors = (
{
name = t.uni0308_1;
position = "{246, 707}";
}
);
layerId = "D5E7FB56-198D-4A8E-BEAA-3EF32E5285DB";
shapes = (
{
closed = 1;
nodes = (
(393,-8,o),
(505,72,o),
(539,240,cs),
(541,249,l),
(373,249,l),
(372,245,l),
(360,183,o),
(333,147,o),
(267,147,cs),
(187,147,o),
(192,219,o),
(205,286,c),
(203,278,l),
(392,278,l),
(422,430,l),
(234,430,l),
(232,419,l),
(245,484,o),
(267,566,o),
(348,566,cs),
(407,566,o),
(429,527,o),
(417,468,c),
(415,460,l),
(585,460,l),
(586,467,l),
(620,639,o),
(538,718,o),
(381,718,cs),
(201,718,o),
(100,617,o),
(62,428,cs),
(32,280,ls),
(-6,91,o),
(53,-8,o),
(233,-8,cs)
);
}
);
width = 590;
},
{
anchors = (
{
name = t.uni0308_1;
position = "{220, 709}";
}
);
layerId = "ADD2B973-A810-4856-BC17-7BF1C9DE9A02";
shapes = (
{
closed = 1;
nodes = (
(291,-8,o),
(384,66,o),
(411,199,cs),
(416,224,l),
(260,224,l),
(255,200,ls),
(249,169,o),
(233,136,o),
(197,136,cs),
(157,136,o),
(160,180,o),
(166,212,cs),
(181,287,l),
(277,287,l),
(305,431,l),
(210,431,l),
(222,492,ls),
(229,525,o),
(243,573,o),
(285,573,cs),
(312,573,o),
(325,549,o),
(317,510,cs),
(311,479,l),
(468,479,l),
(474,510,ls),
(501,645,o),
(448,718,o),
(320,718,cs),
(191,718,o),
(95,642,o),
(71,521,cs),
(5,188,ls),
(-21,60,o),
(36,-8,o),
(162,-8,cs)
);
}
);
width = 458;
},
{
anchors = (
{
name = t.uni0308_1;
position = "{246, 707}";
}
);
layerId = "696351B7-15B4-4052-A598-BDFCA23AB282";
shapes = (
{
closed = 1;
nodes = (
(386,-8,o),
(500,69,o),
(532,227,c),
(533,234,l),
(404,234,l),
(403,230,l),
(388,154,o),
(338,112,o),
(264,112,cs),
(166,112,o),
(157,188,o),
(174,275,cs),
(178,298,l),
(379,298,l),
(403,416,l),
(202,416,l),
(204,428,l),
(222,516,o),
(256,599,o),
(359,599,cs),
(433,599,o),
(467,555,o),
(453,483,c),
(452,475,l),
(583,475,l),
(585,483,l),
(617,642,o),
(527,717,o),
(384,717,cs),
(211,717,o),
(109,616,o),
(73,435,cs),
(41,273,ls),
(4,90,o),
(65,-8,o),
(237,-8,cs)
);
}
);
width = 592;
},
{
anchors = (
{
name = t.uni0308_1;
position = "{177, 714}";
}
);
layerId = "019F6BD1-2D34-4D79-B1CB-A728BCCF901E";
shapes = (
{
closed = 1;
nodes = (
(295,-8,o),
(381,69,o),
(407,198,cs),
(411,217,l),
(288,217,l),
(285,199,l),
(275,150,o),
(249,105,o),
(194,105,cs),
(133,105,o),
(131,157,o),
(141,209,cs),
(160,303,l),
(298,303,l),
(320,416,l),
(182,416,l),
(197,493,ls),
(208,546,o),
(231,603,o),
(294,603,cs),
(340,603,o),
(359,569,o),
(347,509,cs),
(343,488,l),
(466,488,l),
(470,510,ls),
(496,641,o),
(446,717,o),
(320,717,cs),
(195,717,o),
(104,641,o),
(78,513,cs),
(14,195,ls),
(-12,64,o),
(44,-8,o),
(168,-8,cs)
);
}
);
width = 463;
},
{
anchors = (
{
name = t.uni0308_1;
position = "{246, 707}";
}
);
layerId = "D1347CB1-B206-4E52-85B5-29AA6A54951E";
shapes = (
{
closed = 1;
nodes = (
(376,-8,o),
(492,64,o),
(521,208,c),
(522,212,l),
(450,212,l),
(449,207,ls),
(429,109,o),
(348,60,o),
(258,60,cs),
(135,60,o),
(102,140,o),
(126,258,cs),
(140,328,l),
(360,328,l),
(374,395,l),
(153,395,l),
(163,442,ls),
(187,563,o),
(245,648,o),
(374,648,cs),
(472,648,o),
(527,597,o),
(509,506,cs),
(507,497,l),
(580,497,l),
(582,507,ls),
(610,647,o),
(511,716,o),
(388,716,cs),
(223,716,o),
(125,616,o),
(91,445,cs),
(54,262,ls),
(20,90,o),
(81,-8,o),
(243,-8,cs)
);
}
);
width = 596;
},
{
anchors = (
{
name = t.uni0308_1;
position = "{113, 721}";
}
);
layerId = "77B4CD6B-5B31-4FA5-B8A2-6C2FAC774875";
shapes = (
{
closed = 1;
nodes = (
(300,-8,o),
(377,76,o),
(401,196,cs),
(403,206,l),
(331,206,l),
(329,197,ls),
(314,121,o),
(272,59,o),
(190,59,cs),
(102,59,o),
(87,124,o),
(103,205,cs),
(127,327,l),
(330,327,l),
(343,393,l),
(140,393,l),
(160,494,ls),
(176,576,o),
(216,648,o),
(308,648,cs),
(382,648,o),
(410,600,o),
(392,508,c),
(390,501,l),
(464,501,l),
(465,510,l),
(490,635,o),
(442,716,o),
(320,716,cs),
(199,716,o),
(115,638,o),
(88,501,cs),
(29,206,ls),
(2,71,o),
(56,-8,o),
(177,-8,cs)
);
}
);
width = 471;
},
{
anchors = (
{
name = t.uni0308_1;
position = "{246, 707}";
}
);
layerId = "9799992C-39FB-428C-A67B-0675C2B8D195";
shapes = (
{
closed = 1;
nodes = (
(369,-8,o),
(486,61,o),
(513,195,c),
(514,197,l),
(480,197,l),
(479,192,ls),
(456,79,o),
(355,25,o),
(254,25,cs),
(114,25,o),
(67,109,o),
(95,247,cs),
(115,348,l),
(348,348,l),
(355,381,l),
(121,381,l),
(135,451,ls),
(164,595,o),
(236,681,o),
(385,681,cs),
(499,681,o),
(566,625,o),
(545,521,cs),
(543,512,l),
(579,512,l),
(581,523,ls),
(607,651,o),
(502,715,o),
(391,715,cs),
(233,715,o),
(135,615,o),
(102,452,cs),
(63,255,ls),
(30,90,o),
(93,-8,o),
(247,-8,cs)
);
}
);
width = 599;
},
{
anchors = (
{
name = t.uni0308_1;
position = "{70, 726}";
}
);
layerId = "4C505698-BF71-4ADC-851F-163946829AF6";
shapes = (
{
closed = 1;
nodes = (
(304,-8,o),
(374,81,o),
(397,195,c),
(398,199,l),
(360,199,l),
(359,196,l),
(340,102,o),
(289,28,o),
(187,28,cs),
(81,28,o),
(57,104,o),
(77,202,cs),
(105,343,l),
(351,343,l),
(358,378,l),
(112,378,l),
(136,495,ls),
(156,597,o),
(204,678,o),
(317,678,cs),
(406.259,678,o),
(443.564,625.084,o),
(423.254,516.422,c),
(422,510,l),
(462,510,l),
(463.207,516.421,l),
(484.423,634.903,o),
(439.865,715,o),
(321,715,cs),
(204,715,o),
(124,637,o),
(95,493,cs),
(39,213,ls),
(12,76,o),
(65,-8,o),
(183,-8,cs)
);
}
);
width = 477;
}
);
unicode = 1028;
},
{
glyphname = Euro;
layers = (
{
layerId = "D5E7FB56-198D-4A8E-BEAA-3EF32E5285DB";
shapes = (
{
closed = 1;
nodes = (
(361,-12,o),
(457,57,o),
(492,186,c),
(355,186,l),
(339,147,o),
(311,124,o),
(265,124,cs),
(217,124,o),
(196,161,o),
(210,232,c),
(211,238,l),
(361,238,l),
(397,337,l),
(231,337,l),
(238,373,l),
(406,373,l),
(444,473,l),
(258,473,l),
(259,475,l),
(274,551,o),
(306,581,o),
(356,581,cs),
(395,581,o),
(416,562,o),
(415,521,c),
(560,521,l),
(576,642,o),
(508,717,o),
(380,717,cs),
(238,717,o),
(134,626,o),
(104,477,c),
(104,473,l),
(54,473,l),
(34,373,l),
(84,373,l),
(76,337,l),
(26,337,l),
(7,238,l),
(57,238,l),
(56,233,ls),
(25,80,o),
(92,-12,o),
(232,-12,cs)
);
}
);
width = 551;
},
{
layerId = "ADD2B973-A810-4856-BC17-7BF1C9DE9A02";
shapes = (
{
closed = 1;
nodes = (
(298,-10,o),
(368,53,o),
(402,185,c),
(255,185,l),
(248,146,o),
(236,130,o),
(212,130,cs),
(192,130,o),
(188,142,o),
(195,177,cs),
(207,239,l),
(312,239,l),
(347,335,l),
(227,335,l),
(235,377,l),
(360,377,l),
(394,472,l),
(254,472,l),
(265,527,ls),
(272,562,o),
(280,577,o),
(304,577,cs),
(327,577,o),
(331,560,o),
(322,520,c),
(469,520,l),
(495,653,o),
(450,717,o),
(328,717,cs),
(209,717,o),
(133,651,o),
(108,526,cs),
(97,472,l),
(46,472,l),
(27,377,l),
(78,377,l),
(70,335,l),
(19,335,l),
(0,239,l),
(51,239,l),
(38,176,ls),
(13,51,o),
(63,-10,o),
(181,-10,cs)
);
}
);
width = 450;
},
{
layerId = "696351B7-15B4-4052-A598-BDFCA23AB282";
shapes = (
{
closed = 1;
nodes = (
(350,-11,o),
(440,54,o),
(473,173,c),
(364,173,l),
(345,124,o),
(310,97,o),
(256,97,cs),
(193,97,o),
(170,142,o),
(186,223,cs),
(191,247,l),
(350,247,l),
(380,330,l),
(208,330,l),
(218,381,l),
(397,381,l),
(429,464,l),
(235,464,l),
(239,487,ls),
(255,568,o),
(294,608,o),
(357,608,cs),
(408,608,o),
(433,585,o),
(432,534,c),
(545,534,l),
(560,649,o),
(498,717,o),
(377,717,cs),
(241,717,o),
(145,629,o),
(117,488,cs),
(112,464,l),
(58,464,l),
(42,381,l),
(96,381,l),
(85,330,l),
(31,330,l),
(15,247,l),
(69,247,l),
(64,224,ls),
(35,77,o),
(95,-11,o),
(231,-11,cs)
);
}
);
width = 545;
},
{
layerId = "019F6BD1-2D34-4D79-B1CB-A728BCCF901E";
shapes = (
{
closed = 1;
nodes = (
(293,-9,o),
(362,52,o),
(391,175,c),
(275,175,l),
(264,124,o),
(243,101,o),
(208,101,cs),
(172,101,o),
(162,125,o),
(173,178,cs),
(187,247,l),
(304,247,l),
(336,330,l),
(203,330,l),
(214,382,l),
(354,382,l),
(384,465,l),
(230,465,l),
(244,532,ls),
(254,583,o),
(273,606,o),
(311,606,cs),
(346,606,o),
(356,584,o),
(347,532,c),
(462,532,l),
(486,655,o),
(443,717,o),
(330,717,cs),
(216,717,o),
(144,650,o),
(120,529,cs),
(107,465,l),
(51,465,l),
(35,382,l),
(90,382,l),
(80,330,l),
(24,330,l),
(8,247,l),
(63,247,l),
(50,179,ls),
(25,54,o),
(69,-9,o),
(184,-9,cs)
);
}
);
width = 450;
},
{
layerId = "D1347CB1-B206-4E52-85B5-29AA6A54951E";
shapes = (
{
closed = 1;
nodes = (
(333,-10,o),
(416,52,o),
(445,153,c),
(377,153,l),
(352,89,o),
(309,57,o),
(243,57,cs),
(160,57,o),
(132,113,o),
(151,209,cs),
(161,261,l),
(333,261,l),
(355,319,l),
(173,319,l),
(187,393,l),
(384,393,l),
(407,451,l),
(199,451,l),
(210,505,ls),
(228,594,o),
(277,649,o),
(359,649,cs),
(427,649,o),
(458,618,o),
(457,554,c),
(521,554,l),
(534,658,o),
(483,717,o),
(374,717,cs),
(248,717,o),
(162,635,o),
(136,504,cs),
(125,451,l),
(66,451,l),
(54,393,l),
(114,393,l),
(99,319,l),
(39,319,l),
(28,261,l),
(87,261,l),
(77,211,ls),
(50,74,o),
(99,-10,o),
(228,-10,cs)
);
}
);
width = 536;
},
{
layerId = "77B4CD6B-5B31-4FA5-B8A2-6C2FAC774875";
shapes = (
{
closed = 1;
nodes = (
(284,-8,o),
(352,51,o),
(375,160,c),
(305,160,l),
(286,91,o),
(255,58,o),
(201,58,cs),
(139,58,o),
(124,99,o),
(140,180,cs),
(156,259,l),
(293,259,l),
(319,323,l),
(169,323,l),
(182,390,l),
(345,390,l),
(370,455,l),
(195,455,l),
(212,539,ls),
(227,614,o),
(264,650,o),
(320,650,cs),
(376,650,o),
(393,619,o),
(383,550,c),
(451,550,l),
(471,657,o),
(429,717,o),
(332,717,cs),
(226,717,o),
(161,649,o),
(138,534,cs),
(122,455,l),
(59,455,l),
(46,390,l),
(109,390,l),
(95,323,l),
(33,323,l),
(20,259,l),
(83,259,l),
(67,183,ls),
(42,58,o),
(77,-8,o),
(187,-8,cs)
);
}
);
width = 449;
},
{
layerId = "9799992C-39FB-428C-A67B-0675C2B8D195";
shapes = (
{
closed = 1;
nodes = (
(321,-9,o),
(399,49,o),
(426,140,c),
(385,140,l),
(357,65,o),
(308,30,o),
(234,30,cs),
(136,30,o),
(106,93,o),
(127,200,cs),
(141,270,l),
(322,270,l),
(338,312,l),
(149,312,l),
(167,401,l),
(376,401,l),
(392,442,l),
(175,442,l),
(190,517,ls),
(209,612,o),
(265,676,o),
(360,676,cs),
(439,676,o),
(473,640,o),
(473,567,c),
(506,567,l),
(518,664,o),
(472,717,o),
(371,717,cs),
(250,717,o),
(173,638,o),
(148,515,cs),
(134,442,l),
(70,442,l),
(62,401,l),
(126,401,l),
(108,312,l),
(44,312,l),
(36,270,l),
(100,270,l),
(86,202,ls),
(60,71,o),
(102,-9,o),
(227,-9,cs)
);
}
);
width = 530;
},
{
layerId = "4C505698-BF71-4ADC-851F-163946829AF6";
shapes = (
{
closed = 1;
nodes = (
(279,-7,o),
(344,50,o),
(363,150,c),
(325,150,l),
(301,69,o),
(263,29,o),
(197,29,cs),
(119,29,o),
(99,81,o),
(119,181,cs),
(136,267,l),
(286,267,l),
(308,318,l),
(146,318,l),
(161,395,l),
(339,395,l),
(360,448,l),
(172,448,l),
(191,544,ls),
(209,635,o),
(256,679,o),
(326,679,cs),
(396,679,o),
(416,643,o),
(407,562,c),
(445,562,l),
(463,658,o),
(419,717,o),
(333,717,cs),
(232,717,o),
(172,648,o),
(150,537,cs),
(132,448,l),
(64,448,l),
(54,395,l),
(121,395,l),
(106,318,l),
(38,318,l),
(28,267,l),
(96,267,l),
(79,186,ls),
(54,61,o),
(83,-7,o),
(190,-7,cs)
);
}
);
width = 449;
}
);
unicode = 8364;
},
{
glyphname = F;
layers = (
{
anchors = (
{
name = b.uni0324_2;
position = "{225, 0}";
},
{
name = m.uni0308_1;
position = "{225, 700}";
}
);
layerId = "D5E7FB56-198D-4A8E-BEAA-3EF32E5285DB";
shapes = (
{
closed = 1;
nodes = (
(-19,0,l),
(152,0,l),
(208,278,l),
(482,278,l),
(512,427,l),
(238,427,l),
(262,550,l),
(577,550,l),
(607,700,l),
(121,700,l)
);
}
);
width = 557;
},
{
anchors = (
{
name = b.uni0324_2;
position = "{206, 0}";
},
{
name = m.uni0308_1;
position = "{206, 700}";
},
{
name = b.uni0324.3;
position = "{225, 0}";
},
{
name = m.uni0308.2;
position = "{225, 700}";
}
);
layerId = "ADD2B973-A810-4856-BC17-7BF1C9DE9A02";
shapes = (
{
closed = 1;
nodes = (
(-30,0,l),
(124,0,l),
(181,285,l),
(366,285,l),
(395,429,l),
(210,429,l),
(235,556,l),
(438,556,l),
(467,700,l),
(110,700,l)
);
}
);
width = 415;
},
{
anchors = (
{
name = b.uni0324_2;
position = "{225, 0}";
},
{
name = m.uni0308_1;
position = "{225, 700}";
}
);
layerId = "696351B7-15B4-4052-A598-BDFCA23AB282";
shapes = (
{
closed = 1;
nodes = (
(-5,0,l),
(127,0,l),
(186,297,l),
(469,297,l),
(493,414,l),
(210,414,l),
(243,583,l),
(571,583,l),
(594,700,l),
(134,700,l)
);
}
);
width = 550;
},
{
anchors = (
{
name = b.uni0324_2;
position = "{154, 0}";
},
{
name = m.uni0308_1;
position = "{154, 700}";
}
);
layerId = "019F6BD1-2D34-4D79-B1CB-A728BCCF901E";
shapes = (
{
closed = 1;
nodes = (
(-19,0,l),
(102,0,l),
(162,299,l),
(353,299,l),
(376,412,l),
(185,412,l),
(220,587,l),
(434,587,l),
(457,700,l),
(121,700,l)
);
}
);
width = 406;
},
{
anchors = (
{
name = b.uni0324_2;
position = "{225, 0}";
},
{
name = m.uni0308_1;
position = "{225, 700}";
}
);
layerId = "D1347CB1-B206-4E52-85B5-29AA6A54951E";
shapes = (
{
closed = 1;
nodes = (
(15,0,l),
(88,0,l),
(153,326,l),
(450,326,l),
(464,394,l),
(167,394,l),
(214,632,l),
(561,632,l),
(575,700,l),
(154,700,l)
);
}
);
width = 540;
},
{
anchors = (
{
name = b.uni0324_2;
position = "{76, 0}";
},
{
name = m.uni0308_1;
position = "{76, 700}";
}
);
layerId = "77B4CD6B-5B31-4FA5-B8A2-6C2FAC774875";
shapes = (
{
closed = 1;
nodes = (
(-3,0,l),
(70,0,l),
(134,320,l),
(335,320,l),
(348,386,l),
(147,386,l),
(197,634,l),
(429,634,l),
(442,700,l),
(137,700,l)
);
}
);
width = 391;
},
{
anchors = (
{
name = b.uni0324_2;
position = "{225, 0}";
},
{
name = m.uni0308_1;
position = "{225, 700}";
}
);
layerId = "9799992C-39FB-428C-A67B-0675C2B8D195";
shapes = (
{
closed = 1;
nodes = (
(28,0,l),
(63,0,l),
(132,345,l),
(437,345,l),
(444,381,l),
(139,381,l),
(195,665,l),
(555,665,l),
(562,700,l),
(168,700,l)
);
}
);
width = 534;
},
{
anchors = (
{
name = b.uni0324_2;
position = "{24, 0}";
},
{
name = m.uni0308_1;
position = "{24, 700}";
}
);
layerId = "4C505698-BF71-4ADC-851F-163946829AF6";
shapes = (
{
closed = 1;
nodes = (
(8,0,l),
(48,0,l),
(115,334,l),
(322,334,l),
(329,369,l),
(122,369,l),
(181,665,l),
(425,665,l),
(432,700,l),
(148,700,l)
);
}
);
width = 381;
}
);
unicode = 70;
},
{
glyphname = G;
layers = (
{
anchors = (
{
name = b.uni0324_2;
position = "{247, 0}";
},
{
name = m.uni0308_1;
position = "{247, 700}";
}
);
layerId = "D5E7FB56-198D-4A8E-BEAA-3EF32E5285DB";
shapes = (
{
closed = 1;
nodes = (
(413,-8,o),
(510,88,o),
(546,266,cs),
(571,391,l),
(312,391,l),
(284,250,l),
(378,250,l),
(376,237,l),
(364,177,o),
(335,147,o),
(273,147,cs),
(202,147,o),
(184,183,o),
(205,286,cs),
(230,409,ls),
(252,517,o),
(283,557,o),
(347,557,cs),
(402,557,o),
(428,516,o),
(418,467,cs),
(416,458,l),
(585,458,l),
(587,467,ls),
(620,633,o),
(529,708,o),
(380,708,cs),
(192,708,o),
(97,602,o),
(60,419,cs),
(32,280,ls),
(-4,100,o),
(48,-8,o),
(234,-8,cs)
);
}
);
width = 589;
},
{
anchors = (
{
name = b.uni0324_2;
position = "{220, 0}";
},
{
name = m.uni0308_1;
position = "{220, 700}";
}
);
layerId = "ADD2B973-A810-4856-BC17-7BF1C9DE9A02";
shapes = (
{
closed = 1;
nodes = (
(278,-8,o),
(380,62,o),
(405,185,cs),
(444,381,l),
(246,381,l),
(222,260,l),
(266,260,l),
(254,200,ls),
(246,159,o),
(230,135,o),
(198,135,cs),
(167,135,o),
(156,159,o),
(166,208,cs),
(222,486,ls),
(233,541,o),
(248,564,o),
(284,564,cs),
(308,564,o),
(323,544,o),
(316,511,cs),
(311,484,l),
(465,484,l),
(470,511,ls),
(495,638,o),
(437,708,o),
(317,708,cs),
(197,708,o),
(99,643,o),
(73,515,cs),
(7,184,ls),
(-18,59,o),
(41,-8,o),
(162,-8,cs)
);
}
);
width = 457;
},
{
anchors = (
{
name = b.uni0324_2;
position = "{247, 0}";
},
{
name = m.uni0308_1;
position = "{247, 700}";
}
);
layerId = "696351B7-15B4-4052-A598-BDFCA23AB282";
shapes = (
{
closed = 1;
nodes = (
(410,-8,o),
(507,92,o),
(541,263,cs),
(565,384,l),
(314,384,l),
(292,273,l),
(414,273,l),
(408,240,ls),
(391,153,o),
(346,112,o),
(267,112,cs),
(180,112,o),
(151,160,o),
(174,275,cs),
(202,419,ls),
(226,540,o),
(274,590,o),
(357,590,cs),
(431,590,o),
(465,543,o),
(452,478,c),
(451,471,l),
(582,471,l),
(584,478,l),
(615,634,o),
(521,708,o),
(382,708,cs),
(202,708,o),
(107,602,o),
(72,426,cs),
(41,273,ls),
(6,99,o),
(59,-8,o),
(237,-8,cs)
);
}
);
width = 594;
},
{
anchors = (
{
name = b.uni0324_2;
position = "{175, 0}";
},
{
name = m.uni0308_1;
position = "{175, 700}";
}
);
layerId = "019F6BD1-2D34-4D79-B1CB-A728BCCF901E";
shapes = (
{
closed = 1;
nodes = (
(289,-8,o),
(379,69,o),
(404,192,cs),
(440,372,l),
(247,372,l),
(227,275,l),
(299,275,l),
(284,200,ls),
(271,137,o),
(242,104,o),
(194,104,cs),
(144,105,o),
(127,138,o),
(141,206,cs),
(197,487,ls),
(212,560,o),
(240,595,o),
(292,595,cs),
(334,595,o),
(356,564,o),
(346,512,cs),
(342,491,l),
(463,491,l),
(468,512,l),
(493,638,o),
(437,708,o),
(318,708,cs),
(195,708,o),
(105,634,o),
(80,507,cs),
(17,192,ls),
(-8,67,o),
(44,-8,o),
(168,-8,cs)
);
}
);
width = 463;
},
{
anchors = (
{
name = b.uni0324_2;
position = "{247, 0}";
},
{
name = m.uni0308_1;
position = "{247, 700}";
}
);
layerId = "D1347CB1-B206-4E52-85B5-29AA6A54951E";
shapes = (
{
closed = 1;
nodes = (
(408,-8,o),
(501,97,o),
(533,258,cs),
(556,373,l),
(317,373,l),
(303,307,l),
(469,307,l),
(457,245,ls),
(432,118,o),
(364,60,o),
(257,60,cs),
(143,60,o),
(100,126,o),
(126,258,cs),
(161,434,ls),
(189,575,o),
(259,640,o),
(372,640,cs),
(473,640,o),
(522,585,o),
(504,494,c),
(504,490,l),
(577,490,l),
(578,494,l),
(606,636,o),
(510,708,o),
(384,708,cs),
(215,708,o),
(122,600,o),
(89,437,cs),
(54,262,ls),
(21,99,o),
(72,-8,o),
(241,-8,cs)
);
}
);
width = 602;
},
{
anchors = (
{
name = b.uni0324_2;
position = "{108, 0}";
},
{
name = m.uni0308_1;
position = "{108, 700}";
}
);
layerId = "77B4CD6B-5B31-4FA5-B8A2-6C2FAC774875";
shapes = (
{
closed = 1;
nodes = (
(302,-8,o),
(378,81,o),
(402,203,cs),
(433,358,l),
(248,358,l),
(236,297,l),
(348,297,l),
(329,200,ls),
(310,105,o),
(260,58,o),
(189,58,cs),
(112,59,o),
(84,107,o),
(103,203,cs),
(160,488,ls),
(181,591,o),
(230,641,o),
(305,641,cs),
(375,641,o),
(408,594,o),
(392,514,c),
(389,502,l),
(462,502,l),
(464,514,l),
(489,637,o),
(436,708,o),
(319,708,cs),
(190,708,o),
(114,619,o),
(89,495,cs),
(31,204,ls),
(6,81,o),
(48,-8,o),
(176,-8,cs)
);
}
);
width = 471;
},
{
anchors = (
{
name = b.uni0324_2;
position = "{247, 0}";
},
{
name = m.uni0308_1;
position = "{247, 700}";
}
);
layerId = "9799992C-39FB-428C-A67B-0675C2B8D195";
shapes = (
{
closed = 1;
nodes = (
(406,-8,o),
(496,101,o),
(527,255,cs),
(550,366,l),
(318,366,l),
(311,330,l),
(505,330,l),
(489,248,ls),
(458,95,o),
(375,25,o),
(250,25,cs),
(120,25,o),
(66,103,o),
(95,247,cs),
(134,444,ls),
(165,599,o),
(250,673,o),
(382,673,cs),
(501,673,o),
(560,612,o),
(539,505,c),
(539,503,l),
(574,503,l),
(574,505,l),
(600,637,o),
(505,708,o),
(387,708,cs),
(225,708,o),
(132,600,o),
(101,444,cs),
(63,255,ls),
(32,98,o),
(83,-8,o),
(245,-8,cs)
);
}
);
width = 607;
},
{
anchors = (
{
name = b.uni0324_2;
position = "{63, 0}";
},
{
name = m.uni0308_1;
position = "{63, 700}";
}
);
layerId = "4C505698-BF71-4ADC-851F-163946829AF6";
shapes = (
{
closed = 1;
nodes = (
(311,-8,o),
(377,90,o),
(401,210,cs),
(429,349,l),
(248,349,l),
(241,312,l),
(381,312,l),
(359,200,ls),
(336,84,o),
(271,27,o),
(185,27,cs),
(90,28,o),
(55,86,o),
(78,201,cs),
(135,489,ls),
(159,610,o),
(223,672,o),
(314,672,cs),
(401,672,o),
(442,614,o),
(422,515,c),
(420,509,l),
(461,509,l),
(462,515,l),
(486,637,o),
(436,708,o),
(319,708,cs),
(188,708,o),
(120,607,o),
(96,487,cs),
(41,212,ls),
(17,90,o),
(51,-8,o),
(181,-8,cs)
);
}
);
width = 477;
}
);
unicode = 71;
},
{
glyphname = Gamma;
layers = (
{
anchors = (
{
name = b.uni0324_2;
position = "{225, 0}";
},
{
name = m.uni0308_1;
position = "{225, 700}";
}
);
layerId = "D5E7FB56-198D-4A8E-BEAA-3EF32E5285DB";
shapes = (
{
closed = 1;
nodes = (
(-19,0,l),
(152,0,l),
(262,550,l),
(577,550,l),
(607,700,l),
(121,700,l)
);
}
);
width = 557;
},
{
anchors = (
{
name = b.uni0324_2;
position = "{206, 0}";
},
{
name = m.uni0308_1;
position = "{206, 700}";
},
{
name = b.uni0324.3;
position = "{225, 0}";
},
{
name = m.uni0308.2;
position = "{225, 700}";
}
);
layerId = "ADD2B973-A810-4856-BC17-7BF1C9DE9A02";
shapes = (
{
closed = 1;
nodes = (
(-30,0,l),
(124,0,l),
(235,556,l),
(438,556,l),
(467,700,l),
(110,700,l)
);
}
);
width = 415;
},
{
anchors = (
{
name = b.uni0324_2;
position = "{225, 0}";
},
{
name = m.uni0308_1;
position = "{225, 700}";
}
);
layerId = "696351B7-15B4-4052-A598-BDFCA23AB282";
shapes = (
{
closed = 1;
nodes = (
(-5,0,l),
(127,0,l),
(243,583,l),
(571,583,l),
(594,700,l),
(134,700,l)
);
}
);
width = 550;
},
{
anchors = (
{
name = b.uni0324_2;
position = "{154, 0}";
},
{
name = m.uni0308_1;
position = "{154, 700}";
}
);
layerId = "019F6BD1-2D34-4D79-B1CB-A728BCCF901E";
shapes = (
{
closed = 1;
nodes = (
(-19,0,l),
(102,0,l),
(220,587,l),
(434,587,l),
(457,700,l),
(121,700,l)
);
}
);
width = 406;
},
{
anchors = (
{
name = b.uni0324_2;
position = "{225, 0}";
},
{
name = m.uni0308_1;
position = "{225, 700}";
}
);
layerId = "D1347CB1-B206-4E52-85B5-29AA6A54951E";
shapes = (
{
closed = 1;
nodes = (
(15,0,l),
(88,0,l),
(214,632,l),
(561,632,l),
(575,700,l),
(154,700,l)
);
}
);
width = 540;
},
{
anchors = (
{
name = b.uni0324_2;
position = "{76, 0}";
},
{
name = m.uni0308_1;
position = "{76, 700}";
}
);
layerId = "77B4CD6B-5B31-4FA5-B8A2-6C2FAC774875";
shapes = (
{
closed = 1;
nodes = (
(-3,0,l),
(70,0,l),
(197,634,l),
(429,634,l),
(442,700,l),
(137,700,l)
);
}
);
width = 391;
},
{
anchors = (
{
name = b.uni0324_2;
position = "{225, 0}";
},
{
name = m.uni0308_1;
position = "{225, 700}";
}
);
layerId = "9799992C-39FB-428C-A67B-0675C2B8D195";
shapes = (
{
closed = 1;
nodes = (
(28,0,l),
(63,0,l),
(195,665,l),
(555,665,l),
(562,700,l),
(168,700,l)
);
}
);
width = 534;
},
{
anchors = (
{
name = b.uni0324_2;
position = "{24, 0}";
},
{
name = m.uni0308_1;
position = "{24, 700}";
}
);
layerId = "4C505698-BF71-4ADC-851F-163946829AF6";
shapes = (
{
closed = 1;
nodes = (
(8,0,l),
(48,0,l),
(181,665,l),
(425,665,l),
(432,700,l),
(148,700,l)
);
}
);
width = 381;
}
);
unicode = 915;
},
{
glyphname = Gecyr;
layers = (
{
anchors = (
{
name = b.uni0324;
position = "{198, 0}";
},
{
name = t.uni0308_1;
position = "{198, 707}";
}
);
layerId = "D5E7FB56-198D-4A8E-BEAA-3EF32E5285DB";
shapes = (
{
closed = 1;
nodes = (
(-19,0,l),
(152,0,l),
(264,557,l),
(546,557,l),
(576,707,l),
(122,707,l)
);
}
);
width = 498;
},
{
anchors = (
{
name = b.uni0324;
position = "{157, 0}";
},
{
name = t.uni0308_1;
position = "{157, 709}";
},
{
name = b.uni0324.1;
position = "{198, 0}";
},
{
name = t.uni0308.2;
position = "{198, 707}";
}
);
layerId = "ADD2B973-A810-4856-BC17-7BF1C9DE9A02";
shapes = (
{
closed = 1;
nodes = (
(-32,0,l),
(125,0,l),
(237,562,l),
(389,562,l),
(418,707,l),
(109,707,l)
);
}
);
width = 325;
},
{
anchors = (
{
name = b.uni0324;
position = "{198, 0}";
},
{
name = t.uni0308_1;
position = "{198, 707}";
}
);
layerId = "696351B7-15B4-4052-A598-BDFCA23AB282";
shapes = (
{
closed = 1;
nodes = (
(-5,0,l),
(127,0,l),
(245,590,l),
(553,590,l),
(576,707,l),
(136,707,l)
);
}
);
width = 500;
},
{
anchors = (
{
name = b.uni0324;
position = "{119, 0}";
},
{
name = t.uni0308_1;
position = "{119, 714}";
}
);
layerId = "019F6BD1-2D34-4D79-B1CB-A728BCCF901E";
shapes = (
{
closed = 1;
nodes = (
(-21,0,l),
(103,0,l),
(221,593,l),
(406,593,l),
(429,707,l),
(120,707,l)
);
}
);
width = 351;
},
{
anchors = (
{
name = b.uni0324;
position = "{198, 0}";
},
{
name = t.uni0308_1;
position = "{198, 707}";
}
);
layerId = "D1347CB1-B206-4E52-85B5-29AA6A54951E";
shapes = (
{
closed = 1;
nodes = (
(15,0,l),
(88,0,l),
(216,640,l),
(563,640,l),
(576,707,l),
(156,707,l)
);
}
);
width = 502;
},
{
anchors = (
{
name = b.uni0324;
position = "{62, 0}";
},
{
name = t.uni0308_1;
position = "{62, 721}";
}
);
layerId = "77B4CD6B-5B31-4FA5-B8A2-6C2FAC774875";
shapes = (
{
closed = 1;
nodes = (
(-4,0,l),
(69,0,l),
(197,640,l),
(432,640,l),
(445,707,l),
(137,707,l)
);
}
);
width = 391;
},
{
anchors = (
{
name = b.uni0324;
position = "{198, 0}";
},
{
name = t.uni0308_1;
position = "{198, 707}";
}
);
layerId = "9799992C-39FB-428C-A67B-0675C2B8D195";
shapes = (
{
closed = 1;
nodes = (
(28,0,l),
(63,0,l),
(197,673,l),
(569,673,l),
(576,707,l),
(170,707,l)
);
}
);
width = 504;
},
{
anchors = (
{
name = b.uni0324;
position = "{24, 0}";
},
{
name = t.uni0308_1;
position = "{24, 726}";
}
);
layerId = "4C505698-BF71-4ADC-851F-163946829AF6";
shapes = (
{
closed = 1;
nodes = (
(6,0,l),
(47,0,l),
(181,671,l),
(449,671,l),
(456,707,l),
(148,707,l)
);
}
);
width = 417;
}
);
unicode = 1043;
},
{
glyphname = Germandbls;
layers = (
{
anchors = (
{
name = b.uni0324_2;
position = "{334, 0}";
},
{
name = m.uni0308_1;
position = "{334, 707}";
}
);
layerId = "D5E7FB56-198D-4A8E-BEAA-3EF32E5285DB";
shapes = (
{
closed = 1;
nodes = (
(274,-3,l),
(400,-3,ls),
(569,-3,o),
(732,12,o),
(773,219,cs),
(807,389,o),
(675,428,o),
(533,428,cs),
(508,428,l),
(494,322,l),
(769,595,l),
(720,676,o),
(553,713,o),
(455,714,cs),
(273,715,o),
(144,669,o),
(104,470,cs),
(10,1,l),
(181,1,l),
(273,464,ls),
(291,555,o),
(350,549,o),
(422,549,cs),
(488,549,o),
(536,546,o),
(543,543,c),
(550,556,l),
(368,365,l),
(351,278,l),
(477,278,ls),
(512,278,o),
(614,278,o),
(603,222,cs),
(589,152,o),
(509,167,o),
(460,167,cs),
(308,167,l)
);
}
);
width = 843;
},
{
anchors = (
{
name = b.uni0324_2;
position = "{341, 0}";
},
{
name = m.uni0308_1;
position = "{341, 702}";
}
);
layerId = "ADD2B973-A810-4856-BC17-7BF1C9DE9A02";
shapes = (
{
closed = 1;
nodes = (
(163,-3,l),
(266,-3,ls),
(438,-3,o),
(532,30,o),
(569,217,cs),
(594,342,o),
(515,410,o),
(400,416,cs),
(380,417,l),
(366,349,l),
(581,570,l),
(546,659,o),
(455,716,o),
(354,714,cs),
(199,712,o),
(94,632,o),
(62,474,cs),
(-32,1,l),
(116,1,l),
(210,471,ls),
(218,513,o),
(234,572,o),
(293,572,cs),
(352,572,o),
(394,558,o),
(403,547,c),
(414,583,l),
(238,401,l),
(215,288,l),
(336,288,ls),
(381,288,o),
(431,275,o),
(420,219,cs),
(409,162,o),
(356,147,o),
(310,147,cs),
(193,147,l)
);
}
);
width = 604;
},
{
anchors = (
{
name = b.uni0324_2;
position = "{334, 0}";
},
{
name = m.uni0308_1;
position = "{334, 707}";
}
);
layerId = "696351B7-15B4-4052-A598-BDFCA23AB282";
shapes = (
{
closed = 1;
nodes = (
(241,-3,l),
(356,-3,ls),
(524,-3,o),
(651,16,o),
(690,211,cs),
(723,377,o),
(613,407,o),
(476,407,cs),
(452,407,l),
(476,343,l),
(710,588,l),
(651,673,o),
(530,713,o),
(419,714,cs),
(248,715,o),
(140,654,o),
(105,477,cs),
(10,1,l),
(140,1,l),
(235,477,ls),
(255,579,o),
(310,590,o),
(395,590,cs),
(462,590,o),
(514,579,o),
(529,564,c),
(536,580,l),
(342,362,l),
(330,299,l),
(436,299,ls),
(495,299,o),
(577,291,o),
(561,212,cs),
(542,118,o),
(477,126,o),
(406,126,cs),
(267,126,l)
);
}
);
width = 762;
},
{
anchors = (
{
name = b.uni0324_2;
position = "{291, 0}";
},
{
name = m.uni0308_1;
position = "{291, 707}";
}
);
layerId = "019F6BD1-2D34-4D79-B1CB-A728BCCF901E";
shapes = (
{
closed = 1;
nodes = (
(149,-3,l),
(241,-3,ls),
(397,-3,o),
(481,51,o),
(513,210,cs),
(536,327,o),
(473,401,o),
(363,407,cs),
(344,408,l),
(346,379,l),
(526,581,l),
(498,659,o),
(425,714,o),
(336,714,cs),
(181,714,o),
(103,625,o),
(74,479,cs),
(-22,1,l),
(95,1,l),
(191,481,ls),
(202,536,o),
(228,622,o),
(299,622,cs),
(351,622,o),
(388,600,o),
(394,570,c),
(402,592,l),
(232,402,l),
(213,305,l),
(314,305,ls),
(375,305,o),
(410,275,o),
(397,210,cs),
(384,144,o),
(337,114,o),
(278,114,cs),
(172,114,l)
);
}
);
width = 560;
},
{
anchors = (
{
name = b.uni0324_2;
position = "{334, 0}";
},
{
name = m.uni0308_1;
position = "{334, 707}";
}
);
layerId = "D1347CB1-B206-4E52-85B5-29AA6A54951E";
shapes = (
{
closed = 1;
nodes = (
(191,-3,l),
(292,-3,ls),
(460,-3,o),
(531,24,o),
(566,199,cs),
(597,353,o),
(506,396,o),
(375,396,cs),
(352,396,l),
(333,342,l),
(583,607,l),
(543,679,o),
(452,714,o),
(366,714,cs),
(212,714,o),
(136,632,o),
(107,487,cs),
(10,1,l),
(78,1,l),
(177,496,ls),
(198,600,o),
(254,652,o),
(354,652,cs),
(423,652,o),
(483,630,o),
(509,596,c),
(513,616,l),
(308,383,l),
(297,330,l),
(375,330,ls),
(465,330,o),
(518,297,o),
(498,197,cs),
(475,82,o),
(421,64,o),
(325,64,cs),
(204,64,l)
);
}
);
width = 641;
},
{
anchors = (
{
name = b.uni0324_2;
position = "{216, 0}";
},
{
name = m.uni0308_1;
position = "{216, 714}";
}
);
layerId = "77B4CD6B-5B31-4FA5-B8A2-6C2FAC774875";
shapes = (
{
closed = 1;
nodes = (
(129,-3,l),
(205,-3,ls),
(335,-3,o),
(405,77,o),
(429,199,cs),
(454,323,o),
(403,392,o),
(284,386,cs),
(264,385,l),
(271,374,l),
(444,597,l),
(427,662,o),
(383,713,o),
(310,714,cs),
(176,716,o),
(115,600,o),
(92,487,cs),
(-5,1,l),
(62,1,l),
(161,496,ls),
(176,569,o),
(212,652,o),
(297,652,cs),
(338,652,o),
(370,624,o),
(378,579,c),
(384,607,l),
(223,403,l),
(209,330,l),
(281,330,ls),
(358,330,o),
(375,268,o),
(361,197,cs),
(345,119,o),
(311,64,o),
(230,64,cs),
(143,64,l)
);
}
);
width = 495;
},
{
anchors = (
{
name = b.uni0324_2;
position = "{334, 0}";
},
{
name = m.uni0308_1;
position = "{334, 707}";
}
);
layerId = "9799992C-39FB-428C-A67B-0675C2B8D195";
shapes = (
{
closed = 1;
nodes = (
(156,-3,l),
(249,-3,ls),
(394,-3,o),
(456,48,o),
(484,187,cs),
(513,333,o),
(468,379,o),
(299,379,cs),
(292,379,l),
(288,358,l),
(516,618,l),
(474,678,o),
(412,714,o),
(332,714,c),
(198,711,o),
(135,623,o),
(109,493,cs),
(10,1,l),
(40,1,l),
(141,508,ls),
(161,608,o),
(222,689,o),
(327,689,cs),
(394,689,o),
(455,649,o),
(487,605,c),
(490,627,l),
(282,391,l),
(274,349,l),
(334,349,ls),
(441,349,o),
(474,294,o),
(453,188,cs),
(430,71,o),
(379,27,o),
(271,27,cs),
(162,27,l)
);
}
);
width = 560;
},
{
anchors = (
{
name = b.uni0324_2;
position = "{166, 0}";
},
{
name = m.uni0308_1;
position = "{166, 719}";
}
);
layerId = "4C505698-BF71-4ADC-851F-163946829AF6";
shapes = (
{
closed = 1;
nodes = (
(116,-3,l),
(180,-3,ls),
(295,-3,o),
(353,93,o),
(373,192,cs),
(399,324,o),
(357,382,o),
(235,382,cs),
(216,382,l),
(232,367,l),
(401,608,l),
(384,664,o),
(360,714,o),
(292,714,cs),
(192,714,o),
(135,646,o),
(104,492,cs),
(6,1,l),
(37,1,l),
(140,516,ls),
(164,635,o),
(212,682,o),
(299,682,cs),
(333,682,o),
(359,638,o),
(366,586,c),
(372,616,l),
(218,404,l),
(206,347,l),
(259,347,ls),
(343,347,o),
(352,259,o),
(338,188,cs),
(321,104,o),
(292,31,o),
(198,31,cs),
(122,31,l)
);
}
);
width = 451;
}
);
unicode = 7838;
},
{
glyphname = Geupcyr;
layers = (
{
layerId = "D5E7FB56-198D-4A8E-BEAA-3EF32E5285DB";
shapes = (
{
closed = 1;
nodes = (
(442,707,l),
(576,707,l),
(608,867,l),
(474,867,l)
);
},
{
closed = 1;
nodes = (
(-19,0,l),
(152,0,l),
(264,557,l),
(546,557,l),
(576,707,l),
(122,707,l)
);
}
);
width = 515;
},
{
layerId = "ADD2B973-A810-4856-BC17-7BF1C9DE9A02";
shapes = (
{
closed = 1;
nodes = (
(284,707,l),
(418,707,l),
(450,867,l),
(316,867,l)
);
},
{
closed = 1;
nodes = (
(-32,0,l),
(125,0,l),
(237,562,l),
(389,562,l),
(418,707,l),
(109,707,l)
);
}
);
width = 350;
},
{
layerId = "696351B7-15B4-4052-A598-BDFCA23AB282";
shapes = (
{
closed = 1;
nodes = (
(468,707,l),
(576,707,l),
(608,867,l),
(500,867,l)
);
},
{
closed = 1;
nodes = (
(-5,0,l),
(127,0,l),
(245,590,l),
(553,590,l),
(576,707,l),
(136,707,l)
);
}
);
width = 521;
},
{
layerId = "019F6BD1-2D34-4D79-B1CB-A728BCCF901E";
shapes = (
{
closed = 1;
nodes = (
(321,707,l),
(429,707,l),
(461,867,l),
(353,867,l)
);
},
{
closed = 1;
nodes = (
(-21,0,l),
(103,0,l),
(221,593,l),
(406,593,l),
(429,707,l),
(120,707,l)
);
}
);
width = 366;
},
{
layerId = "D1347CB1-B206-4E52-85B5-29AA6A54951E";
shapes = (
{
closed = 1;
nodes = (
(508,707,l),
(576,707,l),
(608,867,l),
(540,867,l)
);
},
{
closed = 1;
nodes = (
(15,0,l),
(88,0,l),
(216,640,l),
(563,640,l),
(576,707,l),
(156,707,l)
);
}
);
width = 531;
},
{
layerId = "77B4CD6B-5B31-4FA5-B8A2-6C2FAC774875";
shapes = (
{
closed = 1;
nodes = (
(377,707,l),
(445,707,l),
(477,867,l),
(409,867,l)
);
},
{
closed = 1;
nodes = (
(-4,0,l),
(69,0,l),
(197,640,l),
(432,640,l),
(445,707,l),
(137,707,l)
);
}
);
width = 391;
},
{
layerId = "9799992C-39FB-428C-A67B-0675C2B8D195";
shapes = (
{
closed = 1;
nodes = (
(534,707,l),
(576,707,l),
(608,867,l),
(566,867,l)
);
},
{
closed = 1;
nodes = (
(28,0,l),
(63,0,l),
(197,673,l),
(569,673,l),
(576,707,l),
(170,707,l)
);
}
);
width = 537;
},
{
layerId = "4C505698-BF71-4ADC-851F-163946829AF6";
shapes = (
{
closed = 1;
nodes = (
(414,707,l),
(456,707,l),
(488,867,l),
(446,867,l)
);
},
{
closed = 1;
nodes = (
(6,0,l),
(47,0,l),
(181,671,l),
(449,671,l),
(456,707,l),
(148,707,l)
);
}
);
width = 407;
}
);
unicode = 1168;
},
{
glyphname = H;
layers = (
{
anchors = (
{
name = b.uni0324_2;
position = "{252, 0}";
},
{
name = m.uni0308_1;
position = "{252, 700}";
}
);
layerId = "D5E7FB56-198D-4A8E-BEAA-3EF32E5285DB";
shapes = (
{
closed = 1;
nodes = (
(-19,0,l),
(152,0,l),
(208,278,l),
(375,278,l),
(319,0,l),
(490,0,l),
(629,700,l),
(459,700,l),
(404,427,l),
(238,427,l),
(292,700,l),
(121,700,l)
);
}
);
width = 590;
},
{
anchors = (
{
name = b.uni0324_2;
position = "{217, 0}";
},
{
name = m.uni0308_1;
position = "{217, 700}";
},
{
name = b.uni0324.3;
position = "{252, 0}";
},
{
name = m.uni0308.2;
position = "{252, 700}";
}
);
layerId = "ADD2B973-A810-4856-BC17-7BF1C9DE9A02";
shapes = (
{
closed = 1;
nodes = (
(-30,0,l),
(126,0,l),
(183,284,l),
(256,284,l),
(199,0,l),
(355,0,l),
(495,700,l),
(339,700,l),
(285,427,l),
(211,427,l),
(266,700,l),
(110,700,l)
);
}
);
width = 445;
},
{
anchors = (
{
name = b.uni0324_2;
position = "{252, 0}";
},
{
name = m.uni0308_1;
position = "{252, 700}";
}
);
layerId = "696351B7-15B4-4052-A598-BDFCA23AB282";
shapes = (
{
closed = 1;
nodes = (
(-5,0,l),
(127,0,l),
(186,297,l),
(416,297,l),
(356,0,l),
(488,0,l),
(627,700,l),
(496,700,l),
(439,414,l),
(210,414,l),
(267,700,l),
(134,700,l)
);
}
);
width = 602;
},
{
anchors = (
{
name = b.uni0324_2;
position = "{166, 0}";
},
{
name = m.uni0308_1;
position = "{166, 700}";
}
);
layerId = "019F6BD1-2D34-4D79-B1CB-A728BCCF901E";
shapes = (
{
closed = 1;
nodes = (
(-19,0,l),
(103,0,l),
(163,300,l),
(292,300,l),
(232,0,l),
(354,0,l),
(494,700,l),
(372,700,l),
(314,412,l),
(186,412,l),
(243,700,l),
(121,700,l)
);
}
);
width = 455;
},
{
anchors = (
{
name = b.uni0324_2;
position = "{252, 0}";
},
{
name = m.uni0308_1;
position = "{252, 700}";
}
);
layerId = "D1347CB1-B206-4E52-85B5-29AA6A54951E";
shapes = (
{
closed = 1;
nodes = (
(15,0,l),
(88,0,l),
(153,326,l),
(477,326,l),
(412,0,l),
(485,0,l),
(625,700,l),
(551,700,l),
(490,394,l),
(167,394,l),
(228,700,l),
(154,700,l)
);
}
);
width = 619;
},
{
anchors = (
{
name = b.uni0324_2;
position = "{89, 0}";
},
{
name = m.uni0308_1;
position = "{89, 700}";
}
);
layerId = "77B4CD6B-5B31-4FA5-B8A2-6C2FAC774875";
shapes = (
{
closed = 1;
nodes = (
(-3,0,l),
(70,0,l),
(135,324,l),
(345,324,l),
(281,0,l),
(353,0,l),
(493,700,l),
(420,700,l),
(358,389,l),
(148,389,l),
(210,700,l),
(137,700,l)
);
}
);
width = 470;
},
{
anchors = (
{
name = b.uni0324_2;
position = "{252, 0}";
},
{
name = m.uni0308_1;
position = "{252, 700}";
}
);
layerId = "9799992C-39FB-428C-A67B-0675C2B8D195";
shapes = (
{
closed = 1;
nodes = (
(28,0,l),
(63,0,l),
(132,345,l),
(518,345,l),
(449,0,l),
(483,0,l),
(623,700,l),
(589,700,l),
(525,381,l),
(139,381,l),
(202,700,l),
(168,700,l)
);
}
);
width = 631;
},
{
anchors = (
{
name = b.uni0324_2;
position = "{38, 0}";
},
{
name = m.uni0308_1;
position = "{38, 700}";
}
);
layerId = "4C505698-BF71-4ADC-851F-163946829AF6";
shapes = (
{
closed = 1;
nodes = (
(8,0,l),
(47,0,l),
(115,340,l),
(381,340,l),
(313,0,l),
(352,0,l),
(492,700,l),
(453,700,l),
(388,374,l),
(122,374,l),
(187,700,l),
(148,700,l)
);
}
);
width = 480;
}
);
unicode = 72;
},
{
glyphname = Hardcyr;
layers = (
{
anchors = (
{
name = t.uni0308_1;
position = "{284, 707}";
}
);
layerId = "D5E7FB56-198D-4A8E-BEAA-3EF32E5285DB";
shapes = (
{
closed = 1;
nodes = (
(43,0,l),
(310,0,ls),
(451,0,o),
(560,85,o),
(589,231,cs),
(618,374,o),
(537,455,o),
(401,455,cs),
(305,455,l),
(356,707,l),
(81,707,l),
(51,557,l),
(154,557,l)
);
},
{
closed = 1;
nodes = (
(244,150,l),
(275,303,l),
(363,303,ls),
(402,303,o),
(427,274,o),
(418,231,cs),
(408,180,o),
(376,150,o),
(333,150,cs)
);
}
);
width = 639;
},
{
anchors = (
{
name = t.uni0308_1;
position = "{243, 709}";
}
);
layerId = "ADD2B973-A810-4856-BC17-7BF1C9DE9A02";
shapes = (
{
closed = 1;
nodes = (
(46,0,l),
(236,0,ls),
(392,0,o),
(452,88,o),
(481,234,cs),
(510,380,o),
(486,471,o),
(330,471,cs),
(295,471,l),
(342,707,l),
(81,707,l),
(52,562,l),
(158,562,l)
);
},
{
closed = 1;
nodes = (
(229,144,l),
(266,326,l),
(297,326,ls),
(329,326,o),
(337,299,o),
(324,234,cs),
(312,173,o),
(292,144,o),
(261,144,cs)
);
}
);
width = 519;
},
{
anchors = (
{
name = t.uni0308_1;
position = "{284, 707}";
}
);
layerId = "696351B7-15B4-4052-A598-BDFCA23AB282";
shapes = (
{
closed = 1;
nodes = (
(77,0,l),
(337,0,ls),
(474,0,o),
(579,80,o),
(608,223,cs),
(636,363,o),
(557,439,o),
(425,439,cs),
(297,439,l),
(351,707,l),
(81,707,l),
(58,590,l),
(195,590,l)
);
},
{
closed = 1;
nodes = (
(233,117,l),
(274,321,l),
(394,321,ls),
(457,321,o),
(489,284,o),
(477,223,cs),
(463,155,o),
(419,117,o),
(353,117,cs)
);
}
);
width = 669;
},
{
anchors = (
{
name = t.uni0308_1;
position = "{194, 714}";
}
);
layerId = "019F6BD1-2D34-4D79-B1CB-A728BCCF901E";
shapes = (
{
closed = 1;
nodes = (
(70,0,l),
(257,0,ls),
(403,0,o),
(463,85,o),
(491,223,cs),
(518,360,o),
(491,446,o),
(346,446,cs),
(282,446,l),
(334,707,l),
(81,707,l),
(58,593,l),
(189,593,l)
);
},
{
closed = 1;
nodes = (
(215,113,l),
(259,332,l),
(319,332,ls),
(369,332,o),
(383,299,o),
(368,223,cs),
(353,147,o),
(325,113,o),
(275,113,cs)
);
}
);
width = 541;
},
{
anchors = (
{
name = t.uni0308_1;
position = "{284, 707}";
}
);
layerId = "D1347CB1-B206-4E52-85B5-29AA6A54951E";
shapes = (
{
closed = 1;
nodes = (
(128,0,l),
(377,0,ls),
(509,0,o),
(609,72,o),
(637,211,cs),
(664,346,o),
(586,415,o),
(460,415,cs),
(285,415,l),
(343,707,l),
(81,707,l),
(68,640,l),
(256,640,l)
);
},
{
closed = 1;
nodes = (
(215,68,l),
(271,348,l),
(441,348,ls),
(539,348,o),
(581,300,o),
(563,211,cs),
(544,118,o),
(483,68,o),
(385,68,cs)
);
}
);
width = 715;
},
{
anchors = (
{
name = t.uni0308_1;
position = "{121, 721}";
}
);
layerId = "77B4CD6B-5B31-4FA5-B8A2-6C2FAC774875";
shapes = (
{
closed = 1;
nodes = (
(108,0,l),
(288,0,ls),
(418,0,o),
(481,82,o),
(506,206,cs),
(531,330,o),
(497,408,o),
(369,408,cs),
(263,408,l),
(322,707,l),
(81,707,l),
(68,640,l),
(235,640,l)
);
},
{
closed = 1;
nodes = (
(194,67,l),
(249,341,l),
(352,341,ls),
(426,341,o),
(453,299,o),
(434,206,cs),
(415,109,o),
(372,67,o),
(297,67,cs)
);
}
);
width = 573;
},
{
anchors = (
{
name = t.uni0308_1;
position = "{284, 707}";
}
);
layerId = "9799992C-39FB-428C-A67B-0675C2B8D195";
shapes = (
{
closed = 1;
nodes = (
(162,0,l),
(404,0,ls),
(531,0,o),
(629,68,o),
(656,203,cs),
(682,335,o),
(605,399,o),
(483,399,cs),
(276,399,l),
(338,707,l),
(81,707,l),
(74,673,l),
(297,673,l)
);
},
{
closed = 1;
nodes = (
(204,35,l),
(270,366,l),
(472,366,ls),
(594,366,o),
(643,311,o),
(621,203,cs),
(599,92,o),
(527,35,o),
(406,35,cs)
);
}
);
width = 746;
},
{
anchors = (
{
name = t.uni0308_1;
position = "{72, 726}";
}
);
layerId = "4C505698-BF71-4ADC-851F-163946829AF6";
shapes = (
{
closed = 1;
nodes = (
(132,0,l),
(308,0,ls),
(430,0,o),
(494,79,o),
(517,195,cs),
(540,310,o),
(503,383,o),
(385,383,cs),
(250,383,l),
(315,707,l),
(81,707,l),
(74,671,l),
(266,671,l)
);
},
{
closed = 1;
nodes = (
(180,36,l),
(243,347,l),
(374,347,ls),
(465,347,o),
(499,299,o),
(478,195,cs),
(456,83,o),
(406,36,o),
(312,36,cs)
);
}
);
width = 595;
}
);
unicode = 1066;
},
{
glyphname = Hbar;
layers = (
{
layerId = "D5E7FB56-198D-4A8E-BEAA-3EF32E5285DB";
shapes = (
{
closed = 1;
nodes = (
(36,524,l),
(652,524,l),
(682,676,l),
(66,676,l)
);
},
{
closed = 1;
nodes = (
(-15,0,l),
(156,0,l),
(212,280,l),
(379,280,l),
(323,0,l),
(493,0,l),
(635,707,l),
(464,707,l),
(409,430,l),
(242,430,l),
(298,707,l),
(126,707,l)
);
}
);
width = 598;
},
{
layerId = "ADD2B973-A810-4856-BC17-7BF1C9DE9A02";
shapes = (
{
closed = 1;
nodes = (
(39,521,l),
(495,521,l),
(524,666,l),
(68,666,l)
);
},
{
closed = 1;
nodes = (
(-29,0,l),
(128,0,l),
(185,287,l),
(260,287,l),
(203,0,l),
(360,0,l),
(501,707,l),
(344,707,l),
(289,431,l),
(214,431,l),
(269,707,l),
(112,707,l)
);
}
);
width = 450;
},
{
layerId = "696351B7-15B4-4052-A598-BDFCA23AB282";
shapes = (
{
closed = 1;
nodes = (
(52,515,l),
(642,515,l),
(666,633,l),
(76,633,l)
);
},
{
closed = 1;
nodes = (
(-2,0,l),
(130,0,l),
(190,299,l),
(419,299,l),
(360,0,l),
(491,0,l),
(632,707,l),
(501,707,l),
(443,416,l),
(214,416,l),
(272,707,l),
(139,707,l)
);
}
);
width = 609;
},
{
layerId = "019F6BD1-2D34-4D79-B1CB-A728BCCF901E";
shapes = (
{
closed = 1;
nodes = (
(52,518,l),
(495,518,l),
(517,631,l),
(74,631,l)
);
},
{
closed = 1;
nodes = (
(-18,0,l),
(105,0,l),
(166,303,l),
(296,303,l),
(235,0,l),
(359,0,l),
(500,707,l),
(377,707,l),
(318,416,l),
(188,416,l),
(246,707,l),
(123,707,l)
);
}
);
width = 460;
},
{
layerId = "D1347CB1-B206-4E52-85B5-29AA6A54951E";
shapes = (
{
closed = 1;
nodes = (
(77,502,l),
(627,502,l),
(641,569,l),
(90,569,l)
);
},
{
closed = 1;
nodes = (
(18,0,l),
(91,0,l),
(157,328,l),
(480,328,l),
(414,0,l),
(488,0,l),
(629,707,l),
(556,707,l),
(493,395,l),
(170,395,l),
(232,707,l),
(159,707,l)
);
}
);
width = 625;
},
{
layerId = "77B4CD6B-5B31-4FA5-B8A2-6C2FAC774875";
shapes = (
{
closed = 1;
nodes = (
(71,513,l),
(494,513,l),
(507,579,l),
(84,579,l)
);
},
{
closed = 1;
nodes = (
(-2,0,l),
(71,0,l),
(136,327,l),
(349,327,l),
(284,0,l),
(357,0,l),
(499,707,l),
(425,707,l),
(362,393,l),
(150,393,l),
(212,707,l),
(139,707,l)
);
}
);
width = 475;
},
{
layerId = "9799992C-39FB-428C-A67B-0675C2B8D195";
shapes = (
{
closed = 1;
nodes = (
(93,493,l),
(617,493,l),
(624,526,l),
(100,526,l)
);
},
{
closed = 1;
nodes = (
(31,0,l),
(65,0,l),
(134,347,l),
(521,347,l),
(451,0,l),
(486,0,l),
(627,707,l),
(593,707,l),
(527,381,l),
(141,381,l),
(206,707,l),
(172,707,l)
);
}
);
width = 636;
},
{
layerId = "4C505698-BF71-4ADC-851F-163946829AF6";
shapes = (
{
closed = 1;
nodes = (
(84,510,l),
(493,510,l),
(500,544,l),
(91,544,l)
);
},
{
closed = 1;
nodes = (
(8,0,l),
(48,0,l),
(117,343,l),
(385,343,l),
(316,0,l),
(356,0,l),
(497,707,l),
(457,707,l),
(392,378,l),
(124,378,l),
(190,707,l),
(150,707,l)
);
}
);
width = 485;
}
);
unicode = 294;
},
{
glyphname = I;
layers = (
{
anchors = (
{
name = b.uni0324_2;
position = "{67, 0}";
},
{
name = m.uni0308_1;
position = "{67, 700}";
},
{
name = m.uni0328;
position = "{119, 10}";
}
);
layerId = "D5E7FB56-198D-4A8E-BEAA-3EF32E5285DB";
shapes = (
{
closed = 1;
nodes = (
(-24,0,l),
(146,0,l),
(286,700,l),
(116,700,l)
);
}
);
width = 243;
},
{
anchors = (
{
name = b.uni0324_2;
position = "{65, 0}";
},
{
name = m.uni0308_1;
position = "{65, 700}";
},
{
name = m.uni0328;
position = "{128, 10}";
},
{
name = b.uni0324.3;
position = "{67, 0}";
},
{
name = m.uni0308.2;
position = "{67, 700}";
},
{
name = m.uni0328.1;
position = "{119, 10}";
}
);
layerId = "ADD2B973-A810-4856-BC17-7BF1C9DE9A02";
shapes = (
{
closed = 1;
nodes = (
(-30,0,l),
(127,0,l),
(267,700,l),
(110,700,l)
);
}
);
width = 216;
},
{
anchors = (
{
name = b.uni0324_2;
position = "{67, 0}";
},
{
name = m.uni0308_1;
position = "{67, 700}";
},
{
name = m.uni0328;
position = "{119, 10}";
}
);
layerId = "696351B7-15B4-4052-A598-BDFCA23AB282";
shapes = (
{
closed = 1;
nodes = (
(-5,0,l),
(126,0,l),
(266,700,l),
(134,700,l)
);
}
);
width = 240;
},
{
anchors = (
{
name = b.uni0324_2;
position = "{50, 0}";
},
{
name = m.uni0308_1;
position = "{50, 700}";
},
{
name = m.uni0328;
position = "{112, 10}";
}
);
layerId = "019F6BD1-2D34-4D79-B1CB-A728BCCF901E";
shapes = (
{
closed = 1;
nodes = (
(-17,0,l),
(105,0,l),
(245,700,l),
(123,700,l)
);
}
);
width = 208;
},
{
anchors = (
{
name = b.uni0324_2;
position = "{67, 0}";
},
{
name = m.uni0308_1;
position = "{67, 700}";
},
{
name = m.uni0328;
position = "{119, 10}";
}
);
layerId = "D1347CB1-B206-4E52-85B5-29AA6A54951E";
shapes = (
{
closed = 1;
nodes = (
(22,0,l),
(95,0,l),
(235,700,l),
(162,700,l)
);
}
);
width = 236;
},
{
anchors = (
{
name = b.uni0324_2;
position = "{27, 0}";
},
{
name = m.uni0308_1;
position = "{27, 700}";
},
{
name = m.uni0328;
position = "{88, 10}";
}
);
layerId = "77B4CD6B-5B31-4FA5-B8A2-6C2FAC774875";
shapes = (
{
closed = 1;
nodes = (
(2,0,l),
(73,0,l),
(213,700,l),
(142,700,l)
);
}
);
width = 194;
},
{
anchors = (
{
name = b.uni0324_2;
position = "{67, 0}";
},
{
name = m.uni0308_1;
position = "{67, 700}";
},
{
name = m.uni0328;
position = "{119, 10}";
}
);
layerId = "9799992C-39FB-428C-A67B-0675C2B8D195";
shapes = (
{
closed = 1;
nodes = (
(40,0,l),
(75,0,l),
(215,700,l),
(180,700,l)
);
}
);
width = 233;
},
{
anchors = (
{
name = b.uni0324_2;
position = "{12, 0}";
},
{
name = m.uni0308_1;
position = "{12, 700}";
},
{
name = m.uni0328;
position = "{72, 10}";
}
);
layerId = "4C505698-BF71-4ADC-851F-163946829AF6";
shapes = (
{
closed = 1;
nodes = (
(15,0,l),
(52,0,l),
(192,700,l),
(154,700,l)
);
}
);
width = 185;
}
);
unicode = 73;
},
{
glyphname = Icyr;
layers = (
{
anchors = (
{
name = t.uni0308_1;
position = "{265, 707}";
}
);
layerId = "D5E7FB56-198D-4A8E-BEAA-3EF32E5285DB";
shapes = (
{
closed = 1;
nodes = (
(-19,0,l),
(151,0,l),
(409,356,l),
(338,0,l),
(509,0,l),
(650,707,l),
(479,707,l),
(221,347,l),
(293,707,l),
(122,707,l)
);
}
);
width = 610;
},
{
anchors = (
{
name = t.uni0308_1;
position = "{224, 709}";
},
{
name = t.uni0308.2;
position = "{265, 707}";
}
);
layerId = "ADD2B973-A810-4856-BC17-7BF1C9DE9A02";
shapes = (
{
closed = 1;
nodes = (
(-32,0,l),
(118,0,l),
(265,263,l),
(212,0,l),
(369,0,l),
(510,707,l),
(360,707,l),
(208,416,l),
(266,707,l),
(109,707,l)
);
}
);
width = 452;
},
{
anchors = (
{
name = t.uni0308_1;
position = "{265, 707}";
}
);
layerId = "696351B7-15B4-4052-A598-BDFCA23AB282";
shapes = (
{
closed = 1;
nodes = (
(-5,0,l),
(126,0,l),
(469,441,l),
(381,0,l),
(513,0,l),
(654,707,l),
(522,707,l),
(179,264,l),
(267,707,l),
(136,707,l)
);
}
);
width = 627;
},
{
anchors = (
{
name = t.uni0308_1;
position = "{166, 714}";
}
);
layerId = "019F6BD1-2D34-4D79-B1CB-A728BCCF901E";
shapes = (
{
closed = 1;
nodes = (
(-21,0,l),
(103,0,l),
(322,377,l),
(247,0,l),
(370,0,l),
(511,707,l),
(388,707,l),
(165,313,l),
(244,707,l),
(120,707,l)
);
}
);
width = 466;
},
{
anchors = (
{
name = t.uni0308_1;
position = "{265, 707}";
}
);
layerId = "D1347CB1-B206-4E52-85B5-29AA6A54951E";
shapes = (
{
closed = 1;
nodes = (
(15,0,l),
(88,0,l),
(560,569,l),
(446,0,l),
(519,0,l),
(661,707,l),
(587,707,l),
(116,139,l),
(229,707,l),
(156,707,l)
);
}
);
width = 653;
},
{
anchors = (
{
name = t.uni0308_1;
position = "{79, 721}";
}
);
layerId = "77B4CD6B-5B31-4FA5-B8A2-6C2FAC774875";
shapes = (
{
closed = 1;
nodes = (
(-4,0,l),
(79,0,l),
(408,548,l),
(298,0,l),
(372,0,l),
(513,707,l),
(430,707,l),
(101,159,l),
(210,707,l),
(137,707,l)
);
}
);
width = 487;
},
{
anchors = (
{
name = t.uni0308_1;
position = "{265, 707}";
}
);
layerId = "9799992C-39FB-428C-A67B-0675C2B8D195";
shapes = (
{
closed = 1;
nodes = (
(28,0,l),
(63,0,l),
(620,654,l),
(489,0,l),
(523,0,l),
(664,707,l),
(630,707,l),
(74,56,l),
(204,707,l),
(170,707,l)
);
}
);
width = 671;
},
{
anchors = (
{
name = t.uni0308_1;
position = "{21, 726}";
}
);
layerId = "4C505698-BF71-4ADC-851F-163946829AF6";
shapes = (
{
closed = 1;
nodes = (
(6,0,l),
(63,0,l),
(465,662,l),
(333,0,l),
(373,0,l),
(514,707,l),
(457,707,l),
(58,56,l),
(188,707,l),
(148,707,l)
);
}
);
width = 501;
}
);
unicode = 1048;
},
{
glyphname = J;
layers = (
{
anchors = (
{
name = b.uni0324_2;
position = "{229, 0}";
},
{
name = m.uni0308_1;
position = "{264, 700}";
}
);
layerId = "D5E7FB56-198D-4A8E-BEAA-3EF32E5285DB";
shapes = (
{
closed = 1;
nodes = (
(-28,0,l),
(149,0,ls),
(262,0,o),
(341,64,o),
(364,179,cs),
(468,700,l),
(296,700,l),
(198,210,ls),
(189,163,o),
(174,151,o),
(135,151,cs),
(2,151,l)
);
},
{
closed = 1;
nodes = (
(468,700,l),
(214,700,l),
(183,549,l),
(438,549,l)
);
}
);
width = 434;
},
{
anchors = (
{
name = b.uni0324_2;
position = "{209, 0}";
},
{
name = m.uni0308_1;
position = "{242, 700}";
}
);
layerId = "ADD2B973-A810-4856-BC17-7BF1C9DE9A02";
shapes = (
{
closed = 1;
nodes = (
(-40,0,l),
(69,0,ls),
(210,0,o),
(288,62,o),
(313,187,cs),
(415,700,l),
(259,700,l),
(160,205,ls),
(152,165,o),
(128,145,o),
(89,145,cs),
(-11,145,l)
);
},
{
closed = 1;
nodes = (
(415,700,l),
(201,700,l),
(172,555,l),
(386,555,l)
);
}
);
width = 365;
},
{
anchors = (
{
name = b.uni0324_2;
position = "{229, 0}";
},
{
name = m.uni0308_1;
position = "{264, 700}";
}
);
layerId = "696351B7-15B4-4052-A598-BDFCA23AB282";
shapes = (
{
closed = 1;
nodes = (
(-28,0,l),
(164,0,ls),
(265,0,o),
(333,58,o),
(354,162,cs),
(462,700,l),
(329,700,l),
(226,184,ls),
(216,135,o),
(199,118,o),
(157,118,cs),
(-5,118,l)
);
},
{
closed = 1;
nodes = (
(462,700,l),
(226,700,l),
(203,582,l),
(438,582,l)
);
}
);
width = 441;
},
{
anchors = (
{
name = b.uni0324_2;
position = "{151, 0}";
},
{
name = m.uni0308_1;
position = "{183, 700}";
}
);
layerId = "019F6BD1-2D34-4D79-B1CB-A728BCCF901E";
shapes = (
{
closed = 1;
nodes = (
(-35,0,l),
(75,0,ls),
(196,0,o),
(266,56,o),
(288,168,cs),
(395,700,l),
(271,700,l),
(168,182,ls),
(159,137,o),
(132,114,o),
(90,114,cs),
(-13,114,l)
);
},
{
closed = 1;
nodes = (
(395,700,l),
(196,700,l),
(173,586,l),
(372,586,l)
);
}
);
width = 357;
},
{
anchors = (
{
name = b.uni0324_2;
position = "{229, 0}";
},
{
name = m.uni0308_1;
position = "{264, 700}";
}
);
layerId = "D1347CB1-B206-4E52-85B5-29AA6A54951E";
shapes = (
{
closed = 1;
nodes = (
(-28,0,l),
(186,0,ls),
(268,0,o),
(321,48,o),
(339,136,cs),
(452,700,l),
(379,700,l),
(268,145,ls),
(257,92,o),
(235,68,o),
(189,68,cs),
(-15,68,l)
);
},
{
closed = 1;
nodes = (
(452,700,l),
(246,700,l),
(232,632,l),
(438,632,l)
);
}
);
width = 453;
},
{
anchors = (
{
name = b.uni0324_2;
position = "{64, 0}";
},
{
name = m.uni0308_1;
position = "{94, 700}";
}
);
layerId = "77B4CD6B-5B31-4FA5-B8A2-6C2FAC774875";
shapes = (
{
closed = 1;
nodes = (
(-28,0,l),
(85,0,ls),
(175,0,o),
(234,48,o),
(252,140,cs),
(364,700,l),
(290,700,l),
(180,148,ls),
(169,95,o),
(138,67,o),
(92,67,cs),
(-15,67,l)
);
},
{
closed = 1;
nodes = (
(364,700,l),
(187,700,l),
(174,633,l),
(350,633,l)
);
}
);
width = 344;
},
{
anchors = (
{
name = b.uni0324_2;
position = "{229, 0}";
},
{
name = m.uni0308_1;
position = "{264, 700}";
}
);
layerId = "9799992C-39FB-428C-A67B-0675C2B8D195";
shapes = (
{
closed = 1;
nodes = (
(-28,0,l),
(201,0,ls),
(272,0,o),
(314,42,o),
(329,119,cs),
(445,700,l),
(413,700,l),
(296,119,ls),
(285,63,o),
(259,35,o),
(211,35,cs),
(-21,35,l)
);
},
{
closed = 1;
nodes = (
(445,700,l),
(259,700,l),
(252,665,l),
(438,665,l)
);
}
);
width = 461;
},
{
anchors = (
{
name = b.uni0324_2;
position = "{6, 0}";
},
{
name = m.uni0308_1;
position = "{35, 700}";
}
);
layerId = "4C505698-BF71-4ADC-851F-163946829AF6";
shapes = (
{
closed = 1;
nodes = (
(-24,0,l),
(91,0,ls),
(161,0,o),
(211,42,o),
(227,121,cs),
(343,700,l),
(302,700,l),
(188,125,ls),
(176,66,o),
(141,36,o),
(93,36,cs),
(-16,36,l)
);
},
{
closed = 1;
nodes = (
(343,700,l),
(182,700,l),
(175,664,l),
(335,664,l)
);
}
);
width = 336;
}
);
leftKerningGroup = public.kern2.R_J;
unicode = 74;
},
{
glyphname = J.ss04;
layers = (
{
anchors = (
{
name = b.uni0324_2;
position = "{109, 0}";
},
{
name = m.uni0308_1;
position = "{144, 700}";
}
);
layerId = "D5E7FB56-198D-4A8E-BEAA-3EF32E5285DB";
shapes = (
{
closed = 1;
nodes = (
(-45,0,l),
(54,0,ls),
(167,0,o),
(246,64,o),
(269,179,cs),
(373,700,l),
(200,700,l),
(102,210,ls),
(93,163,o),
(80,151,o),
(41,151,cs),
(-15,151,l)
);
}
);
width = 338;
},
{
anchors = (
{
name = b.uni0324_2;
position = "{102, 0}";
},
{
name = m.uni0308_1;
position = "{135, 695}";
}
);
layerId = "ADD2B973-A810-4856-BC17-7BF1C9DE9A02";
shapes = (
{
closed = 1;
nodes = (
(-53,0,l),
(-31,0,ls),
(109,0,o),
(187,62,o),
(212,187,cs),
(316,707,l),
(159,707,l),
(59,205,ls),
(51,165,o),
(28,145,o),
(-11,145,cs),
(-24,145,l)
);
}
);
width = 265;
},
{
anchors = (
{
name = b.uni0324_2;
position = "{109, 0}";
},
{
name = m.uni0308_1;
position = "{144, 700}";
}
);
layerId = "696351B7-15B4-4052-A598-BDFCA23AB282";
shapes = (
{
closed = 1;
nodes = (
(-46,0,l),
(48,0,ls),
(149,0,o),
(217,58,o),
(238,162,cs),
(345,700,l),
(213,700,l),
(110,184,ls),
(100,135,o),
(83,118,o),
(41,118,cs),
(-23,118,l)
);
}
);
width = 325;
},
{
anchors = (
{
name = b.uni0324_2;
position = "{85, 0}";
},
{
name = m.uni0308_1;
position = "{117, 700}";
}
);
layerId = "019F6BD1-2D34-4D79-B1CB-A728BCCF901E";
shapes = (
{
closed = 1;
nodes = (
(-54,0,l),
(-19,0,ls),
(102,0,o),
(172,56,o),
(194,168,cs),
(301,707,l),
(178,707,l),
(73,182,ls),
(64,137,o),
(38,114,o),
(-4,114,cs),
(-31,114,l)
);
}
);
width = 262;
},
{
anchors = (
{
name = b.uni0324_2;
position = "{109, 0}";
},
{
name = m.uni0308_1;
position = "{144, 700}";
}
);
layerId = "D1347CB1-B206-4E52-85B5-29AA6A54951E";
shapes = (
{
closed = 1;
nodes = (
(-48,0,l),
(39,0,ls),
(121,0,o),
(174,48,o),
(192,136,cs),
(304,700,l),
(232,700,l),
(121,145,ls),
(110,92,o),
(88,68,o),
(42,68,cs),
(-35,68,l)
);
}
);
width = 306;
},
{
anchors = (
{
name = b.uni0324_2;
position = "{60, 0}";
},
{
name = m.uni0308_1;
position = "{90, 707}";
}
);
layerId = "77B4CD6B-5B31-4FA5-B8A2-6C2FAC774875";
shapes = (
{
closed = 1;
nodes = (
(-55,0,l),
(-2,0,ls),
(88,0,o),
(148,48,o),
(166,140,cs),
(279,707,l),
(205,707,l),
(94,148,ls),
(83,95,o),
(52,67,o),
(6,67,cs),
(-42,67,l)
);
}
);
width = 258;
},
{
anchors = (
{
name = b.uni0324_2;
position = "{109, 0}";
},
{
name = m.uni0308_1;
position = "{144, 700}";
}
);
layerId = "9799992C-39FB-428C-A67B-0675C2B8D195";
shapes = (
{
closed = 1;
nodes = (
(-49,0,l),
(33,0,ls),
(104,0,o),
(146,42,o),
(161,119,cs),
(277,700,l),
(245,700,l),
(129,119,ls),
(118,63,o),
(90,35,o),
(42,35,cs),
(-42,35,l)
);
}
);
width = 293;
},
{
anchors = (
{
name = b.uni0324_2;
position = "{43, 0}";
},
{
name = m.uni0308_1;
position = "{72, 712}";
}
);
layerId = "4C505698-BF71-4ADC-851F-163946829AF6";
shapes = (
{
closed = 1;
nodes = (
(-56,0,l),
(10,0,ls),
(81,0,o),
(131,42,o),
(147,121,cs),
(264,707,l),
(224,707,l),
(108,125,ls),
(96,66,o),
(61,36,o),
(13,36,cs),
(-49,36,l)
);
}
);
width = 255;
}
);
leftKerningGroup = public.kern2.R_J;
},
{
glyphname = K;
layers = (
{
anchors = (
{
name = b.uni0324_2;
position = "{252, 0}";
},
{
name = m.uni0308_1;
position = "{252, 700}";
}
);
layerId = "D5E7FB56-198D-4A8E-BEAA-3EF32E5285DB";
shapes = (
{
closed = 1;
nodes = (
(551,0,l),
(399,432,l),
(260,289,l),
(355,0,l)
);
},
{
closed = 1;
nodes = (
(-19,0,l),
(152,0,l),
(292,700,l),
(121,700,l)
);
},
{
closed = 1;
nodes = (
(226,418,l),
(180,188,l),
(683,700,l),
(479,700,l)
);
}
);
width = 615;
},
{
anchors = (
{
name = b.uni0324_2;
position = "{229, 0}";
},
{
name = m.uni0308_1;
position = "{229, 700}";
},
{
name = b.uni0324.3;
position = "{252, 0}";
},
{
name = m.uni0308.2;
position = "{252, 700}";
}
);
layerId = "ADD2B973-A810-4856-BC17-7BF1C9DE9A02";
shapes = (
{
closed = 1;
nodes = (
(396,0,l),
(326,429,l),
(201,241,l),
(231,0,l)
);
},
{
closed = 1;
nodes = (
(-32,0,l),
(123,0,l),
(263,700,l),
(108,700,l)
);
},
{
closed = 1;
nodes = (
(197,399,l),
(143,127,l),
(515,700,l),
(361,700,l)
);
}
);
width = 458;
},
{
anchors = (
{
name = b.uni0324_2;
position = "{252, 0}";
},
{
name = m.uni0308_1;
position = "{252, 700}";
}
);
layerId = "696351B7-15B4-4052-A598-BDFCA23AB282";
shapes = (
{
closed = 1;
nodes = (
(541,0,l),
(382,437,l),
(276,328,l),
(390,0,l)
);
},
{
closed = 1;
nodes = (
(-5,0,l),
(127,0,l),
(267,700,l),
(134,700,l)
);
},
{
closed = 1;
nodes = (
(190,364,l),
(154,186,l),
(664,700,l),
(506,700,l)
);
}
);
width = 606;
},
{
anchors = (
{
name = b.uni0324_2;
position = "{182, 0}";
},
{
name = m.uni0308_1;
position = "{182, 700}";
}
);
layerId = "019F6BD1-2D34-4D79-B1CB-A728BCCF901E";
shapes = (
{
closed = 1;
nodes = (
(395,0,l),
(308,431,l),
(209,288,l),
(263,0,l)
);
},
{
closed = 1;
nodes = (
(-21,0,l),
(102,0,l),
(242,700,l),
(119,700,l)
);
},
{
closed = 1;
nodes = (
(167,359,l),
(124,146,l),
(512,700,l),
(389,700,l)
);
}
);
width = 458;
},
{
anchors = (
{
name = b.uni0324_2;
position = "{252, 0}";
},
{
name = m.uni0308_1;
position = "{252, 700}";
}
);
layerId = "D1347CB1-B206-4E52-85B5-29AA6A54951E";
shapes = (
{
closed = 1;
nodes = (
(526,0,l),
(357,445,l),
(299,387,l),
(441,0,l)
);
},
{
closed = 1;
nodes = (
(15,0,l),
(88,0,l),
(228,700,l),
(154,700,l)
);
},
{
closed = 1;
nodes = (
(135,283,l),
(115,183,l),
(635,700,l),
(547,700,l)
);
}
);
width = 593;
},
{
anchors = (
{
name = b.uni0324_2;
position = "{112, 0}";
},
{
name = m.uni0308_1;
position = "{112, 700}";
}
);
layerId = "77B4CD6B-5B31-4FA5-B8A2-6C2FAC774875";
shapes = (
{
closed = 1;
nodes = (
(392,0,l),
(281,434,l),
(222,358,l),
(312,0,l)
);
},
{
closed = 1;
nodes = (
(-4,0,l),
(69,0,l),
(209,700,l),
(135,700,l)
);
},
{
closed = 1;
nodes = (
(121,299,l),
(96,175,l),
(508,700,l),
(430,700,l)
);
}
);
width = 457;
},
{
anchors = (
{
name = b.uni0324_2;
position = "{252, 0}";
},
{
name = m.uni0308_1;
position = "{252, 700}";
}
);
layerId = "9799992C-39FB-428C-A67B-0675C2B8D195";
shapes = (
{
closed = 1;
nodes = (
(516,0,l),
(341,450,l),
(314,426,l),
(475,0,l)
);
},
{
closed = 1;
nodes = (
(28,0,l),
(63,0,l),
(202,700,l),
(168,700,l)
);
},
{
closed = 1;
nodes = (
(99,229,l),
(89,181,l),
(615,700,l),
(575,700,l)
);
}
);
width = 584;
},
{
anchors = (
{
name = b.uni0324_2;
position = "{65, 0}";
},
{
name = m.uni0308_1;
position = "{65, 700}";
}
);
layerId = "4C505698-BF71-4ADC-851F-163946829AF6";
shapes = (
{
closed = 1;
nodes = (
(391,0,l),
(263,436,l),
(230,405,l),
(345,0,l)
);
},
{
closed = 1;
nodes = (
(6,0,l),
(48,0,l),
(187,700,l),
(146,700,l)
);
},
{
closed = 1;
nodes = (
(91,259,l),
(78,194,l),
(505,700,l),
(458,700,l)
);
}
);
width = 457;
}
);
unicode = 75;
},
{
glyphname = Kacyr;
layers = (
{
anchors = (
{
name = b.uni0324;
position = "{252, 0}";
},
{
name = t.uni0308_1;
position = "{252, 707}";
}
);
layerId = "D5E7FB56-198D-4A8E-BEAA-3EF32E5285DB";
shapes = (
{
closed = 1;
nodes = (
(-19,0,l),
(152,0,l),
(208,280,l),
(239,280,l),
(355,0,l),
(551,0,l),
(386,399,l),
(685,707,l),
(480,707,l),
(233,430,l),
(238,430,l),
(294,707,l),
(122,707,l)
);
}
);
width = 615;
},
{
anchors = (
{
name = b.uni0324;
position = "{229, 0}";
},
{
name = t.uni0308_1;
position = "{229, 709}";
},
{
name = b.uni0324.1;
position = "{252, 0}";
},
{
name = t.uni0308.2;
position = "{252, 707}";
}
);
layerId = "ADD2B973-A810-4856-BC17-7BF1C9DE9A02";
shapes = (
{
closed = 1;
nodes = (
(-32,0,l),
(123,0,l),
(180,287,l),
(206,287,l),
(231,0,l),
(396,0,l),
(346,408,l),
(534,707,l),
(380,707,l),
(205,431,l),
(209,431,l),
(264,707,l),
(109,707,l)
);
}
);
width = 458;
},
{
anchors = (
{
name = b.uni0324;
position = "{252, 0}";
},
{
name = t.uni0308_1;
position = "{252, 707}";
}
);
layerId = "696351B7-15B4-4052-A598-BDFCA23AB282";
shapes = (
{
closed = 1;
nodes = (
(-5,0,l),
(127,0,l),
(187,299,l),
(246,299,l),
(390,0,l),
(541,0,l),
(359,394,l),
(665,707,l),
(507,707,l),
(238,416,l),
(210,416,l),
(268,707,l),
(136,707,l)
);
}
);
width = 606;
},
{
anchors = (
{
name = b.uni0324;
position = "{182, 0}";
},
{
name = t.uni0308_1;
position = "{182, 714}";
}
);
layerId = "019F6BD1-2D34-4D79-B1CB-A728BCCF901E";
shapes = (
{
closed = 1;
nodes = (
(-21,0,l),
(102,0,l),
(162,303,l),
(203,303,l),
(263,0,l),
(395,0,l),
(316,390,l),
(524,707,l),
(401,707,l),
(211,416,l),
(185,416,l),
(243,707,l),
(120,707,l)
);
}
);
width = 458;
},
{
anchors = (
{
name = b.uni0324;
position = "{252, 0}";
},
{
name = t.uni0308_1;
position = "{252, 707}";
}
);
layerId = "D1347CB1-B206-4E52-85B5-29AA6A54951E";
shapes = (
{
closed = 1;
nodes = (
(15,0,l),
(88,0,l),
(154,328,l),
(259,328,l),
(441,0,l),
(526,0,l),
(317,386,l),
(636,707,l),
(549,707,l),
(245,395,l),
(167,395,l),
(229,707,l),
(156,707,l)
);
}
);
width = 593;
},
{
anchors = (
{
name = b.uni0324;
position = "{112, 0}";
},
{
name = t.uni0308_1;
position = "{112, 721}";
}
);
layerId = "77B4CD6B-5B31-4FA5-B8A2-6C2FAC774875";
shapes = (
{
closed = 1;
nodes = (
(-4,0,l),
(69,0,l),
(134,327,l),
(200,327,l),
(312,0,l),
(392,0,l),
(271,363,l),
(509,707,l),
(432,707,l),
(220,393,l),
(148,393,l),
(210,707,l),
(137,707,l)
);
}
);
width = 457;
},
{
anchors = (
{
name = b.uni0324;
position = "{252, 0}";
},
{
name = t.uni0308_1;
position = "{252, 707}";
}
);
layerId = "9799992C-39FB-428C-A67B-0675C2B8D195";
shapes = (
{
closed = 1;
nodes = (
(28,0,l),
(63,0,l),
(132,347,l),
(266,347,l),
(475,0,l),
(516,0,l),
(290,381,l),
(616,707,l),
(576,707,l),
(250,381,l),
(139,381,l),
(204,707,l),
(170,707,l)
);
}
);
width = 584;
},
{
anchors = (
{
name = b.uni0324;
position = "{65, 0}";
},
{
name = t.uni0308_1;
position = "{65, 726}";
}
);
layerId = "4C505698-BF71-4ADC-851F-163946829AF6";
shapes = (
{
closed = 1;
nodes = (
(6,0,l),
(48,0,l),
(116,343,l),
(197,343,l),
(345,0,l),
(391,0,l),
(241,345,l),
(500,707,l),
(452,707,l),
(226,378,l),
(123,378,l),
(189,707,l),
(148,707,l)
);
}
);
width = 457;
}
);
unicode = 1050;
},
{
glyphname = Kaisymbol;
layers = (
{
layerId = "D5E7FB56-198D-4A8E-BEAA-3EF32E5285DB";
shapes = (
{
closed = 1;
nodes = (
(93,-200,l),
(289,-200,l),
(554,0,l),
(358,0,l)
);
},
{
alignment = -1;
ref = K;
}
);
width = 632;
},
{
layerId = "ADD2B973-A810-4856-BC17-7BF1C9DE9A02";
shapes = (
{
closed = 1;
nodes = (
(-3,-200,l),
(163,-200,l),
(399,0,l),
(233,0,l)
);
},
{
alignment = -1;
ref = K;
}
);
width = 470;
},
{
layerId = "696351B7-15B4-4052-A598-BDFCA23AB282";
shapes = (
{
closed = 1;
nodes = (
(138,-200,l),
(290,-200,l),
(546,0,l),
(394,0,l)
);
},
{
alignment = -1;
ref = K;
}
);
width = 624;
},
{
layerId = "019F6BD1-2D34-4D79-B1CB-A728BCCF901E";
shapes = (
{
closed = 1;
nodes = (
(60,-200,l),
(191,-200,l),
(398,0,l),
(266,0,l)
);
},
{
alignment = -1;
ref = K;
}
);
width = 471;
},
{
layerId = "D1347CB1-B206-4E52-85B5-29AA6A54951E";
shapes = (
{
closed = 1;
nodes = (
(260,-200,l),
(339,-200,l),
(526,0,l),
(447,0,l)
);
},
{
alignment = -1;
ref = K;
}
);
width = 612;
},
{
layerId = "77B4CD6B-5B31-4FA5-B8A2-6C2FAC774875";
shapes = (
{
closed = 1;
nodes = (
(110,-200,l),
(190,-200,l),
(397,0,l),
(316,0,l)
);
},
{
alignment = -1;
ref = K;
}
);
width = 472;
},
{
layerId = "9799992C-39FB-428C-A67B-0675C2B8D195";
shapes = (
{
closed = 1;
nodes = (
(305,-200,l),
(349,-200,l),
(526,0,l),
(482,0,l)
);
},
{
alignment = -1;
ref = K;
}
);
width = 604;
},
{
layerId = "4C505698-BF71-4ADC-851F-163946829AF6";
shapes = (
{
closed = 1;
nodes = (
(163,-200,l),
(207,-200,l),
(394,0,l),
(350,0,l)
);
},
{
alignment = -1;
ref = K;
}
);
width = 473;
}
);
unicode = 975;
},
{
glyphname = L;
layers = (
{
anchors = (
{
name = b.uni0324_2;
position = "{204, 0}";
},
{
name = m.uni0308_1;
position = "{70, 700}";
},
{
name = t.uni031B_2;
position = "{262, 700}";
}
);
layerId = "D5E7FB56-198D-4A8E-BEAA-3EF32E5285DB";
shapes = (
{
closed = 1;
nodes = (
(-19,0,l),
(428,0,l),
(458,150,l),
(182,150,l),
(292,700,l),
(121,700,l)
);
}
);
width = 504;
},
{
anchors = (
{
name = b.uni0324_2;
position = "{168, 0}";
},
{
name = m.uni0308_1;
position = "{74, 700}";
},
{
name = t.uni031B_2;
position = "{198, 700}";
},
{
name = b.uni0324.3;
position = "{204, 0}";
},
{
name = m.uni0308.2;
position = "{70, 700}";
},
{
name = t.uni031B.3;
position = "{262, 700}";
}
);
layerId = "ADD2B973-A810-4856-BC17-7BF1C9DE9A02";
shapes = (
{
closed = 1;
nodes = (
(-32,0,l),
(277,0,l),
(306,144,l),
(154,144,l),
(265,700,l),
(108,700,l)
);
}
);
width = 347;
},
{
anchors = (
{
name = b.uni0324_2;
position = "{204, 0}";
},
{
name = m.uni0308_1;
position = "{70, 700}";
},
{
name = t.uni031B_2;
position = "{262, 700}";
}
);
layerId = "696351B7-15B4-4052-A598-BDFCA23AB282";
shapes = (
{
closed = 1;
nodes = (
(-5,0,l),
(430,0,l),
(453,117,l),
(150,117,l),
(267,700,l),
(134,700,l)
);
}
);
width = 511;
},
{
anchors = (
{
name = b.uni0324_2;
position = "{121, 0}";
},
{
name = m.uni0308_1;
position = "{60, 700}";
},
{
name = t.uni031B_2;
position = "{131, 700}";
}
);
layerId = "019F6BD1-2D34-4D79-B1CB-A728BCCF901E";
shapes = (
{
closed = 1;
nodes = (
(-21,0,l),
(288,0,l),
(310,113,l),
(125,113,l),
(242,700,l),
(119,700,l)
);
}
);
width = 363;
},
{
anchors = (
{
name = b.uni0324_2;
position = "{204, 0}";
},
{
name = m.uni0308_1;
position = "{70, 700}";
},
{
name = t.uni031B_2;
position = "{262, 700}";
}
);
layerId = "D1347CB1-B206-4E52-85B5-29AA6A54951E";
shapes = (
{
closed = 1;
nodes = (
(15,0,l),
(433,0,l),
(447,68,l),
(102,68,l),
(228,700,l),
(154,700,l)
);
}
);
width = 522;
},
{
anchors = (
{
name = b.uni0324_2;
position = "{50, 0}";
},
{
name = m.uni0308_1;
position = "{39, 700}";
},
{
name = t.uni031B_2;
position = "{30, 700}";
}
);
layerId = "77B4CD6B-5B31-4FA5-B8A2-6C2FAC774875";
shapes = (
{
closed = 1;
nodes = (
(-4,0,l),
(304,0,l),
(318,67,l),
(82,67,l),
(209,700,l),
(135,700,l)
);
}
);
width = 386;
},
{
anchors = (
{
name = b.uni0324_2;
position = "{204, 0}";
},
{
name = m.uni0308_1;
position = "{70, 700}";
},
{
name = t.uni031B_2;
position = "{262, 700}";
}
);
layerId = "9799992C-39FB-428C-A67B-0675C2B8D195";
shapes = (
{
closed = 1;
nodes = (
(28,0,l),
(435,0,l),
(442,35,l),
(70,35,l),
(202,700,l),
(168,700,l)
);
}
);
width = 529;
},
{
anchors = (
{
name = b.uni0324_2;
position = "{3, 0}";
},
{
name = m.uni0308_1;
position = "{25, 700}";
},
{
name = t.uni031B_2;
position = "{-37, 700}";
}
);
layerId = "4C505698-BF71-4ADC-851F-163946829AF6";
shapes = (
{
closed = 1;
nodes = (
(6,0,l),
(315,0,l),
(322,36,l),
(54,36,l),
(186,700,l),
(146,700,l)
);
}
);
width = 401;
}
);
rightKerningGroup = public.kern1.L_L;
unicode = 76;
},
{
glyphname = Lambda;
layers = (
{
anchors = (
{
name = b.uni0324_2;
position = "{224, 700}";
},
{
name = m.uni0308_1;
position = "{224, 0}";
}
);
layerId = "D5E7FB56-198D-4A8E-BEAA-3EF32E5285DB";
shapes = (
{
closed = 1;
nodes = (
(299,700,l),
(-58,0,l),
(119,0,l),
(312,417,l),
(336,0,l),
(514,0,l),
(435,700,l)
);
}
);
width = 575;
},
{
anchors = (
{
name = b.uni0324_2;
position = "{220, 700}";
},
{
name = m.uni0308_1;
position = "{220, 0}";
},
{
name = b.uni0324.3;
position = "{224, 700}";
},
{
name = m.uni0308.2;
position = "{224, 0}";
}
);
layerId = "ADD2B973-A810-4856-BC17-7BF1C9DE9A02";
shapes = (
{
closed = 1;
nodes = (
(231,700,l),
(-56,0,l),
(117,0,l),
(268,481,l),
(230,0,l),
(404,0,l),
(396,700,l)
);
}
);
width = 466;
},
{
anchors = (
{
name = b.uni0324_2;
position = "{224, 700}";
},
{
name = m.uni0308_1;
position = "{224, 0}";
}
);
layerId = "696351B7-15B4-4052-A598-BDFCA23AB282";
shapes = (
{
closed = 1;
nodes = (
(304,700,l),
(-56,0,l),
(81,0,l),
(314,482,l),
(354,0,l),
(491,0,l),
(410,700,l)
);
}
);
width = 555;
},
{
anchors = (
{
name = b.uni0324_2;
position = "{186, 700}";
},
{
name = m.uni0308_1;
position = "{186, 0}";
}
);
layerId = "019F6BD1-2D34-4D79-B1CB-A728BCCF901E";
shapes = (
{
closed = 1;
nodes = (
(241,700,l),
(-55,0,l),
(81,0,l),
(268,522,l),
(248,0,l),
(384,0,l),
(369,700,l)
);
}
);
width = 449;
},
{
anchors = (
{
name = b.uni0324_2;
position = "{224, 700}";
},
{
name = m.uni0308_1;
position = "{224, 0}";
}
);
layerId = "D1347CB1-B206-4E52-85B5-29AA6A54951E";
shapes = (
{
closed = 1;
nodes = (
(312,700,l),
(-54,0,l),
(23,0,l),
(318,579,l),
(381,0,l),
(457,0,l),
(371,700,l)
);
}
);
width = 523;
},
{
anchors = (
{
name = b.uni0324_2;
position = "{135, 700}";
},
{
name = m.uni0308_1;
position = "{135, 0}";
}
);
layerId = "77B4CD6B-5B31-4FA5-B8A2-6C2FAC774875";
shapes = (
{
closed = 1;
nodes = (
(257,700,l),
(-52,0,l),
(27,0,l),
(269,583,l),
(276,0,l),
(355,0,l),
(327,700,l)
);
}
);
width = 423;
},
{
anchors = (
{
name = b.uni0324_2;
position = "{224, 700}";
},
{
name = m.uni0308_1;
position = "{224, 0}";
}
);
layerId = "9799992C-39FB-428C-A67B-0675C2B8D195";
shapes = (
{
closed = 1;
nodes = (
(316,700,l),
(-52,0,l),
(-16,0,l),
(320,644,l),
(400,0,l),
(434,0,l),
(346,700,l)
);
}
);
width = 502;
},
{
anchors = (
{
name = b.uni0324_2;
position = "{101, 700}";
},
{
name = m.uni0308_1;
position = "{101, 0}";
}
);
layerId = "4C505698-BF71-4ADC-851F-163946829AF6";
shapes = (
{
closed = 1;
nodes = (
(267,700,l),
(-50,0,l),
(-10,0,l),
(269,624,l),
(295,0,l),
(335,0,l),
(300,700,l)
);
}
);
width = 406;
}
);
unicode = 923;
},
{
glyphname = Ljecyr;
layers = (
{
layerId = "D5E7FB56-198D-4A8E-BEAA-3EF32E5285DB";
shapes = (
{
closed = 1;
nodes = (
(511,0,l),
(625,0,ls),
(767,0,o),
(876,93,o),
(905,238,cs),
(936,391,o),
(859,468,o),
(719,468,cs),
(604,468,l),
(574,316,l),
(681,316,ls),
(729,316,o),
(745,285,o),
(736,238,cs),
(726,186,o),
(690,150,o),
(648,150,cs),
(541,150,l)
);
},
{
closed = 1;
nodes = (
(-42,-8,l),
(119,-8,o),
(197,99,o),
(236,250,cs),
(316,557,l),
(473,557,l),
(362,0,l),
(531,0,l),
(673,707,l),
(187,707,l),
(78,287,ls),
(66,244,o),
(49,150,o),
(-10,150,c)
);
}
);
width = 954;
},
{
layerId = "ADD2B973-A810-4856-BC17-7BF1C9DE9A02";
shapes = (
{
closed = 1;
nodes = (
(359,0,l),
(414,0,ls),
(569,0,o),
(631,88,o),
(660,234,cs),
(690,386,o),
(661,471,o),
(508,471,cs),
(453,471,l),
(424,326,l),
(475,326,ls),
(521,326,o),
(509,268,o),
(502,234,cs),
(490,173,o),
(471,144,o),
(439,144,cs),
(388,144,l)
);
},
{
closed = 1;
nodes = (
(-42,0,l),
(90,0,o),
(170,64,o),
(210,197,cs),
(327,562,l),
(367,562,l),
(255,0,l),
(412,0,l),
(553,707,l),
(214,707,l),
(101,334,ls),
(84,282,o),
(63,145,o),
(-11,145,c)
);
}
);
width = 698;
},
{
layerId = "696351B7-15B4-4052-A598-BDFCA23AB282";
shapes = (
{
closed = 1;
nodes = (
(453,0,l),
(600,0,ls),
(737,0,o),
(842,80,o),
(871,223,cs),
(900,366,o),
(817,439,o),
(688,439,cs),
(541,439,l),
(517,321,l),
(657,321,ls),
(718,321,o),
(753,287,o),
(740,223,cs),
(726,155,o),
(683,117,o),
(617,117,cs),
(476,117,l)
);
},
{
closed = 1;
nodes = (
(-42,-8,l),
(98,-8,o),
(160,103,o),
(193,227,cs),
(290,590,l),
(472,590,l),
(354,0,l),
(485,0,l),
(627,707,l),
(190,707,l),
(70,262,ls),
(59,224,o),
(37,117,o),
(-18,117,c)
);
}
);
width = 932;
},
{
layerId = "019F6BD1-2D34-4D79-B1CB-A728BCCF901E";
shapes = (
{
closed = 1;
nodes = (
(358,0,l),
(441,0,ls),
(587,0,o),
(648,85,o),
(676,223,cs),
(705,366,o),
(672,446,o),
(530,446,cs),
(447,446,l),
(424,332,l),
(504,332,ls),
(567,332,o),
(563,275,o),
(553,223,cs),
(538,147,o),
(510,113,o),
(460,113,cs),
(381,113,l)
);
},
{
closed = 1;
nodes = (
(-42,0,l),
(80,0,o),
(148,62,o),
(183,183,cs),
(304,593,l),
(397,593,l),
(279,0,l),
(402,0,l),
(543,707,l),
(214,707,l),
(85,263,ls),
(70,213,o),
(50,114,o),
(-18,114,c)
);
}
);
width = 726;
},
{
layerId = "D1347CB1-B206-4E52-85B5-29AA6A54951E";
shapes = (
{
closed = 1;
nodes = (
(367,0,l),
(562,0,ls),
(691,0,o),
(792,61,o),
(820,201,cs),
(845,327,o),
(754,395,o),
(641,395,cs),
(446,395,l),
(432,328,l),
(622,328,ls),
(699,328,o),
(764,289,o),
(746,201,cs),
(728,109,o),
(671,68,o),
(570,68,cs),
(380,68,l)
);
},
{
closed = 1;
nodes = (
(-43,-8,l),
(61,-8,o),
(104,108,o),
(127,192,cs),
(250,640,l),
(470,640,l),
(342,0,l),
(416,0,l),
(557,707,l),
(195,707,l),
(59,225,ls),
(49,192,o),
(20,67,o),
(-28,67,c)
);
}
);
width = 900;
},
{
layerId = "77B4CD6B-5B31-4FA5-B8A2-6C2FAC774875";
shapes = (
{
closed = 1;
nodes = (
(356,0,l),
(483,0,ls),
(613,0,o),
(676,82,o),
(701,206,cs),
(727,334,o),
(689,408,o),
(564,408,cs),
(438,408,l),
(424,341,l),
(547,341,ls),
(633,341,o),
(645,285,o),
(629,206,cs),
(610,109,o),
(567,67,o),
(492,67,cs),
(369,67,l)
);
},
{
closed = 1;
nodes = (
(-42,0,l),
(67,0,o),
(112,58,o),
(141,162,cs),
(269,640,l),
(442,640,l),
(314,0,l),
(387,0,l),
(529,707,l),
(214,707,l),
(61,157,ls),
(49,111,o),
(23,67,o),
(-28,67,c)
);
}
);
width = 768;
},
{
layerId = "9799992C-39FB-428C-A67B-0675C2B8D195";
shapes = (
{
closed = 1;
nodes = (
(309,0,l),
(536,0,ls),
(660,0,o),
(757,48,o),
(785,186,cs),
(808,300,o),
(710,366,o),
(610,366,cs),
(382,366,l),
(376,333,l),
(598,333,ls),
(686,333,o),
(771,289,o),
(750,186,cs),
(728,78,o),
(663,35,o),
(539,35,cs),
(316,35,l)
);
},
{
closed = 1;
nodes = (
(-44,-8,l),
(32,-8,o),
(67,114,o),
(83,169,cs),
(223,673,l),
(469,673,l),
(335,0,l),
(370,0,l),
(511,707,l),
(198,707,l),
(51,200,ls),
(43,170,o),
(9,34,o),
(-36,34,c)
);
}
);
width = 879;
},
{
layerId = "4C505698-BF71-4ADC-851F-163946829AF6";
shapes = (
{
closed = 1;
nodes = (
(355,0,l),
(510,0,ls),
(632,0,o),
(695,79,o),
(718,195,cs),
(741,312,o),
(702,383,o),
(587,383,cs),
(432,383,l),
(425,347,l),
(575,347,ls),
(674,347,o),
(698,291,o),
(679,195,cs),
(657,83,o),
(606,36,o),
(513,36,cs),
(362,36,l)
);
},
{
closed = 1;
nodes = (
(-42,0,l),
(55,0,o),
(91,58,o),
(114,148,cs),
(246,671,l),
(472,671,l),
(338,0,l),
(378,0,l),
(519,707,l),
(214,707,l),
(45,86,l),
(44,54,o),
(-12,36,o),
(-36,36,c)
);
}
);
width = 795;
}
);
unicode = 1033;
},
{
glyphname = Lslash;
layers = (
{
layerId = "D5E7FB56-198D-4A8E-BEAA-3EF32E5285DB";
shapes = (
{
closed = 1;
nodes = (
(-13,238,l),
(376,420,l),
(406,570,l),
(18,388,l)
);
},
{
closed = 1;
nodes = (
(-16,0,l),
(431,0,l),
(461,150,l),
(186,150,l),
(297,707,l),
(125,707,l)
);
}
);
width = 507;
},
{
layerId = "ADD2B973-A810-4856-BC17-7BF1C9DE9A02";
shapes = (
{
closed = 1;
nodes = (
(4,232,l),
(315,380,l),
(345,530,l),
(34,381,l)
);
},
{
closed = 1;
nodes = (
(-31,0,l),
(278,0,l),
(307,144,l),
(155,144,l),
(267,707,l),
(110,707,l)
);
}
);
width = 348;
},
{
layerId = "696351B7-15B4-4052-A598-BDFCA23AB282";
shapes = (
{
closed = 1;
nodes = (
(14,279,l),
(327,416,l),
(349,529,l),
(38,392,l)
);
},
{
closed = 1;
nodes = (
(-3,0,l),
(433,0,l),
(456,117,l),
(153,117,l),
(271,707,l),
(139,707,l)
);
}
);
width = 514;
},
{
layerId = "019F6BD1-2D34-4D79-B1CB-A728BCCF901E";
shapes = (
{
closed = 1;
nodes = (
(14,279,l),
(280,396,l),
(303,509,l),
(38,392,l)
);
},
{
closed = 1;
nodes = (
(-19,0,l),
(289,0,l),
(312,113,l),
(127,113,l),
(245,707,l),
(122,707,l)
);
}
);
width = 364;
},
{
layerId = "D1347CB1-B206-4E52-85B5-29AA6A54951E";
shapes = (
{
closed = 1;
nodes = (
(55,340,l),
(253,410,l),
(264,468,l),
(68,398,l)
);
},
{
closed = 1;
nodes = (
(17,0,l),
(435,0,l),
(449,68,l),
(104,68,l),
(231,707,l),
(158,707,l)
);
}
);
width = 524;
},
{
layerId = "77B4CD6B-5B31-4FA5-B8A2-6C2FAC774875";
shapes = (
{
closed = 1;
nodes = (
(30,350,l),
(227,420,l),
(239,478,l),
(43,408,l)
);
},
{
closed = 1;
nodes = (
(-2,0,l),
(307,0,l),
(320,67,l),
(85,67,l),
(213,707,l),
(140,707,l)
);
}
);
width = 388;
},
{
layerId = "9799992C-39FB-428C-A67B-0675C2B8D195";
shapes = (
{
closed = 1;
nodes = (
(83,381,l),
(203,406,l),
(207,427,l),
(88,402,l)
);
},
{
closed = 1;
nodes = (
(30,0,l),
(437,0,l),
(444,35,l),
(71,35,l),
(206,707,l),
(171,707,l)
);
}
);
width = 531;
},
{
layerId = "4C505698-BF71-4ADC-851F-163946829AF6";
shapes = (
{
closed = 1;
nodes = (
(40,397,l),
(192,436,l),
(196,457,l),
(46,419,l)
);
},
{
closed = 1;
nodes = (
(10,0,l),
(319,0,l),
(326,36,l),
(57,36,l),
(191,707,l),
(151,707,l)
);
}
);
width = 405;
}
);
unicode = 321;
},
{
glyphname = M;
layers = (
{
anchors = (
{
name = b.uni0324_2;
position = "{326, 0}";
},
{
name = m.uni0308_1;
position = "{326, 700}";
}
);
layerId = "D5E7FB56-198D-4A8E-BEAA-3EF32E5285DB";
shapes = (
{
closed = 1;
nodes = (
(-2,0,l),
(170,0,l),
(235,328,l),
(287,133,l),
(396,133,l),
(523,323,l),
(459,0,l),
(628,0,l),
(768,700,l),
(599,700,l),
(390,373,l),
(310,700,l),
(138,700,l)
);
}
);
width = 746;
},
{
anchors = (
{
name = b.uni0324_2;
position = "{285, 0}";
},
{
name = m.uni0308_1;
position = "{285, 700}";
},
{
name = b.uni0324.3;
position = "{326, 0}";
},
{
name = m.uni0308.2;
position = "{326, 700}";
}
);
layerId = "ADD2B973-A810-4856-BC17-7BF1C9DE9A02";
shapes = (
{
closed = 1;
nodes = (
(-32,0,l),
(125,0,l),
(189,318,l),
(199,119,l),
(278,119,l),
(370,321,l),
(306,0,l),
(463,0,l),
(603,700,l),
(446,700,l),
(287,365,l),
(265,700,l),
(108,700,l)
);
}
);
width = 549;
},
{
anchors = (
{
name = b.uni0324_2;
position = "{326, 0}";
},
{
name = m.uni0308_1;
position = "{326, 700}";
}
);
layerId = "696351B7-15B4-4052-A598-BDFCA23AB282";
shapes = (
{
closed = 1;
nodes = (
(5,0,l),
(137,0,l),
(220,415,l),
(297,136,l),
(386,136,l),
(572,412,l),
(490,0,l),
(621,0,l),
(761,700,l),
(630,700,l),
(377,316,l),
(277,700,l),
(144,700,l)
);
}
);
width = 745;
},
{
anchors = (
{
name = b.uni0324_2;
position = "{232, 0}";
},
{
name = m.uni0308_1;
position = "{232, 700}";
}
);
layerId = "019F6BD1-2D34-4D79-B1CB-A728BCCF901E";
shapes = (
{
closed = 1;
nodes = (
(-21,0,l),
(103,0,l),
(183,404,l),
(217,137,l),
(284,137,l),
(426,407,l),
(345,0,l),
(468,0,l),
(608,700,l),
(485,700,l),
(288,327,l),
(242,700,l),
(119,700,l)
);
}
);
width = 566;
},
{
anchors = (
{
name = b.uni0324_2;
position = "{326, 0}";
},
{
name = m.uni0308_1;
position = "{326, 700}";
}
);
layerId = "D1347CB1-B206-4E52-85B5-29AA6A54951E";
shapes = (
{
closed = 1;
nodes = (
(15,0,l),
(88,0,l),
(197,546,l),
(312,141,l),
(369,141,l),
(645,546,l),
(536,0,l),
(609,0,l),
(749,700,l),
(676,700,l),
(358,230,l),
(228,700,l),
(154,700,l)
);
}
);
width = 744;
},
{
anchors = (
{
name = b.uni0324_2;
position = "{152, 0}";
},
{
name = m.uni0308_1;
position = "{152, 700}";
}
);
layerId = "77B4CD6B-5B31-4FA5-B8A2-6C2FAC774875";
shapes = (
{
closed = 1;
nodes = (
(-4,0,l),
(69,0,l),
(176,533,l),
(245,164,l),
(293,164,l),
(509,536,l),
(402,0,l),
(476,0,l),
(616,700,l),
(542,700,l),
(291,270,l),
(209,700,l),
(135,700,l)
);
}
);
width = 591;
},
{
anchors = (
{
name = b.uni0324_2;
position = "{326, 0}";
},
{
name = m.uni0308_1;
position = "{326, 700}";
}
);
layerId = "9799992C-39FB-428C-A67B-0675C2B8D195";
shapes = (
{
closed = 1;
nodes = (
(21,0,l),
(55,0,l),
(182,633,l),
(322,144,l),
(358,144,l),
(694,635,l),
(567,0,l),
(602,0,l),
(742,700,l),
(707,700,l),
(346,173,l),
(195,700,l),
(161,700,l)
);
}
);
width = 743;
},
{
anchors = (
{
name = b.uni0324_2;
position = "{99, 0}";
},
{
name = m.uni0308_1;
position = "{99, 700}";
}
);
layerId = "4C505698-BF71-4ADC-851F-163946829AF6";
shapes = (
{
closed = 1;
nodes = (
(6,0,l),
(47,0,l),
(170,619,l),
(263,182,l),
(299,182,l),
(565,622,l),
(441,0,l),
(481,0,l),
(621,700,l),
(580,700,l),
(292,232,l),
(186,700,l),
(146,700,l)
);
}
);
width = 608;
}
);
unicode = 77;
},
{
glyphname = N;
layers = (
{
anchors = (
{
name = b.uni0324_2;
position = "{265, 0}";
},
{
name = m.uni0308_1;
position = "{265, 700}";
}
);
layerId = "D5E7FB56-198D-4A8E-BEAA-3EF32E5285DB";
shapes = (
{
closed = 1;
nodes = (
(-19,0,l),
(152,0,l),
(227,372,l),
(339,0,l),
(509,0,l),
(649,700,l),
(479,700,l),
(403,324,l),
(292,700,l),
(121,700,l)
);
}
);
width = 611;
},
{
anchors = (
{
name = b.uni0324_2;
position = "{224, 0}";
},
{
name = m.uni0308_1;
position = "{224, 700}";
},
{
name = b.uni0324.3;
position = "{265, 0}";
},
{
name = m.uni0308.2;
position = "{265, 700}";
}
);
layerId = "ADD2B973-A810-4856-BC17-7BF1C9DE9A02";
shapes = (
{
closed = 1;
nodes = (
(-32,0,l),
(125,0,l),
(184,293,l),
(207,0,l),
(364,0,l),
(504,700,l),
(347,700,l),
(281,368,l),
(265,700,l),
(108,700,l)
);
}
);
width = 452;
},
{
anchors = (
{
name = b.uni0324_2;
position = "{265, 0}";
},
{
name = m.uni0308_1;
position = "{265, 700}";
}
);
layerId = "696351B7-15B4-4052-A598-BDFCA23AB282";
shapes = (
{
closed = 1;
nodes = (
(-5,0,l),
(127,0,l),
(216,448,l),
(382,0,l),
(513,0,l),
(653,700,l),
(522,700,l),
(432,250,l),
(267,700,l),
(134,700,l)
);
}
);
width = 627;
},
{
anchors = (
{
name = b.uni0324_2;
position = "{169, 0}";
},
{
name = m.uni0308_1;
position = "{169, 700}";
}
);
layerId = "019F6BD1-2D34-4D79-B1CB-A728BCCF901E";
shapes = (
{
closed = 1;
nodes = (
(-21,0,l),
(103,0,l),
(181,390,l),
(247,0,l),
(370,0,l),
(510,700,l),
(387,700,l),
(304,286,l),
(242,700,l),
(119,700,l)
);
}
);
width = 469;
},
{
anchors = (
{
name = b.uni0324_2;
position = "{265, 0}";
},
{
name = m.uni0308_1;
position = "{265, 700}";
}
);
layerId = "D1347CB1-B206-4E52-85B5-29AA6A54951E";
shapes = (
{
closed = 1;
nodes = (
(15,0,l),
(88,0,l),
(201,567,l),
(446,0,l),
(519,0,l),
(659,700,l),
(586,700,l),
(473,134,l),
(228,700,l),
(154,700,l)
);
}
);
width = 653;
},
{
anchors = (
{
name = b.uni0324_2;
position = "{87, 0}";
},
{
name = m.uni0308_1;
position = "{87, 700}";
}
);
layerId = "77B4CD6B-5B31-4FA5-B8A2-6C2FAC774875";
shapes = (
{
closed = 1;
nodes = (
(-4,0,l),
(69,0,l),
(176,536,l),
(306,0,l),
(380,0,l),
(520,700,l),
(446,700,l),
(339,163,l),
(209,700,l),
(135,700,l)
);
}
);
width = 495;
},
{
anchors = (
{
name = b.uni0324_2;
position = "{265, 0}";
},
{
name = m.uni0308_1;
position = "{265, 700}";
}
);
layerId = "9799992C-39FB-428C-A67B-0675C2B8D195";
shapes = (
{
closed = 1;
nodes = (
(28,0,l),
(63,0,l),
(191,643,l),
(489,0,l),
(523,0,l),
(663,700,l),
(629,700,l),
(501,60,l),
(202,700,l),
(168,700,l)
);
}
);
width = 669;
},
{
anchors = (
{
name = b.uni0324_2;
position = "{32, 0}";
},
{
name = m.uni0308_1;
position = "{32, 700}";
}
);
layerId = "4C505698-BF71-4ADC-851F-163946829AF6";
shapes = (
{
closed = 1;
nodes = (
(6,0,l),
(47,0,l),
(173,633,l),
(346,0,l),
(386,0,l),
(526,700,l),
(485,700,l),
(362,81,l),
(186,700,l),
(146,700,l)
);
}
);
width = 512;
}
);
unicode = 78;
},
{
glyphname = Njecyr;
layers = (
{
layerId = "D5E7FB56-198D-4A8E-BEAA-3EF32E5285DB";
shapes = (
{
closed = 1;
nodes = (
(456,0,l),
(572,0,ls),
(714,0,o),
(823,93,o),
(852,238,cs),
(882,390,o),
(805,468,o),
(665,468,cs),
(550,468,l),
(519,316,l),
(627,316,ls),
(676,316,o),
(690,285,o),
(681,238,cs),
(671,186,o),
(636,150,o),
(594,150,cs),
(486,150,l)
);
},
{
closed = 1;
nodes = (
(-19,0,l),
(152,0,l),
(208,280,l),
(375,280,l),
(319,0,l),
(490,0,l),
(631,707,l),
(460,707,l),
(405,430,l),
(238,430,l),
(294,707,l),
(122,707,l)
);
}
);
width = 900;
},
{
layerId = "ADD2B973-A810-4856-BC17-7BF1C9DE9A02";
shapes = (
{
closed = 1;
nodes = (
(323,0,l),
(377,0,ls),
(533,0,o),
(594,87,o),
(623,234,cs),
(653,386,o),
(624,471,o),
(471,471,cs),
(417,471,l),
(388,326,l),
(438,326,ls),
(484,326,o),
(472,268,o),
(465,234,cs),
(453,173,o),
(434,144,o),
(402,144,cs),
(352,144,l)
);
},
{
closed = 1;
nodes = (
(-32,0,l),
(125,0,l),
(182,287,l),
(258,287,l),
(200,0,l),
(357,0,l),
(499,707,l),
(342,707,l),
(287,431,l),
(211,431,l),
(266,707,l),
(109,707,l)
);
}
);
width = 661;
},
{
layerId = "696351B7-15B4-4052-A598-BDFCA23AB282";
shapes = (
{
closed = 1;
nodes = (
(450,0,l),
(597,0,ls),
(734,0,o),
(839,80,o),
(868,223,cs),
(897,366,o),
(814,439,o),
(685,439,cs),
(538,439,l),
(514,321,l),
(655,321,ls),
(716,321,o),
(750,287,o),
(737,223,cs),
(723,155,o),
(680,117,o),
(614,117,cs),
(474,117,l)
);
},
{
closed = 1;
nodes = (
(-5,0,l),
(127,0,l),
(187,299,l),
(416,299,l),
(356,0,l),
(488,0,l),
(629,707,l),
(497,707,l),
(439,416,l),
(210,416,l),
(268,707,l),
(136,707,l)
);
}
);
width = 930;
},
{
layerId = "019F6BD1-2D34-4D79-B1CB-A728BCCF901E";
shapes = (
{
closed = 1;
nodes = (
(327,0,l),
(410,0,ls),
(556,0,o),
(617,85,o),
(645,223,cs),
(674,366,o),
(641,446,o),
(499,446,cs),
(416,446,l),
(393,332,l),
(473,332,ls),
(536,332,o),
(532,275,o),
(522,223,cs),
(507,147,o),
(479,113,o),
(429,113,cs),
(350,113,l)
);
},
{
closed = 1;
nodes = (
(-21,0,l),
(103,0,l),
(163,303,l),
(293,303,l),
(233,0,l),
(356,0,l),
(498,707,l),
(374,707,l),
(316,416,l),
(186,416,l),
(244,707,l),
(120,707,l)
);
}
);
width = 695;
},
{
layerId = "D1347CB1-B206-4E52-85B5-29AA6A54951E";
shapes = (
{
closed = 1;
nodes = (
(441,0,l),
(636,0,ls),
(765,0,o),
(866,61,o),
(894,201,cs),
(919,327,o),
(828,395,o),
(715,395,cs),
(520,395,l),
(506,328,l),
(696,328,ls),
(773,328,o),
(838,289,o),
(820,201,cs),
(802,109,o),
(745,68,o),
(644,68,cs),
(455,68,l)
);
},
{
closed = 1;
nodes = (
(15,0,l),
(88,0,l),
(154,328,l),
(477,328,l),
(412,0,l),
(485,0,l),
(626,707,l),
(553,707,l),
(490,395,l),
(167,395,l),
(229,707,l),
(156,707,l)
);
}
);
width = 974;
},
{
layerId = "77B4CD6B-5B31-4FA5-B8A2-6C2FAC774875";
shapes = (
{
closed = 1;
nodes = (
(334,0,l),
(460,0,ls),
(590,0,o),
(654,82,o),
(679,206,cs),
(705,334,o),
(667,408,o),
(542,408,cs),
(415,408,l),
(402,341,l),
(524,341,ls),
(610,341,o),
(622,285,o),
(606,206,cs),
(587,109,o),
(544,67,o),
(469,67,cs),
(347,67,l)
);
},
{
closed = 1;
nodes = (
(-4,0,l),
(69,0,l),
(134,327,l),
(347,327,l),
(282,0,l),
(355,0,l),
(496,707,l),
(423,707,l),
(360,393,l),
(148,393,l),
(210,707,l),
(137,707,l)
);
}
);
width = 745;
},
{
layerId = "9799992C-39FB-428C-A67B-0675C2B8D195";
shapes = (
{
closed = 1;
nodes = (
(435,0,l),
(661,0,ls),
(785,0,o),
(882,48,o),
(910,186,cs),
(933,302,o),
(836,366,o),
(734,366,cs),
(508,366,l),
(502,333,l),
(723,333,ls),
(811,333,o),
(897,289,o),
(876,186,cs),
(854,78,o),
(787,35,o),
(663,35,cs),
(442,35,l)
);
},
{
closed = 1;
nodes = (
(28,0,l),
(63,0,l),
(132,347,l),
(518,347,l),
(449,0,l),
(483,0,l),
(624,707,l),
(590,707,l),
(525,381,l),
(139,381,l),
(204,707,l),
(170,707,l)
);
}
);
width = 1004;
},
{
layerId = "4C505698-BF71-4ADC-851F-163946829AF6";
shapes = (
{
closed = 1;
nodes = (
(338,0,l),
(493,0,ls),
(615,0,o),
(678,80,o),
(701,195,cs),
(724,312,o),
(685,383,o),
(570,383,cs),
(414,383,l),
(407,347,l),
(559,347,ls),
(657,347,o),
(682,290,o),
(663,195,cs),
(641,83,o),
(590,36,o),
(497,36,cs),
(345,36,l)
);
},
{
closed = 1;
nodes = (
(6,0,l),
(47,0,l),
(115,343,l),
(383,343,l),
(314,0,l),
(354,0,l),
(496,707,l),
(455,707,l),
(390,378,l),
(122,378,l),
(188,707,l),
(148,707,l)
);
}
);
width = 779;
}
);
unicode = 1034;
},
{
glyphname = O;
layers = (
{
anchors = (
{
name = b.uni0324_2;
position = "{247, 0}";
},
{
name = m.uni0308_1;
position = "{247, 700}";
},
{
name = m.uni0328;
position = "{309, 10}";
},
{
name = t.uni031B_2;
position = "{534, 700}";
}
);
layerId = "D5E7FB56-198D-4A8E-BEAA-3EF32E5285DB";
shapes = (
{
closed = 1;
nodes = (
(414,-8,o),
(513,98,o),
(549,280,cs),
(577,419,ls),
(613,598,o),
(563,708,o),
(378,708,cs),
(193,708,o),
(96,599,o),
(60,419,cs),
(32,280,ls),
(-4,101,o),
(44,-8,o),
(229,-8,cs)
);
},
{
closed = 1;
nodes = (
(230,409,ls),
(252,518,o),
(281,557,o),
(347,557,cs),
(410,557,o),
(426,516,o),
(405,409,cs),
(380,286,ls),
(360,186,o),
(325,147,o),
(265,147,cs),
(199,147,o),
(184,183,o),
(205,286,cs)
);
}
);
width = 589;
},
{
anchors = (
{
name = b.uni0324_2;
position = "{220, 0}";
},
{
name = m.uni0308_1;
position = "{220, 700}";
},
{
name = m.uni0328;
position = "{293, 10}";
},
{
name = t.uni031B_2;
position = "{460, 700}";
}
);
layerId = "ADD2B973-A810-4856-BC17-7BF1C9DE9A02";
shapes = (
{
closed = 1;
nodes = (
(283,-8,o),
(386,63,o),
(411,189,cs),
(475,510,ls),
(500,636,o),
(440,708,o),
(318,708,cs),
(196,708,o),
(93,640,o),
(67,510,cs),
(3,189,ls),
(-23,60,o),
(40,-8,o),
(164,-8,cs)
);
},
{
closed = 1;
nodes = (
(219,481,ls),
(230,537,o),
(248,563,o),
(284,563,cs),
(318,563,o),
(322,536,o),
(311,481,cs),
(258,213,ls),
(249,166,o),
(224,136,o),
(198,136,cs),
(167,136,o),
(156,161,o),
(166,213,cs)
);
}
);
width = 458;
},
{
anchors = (
{
name = b.uni0324_2;
position = "{247, 0}";
},
{
name = m.uni0308_1;
position = "{247, 700}";
},
{
name = m.uni0328;
position = "{309, 10}";
},
{
name = t.uni031B_2;
position = "{534, 700}";
}
);
layerId = "696351B7-15B4-4052-A598-BDFCA23AB282";
shapes = (
{
closed = 1;
nodes = (
(412,-8,o),
(508,99,o),
(543,273,cs),
(573,426,ls),
(607,598,o),
(558,708,o),
(380,708,cs),
(201,708,o),
(107,600,o),
(72,426,cs),
(41,273,ls),
(6,100,o),
(54,-8,o),
(233,-8,cs)
);
},
{
closed = 1;
nodes = (
(202,419,ls),
(227,542,o),
(273,590,o),
(356,590,cs),
(438,590,o),
(465,538,o),
(441,419,cs),
(412,275,ls),
(389,162,o),
(342,112,o),
(261,112,cs),
(178,112,o),
(151,159,o),
(174,275,cs)
);
}
);
width = 594;
},
{
anchors = (
{
name = b.uni0324_2;
position = "{175, 0}";
},
{
name = m.uni0308_1;
position = "{175, 700}";
},
{
name = m.uni0328;
position = "{234, 10}";
},
{
name = t.uni031B_2;
position = "{370, 700}";
}
);
layerId = "019F6BD1-2D34-4D79-B1CB-A728BCCF901E";
shapes = (
{
closed = 1;
nodes = (
(291,-8,o),
(382,69,o),
(407,195,cs),
(469,504,ls),
(494,629,o),
(443,708,o),
(318,708,cs),
(194,708,o),
(102,632,o),
(76,504,cs),
(14,195,ls),
(-11,68,o),
(43,-8,o),
(168,-8,cs)
);
},
{
closed = 1;
nodes = (
(196,484,ls),
(211,559,o),
(240,594,o),
(292,594,cs),
(342,594,o),
(357,557,o),
(342,484,cs),
(287,209,ls),
(274,142,o),
(238,105,o),
(194,105,cs),
(144,105,o),
(127,140,o),
(141,209,cs)
);
}
);
width = 463;
},
{
anchors = (
{
name = b.uni0324_2;
position = "{247, 0}";
},
{
name = m.uni0308_1;
position = "{247, 700}";
},
{
name = m.uni0328;
position = "{309, 10}";
},
{
name = t.uni031B_2;
position = "{534, 700}";
}
);
layerId = "D1347CB1-B206-4E52-85B5-29AA6A54951E";
shapes = (
{
closed = 1;
nodes = (
(407,-8,o),
(501,100,o),
(533,262,cs),
(568,437,ls),
(600,598,o),
(551,708,o),
(383,708,cs),
(215,708,o),
(121,599,o),
(89,437,cs),
(54,262,ls),
(22,100,o),
(70,-8,o),
(239,-8,cs)
);
},
{
closed = 1;
nodes = (
(161,434,ls),
(190,577,o),
(257,640,o),
(370,640,cs),
(481,640,o),
(521,571,o),
(494,434,cs),
(459,258,ls),
(433,126,o),
(365,60,o),
(254,60,cs),
(143,60,o),
(99,123,o),
(126,258,cs)
);
}
);
width = 602;
},
{
anchors = (
{
name = b.uni0324_2;
position = "{108, 0}";
},
{
name = m.uni0308_1;
position = "{108, 700}";
},
{
name = m.uni0328;
position = "{145, 10}";
},
{
name = t.uni031B_2;
position = "{235, 700}";
}
);
layerId = "77B4CD6B-5B31-4FA5-B8A2-6C2FAC774875";
shapes = (
{
closed = 1;
nodes = (
(302,-8,o),
(378,82,o),
(402,204,cs),
(460,495,ls),
(485,620,o),
(449,708,o),
(318,708,cs),
(188,708,o),
(114,620,o),
(89,495,cs),
(31,204,ls),
(6,81,o),
(47,-8,o),
(175,-8,cs)
);
},
{
closed = 1;
nodes = (
(160,488,ls),
(181,591,o),
(230,641,o),
(305,641,cs),
(377,641,o),
(407,591,o),
(386,488,cs),
(330,203,ls),
(311,107,o),
(261,58,o),
(189,58,cs),
(112,59,o),
(84,107,o),
(103,203,cs)
);
}
);
width = 471;
},
{
anchors = (
{
name = b.uni0324_2;
position = "{247, 0}";
},
{
name = m.uni0308_1;
position = "{247, 700}";
},
{
name = m.uni0328;
position = "{309, 10}";
},
{
name = t.uni031B_2;
position = "{534, 700}";
}
);
layerId = "9799992C-39FB-428C-A67B-0675C2B8D195";
shapes = (
{
closed = 1;
nodes = (
(404,-8,o),
(496,102,o),
(527,255,cs),
(565,444,ls),
(596,600,o),
(548,708,o),
(386,708,cs),
(224,708,o),
(132,600,o),
(101,444,cs),
(63,255,ls),
(32,98,o),
(82,-8,o),
(244,-8,cs)
);
},
{
closed = 1;
nodes = (
(134,444,ls),
(165,600,o),
(249,673,o),
(379,673,cs),
(509,673,o),
(560,593,o),
(530,444,cs),
(490,247,ls),
(461,102,o),
(381,25,o),
(249,25,cs),
(120,25,o),
(65,99,o),
(95,247,cs)
);
}
);
width = 607;
},
{
anchors = (
{
name = b.uni0324_2;
position = "{63, 0}";
},
{
name = m.uni0308_1;
position = "{63, 700}";
},
{
name = m.uni0328;
position = "{86, 10}";
},
{
name = t.uni031B_2;
position = "{145, 700}";
}
);
layerId = "4C505698-BF71-4ADC-851F-163946829AF6";
shapes = (
{
closed = 1;
nodes = (
(308,-8,o),
(375,91,o),
(399,210,cs),
(454,489,ls),
(479,613,o),
(452,708,o),
(318,708,cs),
(186,708,o),
(122,610,o),
(98,489,cs),
(42,210,ls),
(18,91,o),
(52,-8,o),
(179,-8,cs)
);
},
{
closed = 1;
nodes = (
(136,491,ls),
(160,612,o),
(223,672,o),
(314,672,cs),
(401,672,o),
(441,612,o),
(417,491,cs),
(358,199,ls),
(335,83,o),
(275,27,o),
(185,27,cs),
(90,28,o),
(55,86,o),
(78,199,cs)
);
}
);
width = 476;
}
);
leftKerningGroup = public.kern2.R_C;
unicode = 79;
},
{
glyphname = OE;
layers = (
{
anchors = (
{
name = b.uni0324_2;
position = "{386, 0}";
},
{
name = m.uni0308_1;
position = "{386, 707}";
}
);
layerId = "D5E7FB56-198D-4A8E-BEAA-3EF32E5285DB";
shapes = (
{
closed = 1;
nodes = (
(256,-8,o),
(299,1,o),
(343,20,c),
(339,0,l),
(770,0,l),
(800,150,l),
(524,150,l),
(549,279,l),
(785,279,l),
(815,430,l),
(579,430,l),
(605,557,l),
(882,557,l),
(911,707,l),
(480,707,l),
(477,689,l),
(441,708,o),
(401,718,o),
(360,718,cs),
(186,718,o),
(94,590,o),
(62,428,cs),
(32,280,ls),
(-4,100,o),
(49,-8,o),
(214,-8,cs)
);
},
{
closed = 1;
nodes = (
(232,419,ls),
(254,528,o),
(283,566,o),
(349,566,cs),
(412,566,o),
(428,524,o),
(407,419,cs),
(380,286,ls),
(360,186,o),
(325,147,o),
(265,147,cs),
(199,147,o),
(184,183,o),
(205,286,cs)
);
}
);
width = 853;
},
{
anchors = (
{
name = b.uni0324_2;
position = "{328, 0}";
},
{
name = m.uni0308_1;
position = "{328, 709}";
}
);
layerId = "ADD2B973-A810-4856-BC17-7BF1C9DE9A02";
shapes = (
{
closed = 1;
nodes = (
(174,-8,o),
(209,1,o),
(243,20,c),
(239,0,l),
(536,0,l),
(564,144,l),
(401,144,l),
(430,288,l),
(571,288,l),
(599,431,l),
(458,431,l),
(484,562,l),
(648,562,l),
(677,707,l),
(380,707,l),
(378,696,l),
(350,710,o),
(322,717,o),
(294,717,cs),
(169,717,o),
(96,645,o),
(71,520,cs),
(5,188,ls),
(-21,56,o),
(24,-8,o),
(139,-8,cs)
);
},
{
closed = 1;
nodes = (
(222,492,ls),
(233,548,o),
(249,572,o),
(285,572,cs),
(319,572,o),
(325,545,o),
(314,492,cs),
(258,212,ls),
(248,163,o),
(225,136,o),
(198,136,c),
(167,137,o),
(156,161,o),
(166,212,cs)
);
}
);
width = 611;
},
{
anchors = (
{
name = b.uni0324_2;
position = "{386, 0}";
},
{
name = m.uni0308_1;
position = "{386, 707}";
}
);
layerId = "696351B7-15B4-4052-A598-BDFCA23AB282";
shapes = (
{
closed = 1;
nodes = (
(278,-8,o),
(327,5,o),
(373,32,c),
(367,0,l),
(775,0,l),
(799,117,l),
(512,117,l),
(548,298,l),
(790,298,l),
(813,415,l),
(571,415,l),
(606,590,l),
(893,590,l),
(917,707,l),
(508,707,l),
(502,676,l),
(467,703,o),
(423,717,o),
(370,717,cs),
(198,717,o),
(105,597,o),
(73,435,cs),
(41,273,ls),
(5,94,o),
(63,-8,o),
(224,-8,cs)
);
},
{
closed = 1;
nodes = (
(204,428,ls),
(229,551,o),
(275,599,o),
(358,599,cs),
(440,599,o),
(466,547,o),
(442,428,cs),
(412,275,ls),
(389,162,o),
(342,112,o),
(261,112,cs),
(178,112,o),
(151,159,o),
(174,275,cs)
);
}
);
width = 867;
},
{
anchors = (
{
name = b.uni0324_2;
position = "{257, 0}";
},
{
name = m.uni0308_1;
position = "{257, 714}";
}
);
layerId = "019F6BD1-2D34-4D79-B1CB-A728BCCF901E";
shapes = (
{
closed = 1;
nodes = (
(193,-8,o),
(233,4,o),
(268,29,c),
(263,0,l),
(556,0,l),
(578,113,l),
(391,113,l),
(429,303,l),
(590,303,l),
(612,416,l),
(452,416,l),
(487,593,l),
(674,593,l),
(697,707,l),
(404,707,l),
(400,685,l),
(374,706,o),
(340,717,o),
(302,717,cs),
(175,717,o),
(103,637,o),
(78,513,cs),
(14,195,ls),
(-13,60,o),
(36,-8,o),
(151,-8,cs)
);
},
{
closed = 1;
nodes = (
(197,493,ls),
(212,568,o),
(242,603,o),
(294,603,cs),
(344,603,o),
(359,566,o),
(344,493,cs),
(287,209,ls),
(273,141,o),
(240,105,o),
(194,105,c),
(144,106,o),
(127,140,o),
(141,209,cs)
);
}
);
width = 638;
},
{
anchors = (
{
name = b.uni0324_2;
position = "{386, 0}";
},
{
name = m.uni0308_1;
position = "{386, 707}";
}
);
layerId = "D1347CB1-B206-4E52-85B5-29AA6A54951E";
shapes = (
{
closed = 1;
nodes = (
(310,-8,o),
(370,11,o),
(418,50,c),
(408,0,l),
(783,0,l),
(797,68,l),
(494,68,l),
(546,326,l),
(797,326,l),
(811,393,l),
(560,393,l),
(608,639,l),
(911,639,l),
(924,707,l),
(549,707,l),
(539,657,l),
(507,696,o),
(455,716,o),
(384,716,cs),
(216,716,o),
(123,607,o),
(91,445,cs),
(54,262,ls),
(19,86,o),
(84,-8,o),
(238,-8,cs)
);
},
{
closed = 1;
nodes = (
(163,442,ls),
(192,585,o),
(258,648,o),
(371,648,cs),
(482,648,o),
(523,579,o),
(496,442,cs),
(459,258,ls),
(433,126,o),
(365,60,o),
(254,60,cs),
(143,60,o),
(99,123,o),
(126,258,cs)
);
}
);
width = 887;
},
{
anchors = (
{
name = b.uni0324_2;
position = "{150, 0}";
},
{
name = m.uni0308_1;
position = "{150, 721}";
}
);
layerId = "77B4CD6B-5B31-4FA5-B8A2-6C2FAC774875";
shapes = (
{
closed = 1;
nodes = (
(223,-8,o),
(269,9,o),
(307,43,c),
(298,0,l),
(586,0,l),
(599,67,l),
(376,67,l),
(428,326,l),
(618,326,l),
(631,393,l),
(441,393,l),
(490,640,l),
(714,640,l),
(727,707,l),
(439,707,l),
(431,668,l),
(406,701,o),
(368,717,o),
(314,717,cs),
(185,717,o),
(113,624,o),
(89,502,cs),
(29,206,ls),
(1,67,o),
(54,-8,o),
(169,-8,cs)
);
},
{
closed = 1;
nodes = (
(161,495,ls),
(182,598,o),
(230,649,o),
(307,649,cs),
(381,649,o),
(410,598,o),
(389,495,cs),
(331,205,ls),
(312,108,o),
(263,59,o),
(189,59,cs),
(112,60,o),
(84,108,o),
(103,205,cs)
);
}
);
width = 678;
},
{
anchors = (
{
name = b.uni0324_2;
position = "{386, 0}";
},
{
name = m.uni0308_1;
position = "{386, 707}";
}
);
layerId = "9799992C-39FB-428C-A67B-0675C2B8D195";
shapes = (
{
closed = 1;
nodes = (
(331,-8,o),
(398,15,o),
(448,62,c),
(435,0,l),
(788,0,l),
(795,35,l),
(481,35,l),
(545,345,l),
(802,345,l),
(809,378,l),
(552,378,l),
(609,672,l),
(922,672,l),
(929,707,l),
(577,707,l),
(564,644,l),
(533,691,o),
(476,715,o),
(394,715,cs),
(227,715,o),
(135,615,o),
(102,452,cs),
(63,255,ls),
(28,80,o),
(98,-8,o),
(248,-8,cs)
);
},
{
closed = 1;
nodes = (
(135,451,ls),
(166,607,o),
(250,681,o),
(380,681,cs),
(510,681,o),
(561,602,o),
(531,451,cs),
(490,247,ls),
(461,102,o),
(381,25,o),
(249,25,cs),
(120,25,o),
(65,99,o),
(95,247,cs)
);
}
);
width = 900;
},
{
anchors = (
{
name = b.uni0324_2;
position = "{79, 0}";
},
{
name = m.uni0308_1;
position = "{79, 726}";
}
);
layerId = "4C505698-BF71-4ADC-851F-163946829AF6";
shapes = (
{
closed = 1;
nodes = (
(242,-8,o),
(292,12,o),
(332,52,c),
(322,0,l),
(606,0,l),
(613,36,l),
(366,36,l),
(427,341,l),
(637,341,l),
(644,378,l),
(435,378,l),
(493,671,l),
(740,671,l),
(747,707,l),
(463,707,l),
(453,657,l),
(429,697,o),
(386,717,o),
(322,717,cs),
(191,717,o),
(119,616,o),
(95,495,cs),
(39,213,ls),
(11,72,o),
(66,-8,o),
(181,-8,cs)
);
},
{
closed = 1;
nodes = (
(136,496,ls),
(160,617,o),
(223,680,o),
(316,680,cs),
(405,680,o),
(444,619,o),
(419,496,cs),
(360,202,ls),
(337,86,o),
(276,28,o),
(185,28,cs),
(90,29,o),
(54,86,o),
(77,202,cs)
);
}
);
width = 706;
}
);
leftKerningGroup = public.kern2.R_C;
unicode = 338;
},
{
glyphname = Obar;
layers = (
{
anchors = (
{
name = b.uni0324_2;
position = "{247, 0}";
},
{
name = m.uni0308_1;
position = "{247, 700}";
},
{
name = m.uni0328;
position = "{309, 10}";
},
{
name = t.uni031B_2;
position = "{534, 700}";
}
);
layerId = "D5E7FB56-198D-4A8E-BEAA-3EF32E5285DB";
shapes = (
{
closed = 1;
nodes = (
(414,-8,o),
(513,98,o),
(549,280,cs),
(577,419,ls),
(613,598,o),
(563,708,o),
(378,708,cs),
(193,708,o),
(96,599,o),
(60,419,cs),
(32,280,ls),
(-4,101,o),
(44,-8,o),
(229,-8,cs)
);
},
{
closed = 1;
nodes = (
(230,409,ls),
(252,518,o),
(281,557,o),
(347,557,cs),
(410,557,o),
(426,516,o),
(405,409,cs),
(380,286,ls),
(360,186,o),
(325,147,o),
(265,147,cs),
(199,147,o),
(184,183,o),
(205,286,cs)
);
},
{
closed = 1;
nodes = (
(83,275,l),
(507,275,l),
(537,426,l),
(113,426,l)
);
}
);
width = 589;
},
{
anchors = (
{
name = b.uni0324_2;
position = "{220, 0}";
},
{
name = m.uni0308_1;
position = "{220, 700}";
},
{
name = m.uni0328;
position = "{293, 10}";
},
{
name = t.uni031B_2;
position = "{460, 700}";
}
);
layerId = "ADD2B973-A810-4856-BC17-7BF1C9DE9A02";
shapes = (
{
closed = 1;
nodes = (
(283,-8,o),
(386,63,o),
(411,189,cs),
(475,510,ls),
(500,636,o),
(440,708,o),
(318,708,cs),
(196,708,o),
(93,640,o),
(67,510,cs),
(3,189,ls),
(-23,60,o),
(40,-8,o),
(164,-8,cs)
);
},
{
closed = 1;
nodes = (
(219,481,ls),
(230,537,o),
(248,563,o),
(284,563,cs),
(318,563,o),
(322,536,o),
(311,481,cs),
(258,213,ls),
(249,166,o),
(224,136,o),
(198,136,c),
(167,137,o),
(156,161,o),
(166,213,cs)
);
},
{
closed = 1;
nodes = (
(42,277,l),
(408,277,l),
(437,422,l),
(71,422,l)
);
}
);
width = 458;
},
{
anchors = (
{
name = b.uni0324_2;
position = "{247, 0}";
},
{
name = m.uni0308_1;
position = "{247, 700}";
},
{
name = m.uni0328;
position = "{309, 10}";
},
{
name = t.uni031B_2;
position = "{534, 700}";
}
);
layerId = "696351B7-15B4-4052-A598-BDFCA23AB282";
shapes = (
{
closed = 1;
nodes = (
(412,-8,o),
(508,99,o),
(543,273,cs),
(573,426,ls),
(607,598,o),
(558,708,o),
(380,708,cs),
(201,708,o),
(107,600,o),
(72,426,cs),
(41,273,ls),
(6,100,o),
(54,-8,o),
(233,-8,cs)
);
},
{
closed = 1;
nodes = (
(202,419,ls),
(227,542,o),
(273,590,o),
(356,590,cs),
(438,590,o),
(465,538,o),
(441,419,cs),
(412,275,ls),
(389,162,o),
(342,112,o),
(261,112,cs),
(178,112,o),
(151,159,o),
(174,275,cs)
);
},
{
closed = 1;
nodes = (
(93,292,l),
(505,292,l),
(529,409,l),
(116,409,l)
);
}
);
width = 594;
},
{
anchors = (
{
name = b.uni0324_2;
position = "{175, 0}";
},
{
name = m.uni0308_1;
position = "{175, 700}";
},
{
name = m.uni0328;
position = "{234, 10}";
},
{
name = t.uni031B_2;
position = "{370, 700}";
}
);
layerId = "019F6BD1-2D34-4D79-B1CB-A728BCCF901E";
shapes = (
{
closed = 1;
nodes = (
(291,-8,o),
(382,69,o),
(407,195,cs),
(469,504,ls),
(494,629,o),
(443,708,o),
(318,708,cs),
(194,708,o),
(102,632,o),
(76,504,cs),
(14,195,ls),
(-11,68,o),
(43,-8,o),
(168,-8,cs)
);
},
{
closed = 1;
nodes = (
(196,484,ls),
(211,559,o),
(240,594,o),
(292,594,cs),
(342,594,o),
(357,557,o),
(342,484,cs),
(287,209,ls),
(274,142,o),
(238,105,o),
(194,105,c),
(144,106,o),
(127,140,o),
(141,209,cs)
);
},
{
closed = 1;
nodes = (
(53,293,l),
(408,293,l),
(431,407,l),
(75,407,l)
);
}
);
width = 463;
},
{
anchors = (
{
name = b.uni0324_2;
position = "{247, 0}";
},
{
name = m.uni0308_1;
position = "{247, 700}";
},
{
name = m.uni0328;
position = "{309, 10}";
},
{
name = t.uni031B_2;
position = "{534, 700}";
}
);
layerId = "D1347CB1-B206-4E52-85B5-29AA6A54951E";
shapes = (
{
closed = 1;
nodes = (
(407,-8,o),
(501,100,o),
(533,262,cs),
(568,437,ls),
(600,598,o),
(551,708,o),
(383,708,cs),
(215,708,o),
(121,599,o),
(89,437,cs),
(54,262,ls),
(22,100,o),
(70,-8,o),
(239,-8,cs)
);
},
{
closed = 1;
nodes = (
(161,434,ls),
(190,577,o),
(257,640,o),
(370,640,cs),
(481,640,o),
(521,571,o),
(494,434,cs),
(459,258,ls),
(433,126,o),
(365,60,o),
(254,60,cs),
(143,60,o),
(99,123,o),
(126,258,cs)
);
},
{
closed = 1;
nodes = (
(106,317,l),
(502,317,l),
(516,384,l),
(120,384,l)
);
}
);
width = 602;
},
{
anchors = (
{
name = b.uni0324_2;
position = "{108, 0}";
},
{
name = m.uni0308_1;
position = "{108, 700}";
},
{
name = m.uni0328;
position = "{145, 10}";
},
{
name = t.uni031B_2;
position = "{235, 700}";
}
);
layerId = "77B4CD6B-5B31-4FA5-B8A2-6C2FAC774875";
shapes = (
{
closed = 1;
nodes = (
(302,-8,o),
(378,82,o),
(402,204,cs),
(460,495,ls),
(485,620,o),
(449,708,o),
(318,708,cs),
(188,708,o),
(114,620,o),
(89,495,cs),
(31,204,ls),
(6,81,o),
(47,-8,o),
(175,-8,cs)
);
},
{
closed = 1;
nodes = (
(160,488,ls),
(181,591,o),
(230,641,o),
(305,641,cs),
(377,641,o),
(407,591,o),
(386,488,cs),
(330,203,ls),
(311,107,o),
(261,58,o),
(189,58,cs),
(112,59,o),
(84,107,o),
(103,203,cs)
);
},
{
closed = 1;
nodes = (
(69,317,l),
(410,317,l),
(424,384,l),
(82,384,l)
);
}
);
width = 471;
},
{
anchors = (
{
name = b.uni0324_2;
position = "{247, 0}";
},
{
name = m.uni0308_1;
position = "{247, 700}";
},
{
name = m.uni0328;
position = "{309, 10}";
},
{
name = t.uni031B_2;
position = "{534, 700}";
}
);
layerId = "9799992C-39FB-428C-A67B-0675C2B8D195";
shapes = (
{
closed = 1;
nodes = (
(404,-8,o),
(496,102,o),
(527,255,cs),
(565,444,ls),
(596,600,o),
(548,708,o),
(386,708,cs),
(224,708,o),
(132,600,o),
(101,444,cs),
(63,255,ls),
(32,98,o),
(82,-8,o),
(244,-8,cs)
);
},
{
closed = 1;
nodes = (
(134,444,ls),
(165,600,o),
(249,673,o),
(379,673,cs),
(509,673,o),
(560,593,o),
(530,444,cs),
(490,247,ls),
(461,102,o),
(381,25,o),
(249,25,cs),
(120,25,o),
(65,99,o),
(95,247,cs)
);
},
{
closed = 1;
nodes = (
(96,334,l),
(521,334,l),
(527,367,l),
(103,367,l)
);
}
);
width = 607;
},
{
anchors = (
{
name = b.uni0324_2;
position = "{63, 0}";
},
{
name = m.uni0308_1;
position = "{63, 700}";
},
{
name = m.uni0328;
position = "{86, 10}";
},
{
name = t.uni031B_2;
position = "{145, 700}";
}
);
layerId = "4C505698-BF71-4ADC-851F-163946829AF6";
shapes = (
{
closed = 1;
nodes = (
(308,-8,o),
(375,91,o),
(399,210,cs),
(454,489,ls),
(479,613,o),
(452,708,o),
(318,708,cs),
(186,708,o),
(122,610,o),
(98,489,cs),
(42,210,ls),
(18,91,o),
(52,-8,o),
(179,-8,cs)
);
},
{
closed = 1;
nodes = (
(136,491,ls),
(160,612,o),
(223,672,o),
(314,672,cs),
(401,672,o),
(441,612,o),
(417,491,cs),
(358,199,ls),
(335,83,o),
(275,27,o),
(185,27,cs),
(90,28,o),
(55,86,o),
(78,199,cs)
);
},
{
closed = 1;
nodes = (
(79,333,l),
(411,333,l),
(418,369,l),
(87,369,l)
);
}
);
width = 476;
}
);
unicode = 415;
},
{
glyphname = Omega;
layers = (
{
anchors = (
{
name = b.uni0324_2;
position = "{247, 0}";
},
{
name = m.uni0308_1;
position = "{247, 700}";
},
{
name = m.uni0328;
position = "{309, 10}";
},
{
name = t.uni031B_2;
position = "{534, 700}";
}
);
layerId = "D5E7FB56-198D-4A8E-BEAA-3EF32E5285DB";
shapes = (
{
closed = 1;
nodes = (
(403,557,o),
(440,529,o),
(427,463,cs),
(424,447,o),
(417,428,o),
(408,409,cs),
(313,202,ls),
(306,187,o),
(302,173,o),
(299,160,cs),
(279,62,o),
(365,0,o),
(527,0,c),
(555,138,l),
(490,140,o),
(465,167,o),
(472,201,c),
(473,208,o),
(478,216,o),
(481,223,c),
(582,419,ls),
(596,446,o),
(605,471,o),
(610,495,cs),
(636,625,o),
(536,708,o),
(380,708,cs),
(224,708,o),
(91,625,o),
(65,495,cs),
(60,471,o),
(59,446,o),
(62,419,cs),
(85,223,ls),
(86,216,o),
(85,208,o),
(84,201,c),
(77,167,o),
(43,140,o),
(-23,138,c),
(-51,0,l),
(111,0,o),
(222,62,o),
(242,160,cs),
(245,173,o),
(245,187,o),
(244,202,cs),
(232,409,ls),
(231,429,o),
(232,447,o),
(235,463,cs),
(248,529,o),
(297,557,o),
(350,557,cs)
);
}
);
width = 593;
},
{
anchors = (
{
name = b.uni0324_2;
position = "{220, 0}";
},
{
name = m.uni0308_1;
position = "{220, 700}";
},
{
name = m.uni0328;
position = "{293, 10}";
},
{
name = t.uni031B_2;
position = "{460, 700}";
},
{
name = b.uni0324.3;
position = "{247, 0}";
},
{
name = m.uni0308.2;
position = "{247, 700}";
},
{
name = m.uni0328.1;
position = "{309, 10}";
},
{
name = t.uni031B.3;
position = "{534, 700}";
}
);
layerId = "ADD2B973-A810-4856-BC17-7BF1C9DE9A02";
shapes = (
{
closed = 1;
nodes = (
(319,563,o),
(340,548,o),
(334,518,cs),
(332,507,o),
(331,495,o),
(326,481,c),
(246,222,ls),
(237,193,o),
(231,168,o),
(226,145,cs),
(206,45,o),
(240,7,o),
(404,0,c),
(432,140,l),
(389,140,o),
(375,148,o),
(380,172,cs),
(381,177,o),
(383,183,o),
(385,189,cs),
(486,510,ls),
(492,530,o),
(498,547,o),
(501,564,cs),
(520,658,o),
(423,708,o),
(319,708,cs),
(221,708,o),
(104,662,o),
(85,577,cs),
(81,557,o),
(76,534,o),
(74,510,cs),
(46,189,ls),
(45,178,o),
(41,170,o),
(40,163,c),
(37,146,o),
(16,140,o),
(-21,140,c),
(-49,0,l),
(118,7,o),
(167,45,o),
(187,145,cs),
(192,168,o),
(194,193,o),
(197,222,cs),
(220,481,l),
(222,496,o),
(227,509,o),
(229,520,c),
(235,548,o),
(260,563,o),
(285,563,cs)
);
}
);
width = 474;
},
{
anchors = (
{
name = b.uni0324_2;
position = "{247, 0}";
},
{
name = m.uni0308_1;
position = "{247, 700}";
},
{
name = m.uni0328;
position = "{309, 10}";
},
{
name = t.uni031B_2;
position = "{534, 700}";
}
);
layerId = "696351B7-15B4-4052-A598-BDFCA23AB282";
shapes = (
{
closed = 1;
nodes = (
(425,590,o),
(484,553,o),
(470,481,cs),
(466,462,o),
(458,442,o),
(444,419,cs),
(354,275,ls),
(335,244,o),
(322,214,o),
(317,187,cs),
(295,76,o),
(381,0,o),
(522,0,c),
(546,120,l),
(482,120,o),
(452,176,o),
(463,230,cs),
(466,245,o),
(472,260,o),
(480,273,cs),
(577,426,ls),
(596,455,o),
(608,482,o),
(613,509,cs),
(636,622,o),
(544,708,o),
(382,708,cs),
(220,708,o),
(95,622,o),
(72,509,cs),
(67,482,o),
(67,455,o),
(74,426,cs),
(110,273,ls),
(113,260,o),
(113,245,o),
(110,230,cs),
(99,175,o),
(49,118,o),
(-17,120,c),
(-41,0,l),
(100,0,o),
(217,76,o),
(239,187,cs),
(244,214,o),
(244,244,o),
(237,275,cs),
(205,419,ls),
(200,442,o),
(199,462,o),
(203,481,cs),
(217,553,o),
(291,590,o),
(358,590,cs)
);
}
);
width = 598;
},
{
anchors = (
{
name = b.uni0324_2;
position = "{175, 0}";
},
{
name = m.uni0308_1;
position = "{175, 700}";
},
{
name = m.uni0328;
position = "{234, 10}";
},
{
name = t.uni031B_2;
position = "{370, 700}";
}
);
layerId = "019F6BD1-2D34-4D79-B1CB-A728BCCF901E";
shapes = (
{
closed = 1;
nodes = (
(339,594,o),
(372,570,o),
(363,525,c),
(361,513,o),
(358,499,o),
(352,484,cs),
(252,215,ls),
(243,191,o),
(237,169,o),
(233,148,cs),
(214,54,o),
(255,5,o),
(406,0,c),
(427,109,l),
(367,109,o),
(348,130,o),
(355,167,cs),
(357,177,o),
(360,187,o),
(364,197,c),
(477,504,ls),
(484,523,o),
(490,541,o),
(493,558,cs),
(512,652,o),
(426,708,o),
(320,708,cs),
(218,708,o),
(110,655,o),
(90,567,cs),
(86,548,o),
(82,526,o),
(82,504,c),
(71,197,l),
(70,183,o),
(68,172,o),
(66,161,cs),
(60,129,o),
(28,109,o),
(-27,109,c),
(-49,0,l),
(104,5,o),
(163,54,o),
(182,148,cs),
(186,169,o),
(190,191,o),
(191,215,cs),
(198,484,l),
(199,500,o),
(201,514,o),
(204,527,cs),
(213,570,o),
(254,594,o),
(294,594,cs)
);
}
);
width = 477;
},
{
anchors = (
{
name = b.uni0324_2;
position = "{247, 0}";
},
{
name = m.uni0308_1;
position = "{247, 700}";
},
{
name = m.uni0328;
position = "{309, 10}";
},
{
name = t.uni031B_2;
position = "{534, 700}";
}
);
layerId = "D1347CB1-B206-4E52-85B5-29AA6A54951E";
shapes = (
{
closed = 1;
nodes = (
(464,640,o),
(543,591,o),
(525,500,cs),
(521,480,o),
(513,458,o),
(498,434,cs),
(393,258,ls),
(355,193,o),
(332,143,o),
(324,105,cs),
(308,25,o),
(365,0,o),
(510,0,c),
(524,66,l),
(422,66,o),
(388,83,o),
(397,130,cs),
(403,160,o),
(428,203,o),
(464,262,cs),
(571,437,ls),
(584,459,o),
(594,481,o),
(598,503,cs),
(620,612,o),
(530,708,o),
(385,708,cs),
(240,708,o),
(113,612,o),
(91,503,cs),
(87,481,o),
(87,459,o),
(91,437,c),
(129,262,ls),
(142,203,o),
(148,160,o),
(142,130,cs),
(133,83,o),
(92,66,o),
(-10,66,c),
(-23,0,l),
(122,0,o),
(190,25,o),
(206,105,cs),
(214,143,o),
(209,193,o),
(197,258,cs),
(163,434,ls),
(158,458,o),
(158,480,o),
(162,500,cs),
(180,591,o),
(280,640,o),
(372,640,cs)
);
}
);
width = 605;
},
{
anchors = (
{
name = b.uni0324_2;
position = "{108, 0}";
},
{
name = m.uni0308_1;
position = "{108, 700}";
},
{
name = m.uni0328;
position = "{145, 10}";
},
{
name = t.uni031B_2;
position = "{235, 700}";
}
);
layerId = "77B4CD6B-5B31-4FA5-B8A2-6C2FAC774875";
shapes = (
{
closed = 1;
nodes = (
(368,641,o),
(421,604,o),
(407,536,cs),
(404,521,o),
(399,506,o),
(391,488,cs),
(261,206,ls),
(252,187,o),
(246,169,o),
(243,153,cs),
(226,66,o),
(277,3,o),
(409,0,c),
(421,62,l),
(338,62,o),
(305,103,o),
(316,161,cs),
(319,176,o),
(325,192,o),
(334,210,c),
(463,495,ls),
(472,514,o),
(479,532,o),
(482,549,c),
(501,642,o),
(430,708,o),
(321,708,cs),
(214,708,o),
(117,643,o),
(99,553,cs),
(95,535,o),
(93,515,o),
(94,495,cs),
(110,210,ls),
(111,191,o),
(109,174,o),
(106,158,c),
(93,102,o),
(44,62,o),
(-38,62,c),
(-50,0,l),
(83,3,o),
(160,66,o),
(177,153,cs),
(180,169,o),
(181,187,o),
(180,206,cs),
(163,488,ls),
(162,506,o),
(164,522,o),
(167,536,cs),
(181,604,o),
(246,641,o),
(308,641,cs)
);
}
);
width = 481;
},
{
anchors = (
{
name = b.uni0324_2;
position = "{247, 0}";
},
{
name = m.uni0308_1;
position = "{247, 700}";
},
{
name = m.uni0328;
position = "{309, 10}";
},
{
name = t.uni031B_2;
position = "{534, 700}";
}
);
layerId = "9799992C-39FB-428C-A67B-0675C2B8D195";
shapes = (
{
closed = 1;
nodes = (
(495,673,o),
(574,594,o),
(554,494,cs),
(551,478,o),
(544,461,o),
(536,444,c),
(435,247,ls),
(409,197,o),
(394,156,o),
(387,123,cs),
(369,34,o),
(421,0,o),
(547,0,c),
(554,34,l),
(445,34,o),
(411,66,o),
(424,133,cs),
(431,166,o),
(448,206,o),
(473,255,cs),
(570,444,ls),
(579,462,o),
(585,479,o),
(588,495,cs),
(613,622,o),
(504,708,o),
(390,708,cs),
(276,708,o),
(133,622,o),
(108,495,cs),
(105,479,o),
(103,462,o),
(105,444,cs),
(126,255,ls),
(132,206,o),
(133,166,o),
(126,133,cs),
(113,66,o),
(67,34,o),
(-42,34,c),
(-49,0,l),
(77,0,o),
(142,34,o),
(160,123,cs),
(167,156,o),
(167,197,o),
(161,247,cs),
(139,444,ls),
(137,461,o),
(138,478,o),
(141,494,cs),
(161,594,o),
(271,673,o),
(383,673,cs)
);
}
);
width = 616;
},
{
anchors = (
{
name = b.uni0324_2;
position = "{63, 0}";
},
{
name = m.uni0308_1;
position = "{63, 700}";
},
{
name = m.uni0328;
position = "{86, 10}";
},
{
name = t.uni031B_2;
position = "{145, 700}";
}
);
layerId = "4C505698-BF71-4ADC-851F-163946829AF6";
shapes = (
{
closed = 1;
nodes = (
(389,672,o),
(453,626,o),
(436,543,cs),
(433,527,o),
(427,510,o),
(417,491,cs),
(266,199,l),
(258,185,o),
(254,170,o),
(251,156,cs),
(235,75,o),
(293,1,o),
(411,0,c),
(417,31,l),
(317,31,o),
(278,85,o),
(291,156,cs),
(295,176,o),
(302,196,o),
(313,218,cs),
(454,489,ls),
(463,507,o),
(471,526,o),
(474,543,c),
(493,636,o),
(433,708,o),
(322,708,cs),
(211,708,o),
(123,636,o),
(104,543,c),
(101,526,o),
(100,507,o),
(102,489,cs),
(135,218,l),
(137,196,o),
(136,176,o),
(132,156,cs),
(117,85,o),
(56,31,o),
(-44,31,c),
(-50,0,l),
(69,1,o),
(156,75,o),
(172,156,cs),
(175,170,o),
(176,185,o),
(174,199,cs),
(140,491,ls),
(138,510,o),
(139,527,o),
(142,543,cs),
(159,626,o),
(242,672,o),
(318,672,cs)
);
}
);
width = 484;
}
);
unicode = 937;
},
